<?xml version="1.0" encoding="UTF-8"?>
<svg width="70px" height="70px" viewBox="0 0 70 70" version="1.1" xmlns="http://www.w3.org/2000/svg" xmlns:xlink="http://www.w3.org/1999/xlink">
    <!-- Generator: Sketch 47.1 (45422) - http://www.bohemiancoding.com/sketch -->
    <title>analyze-icon</title>
    <desc>Created with Sketch.</desc>
    <defs></defs>
    <g id="v2---Mobile" stroke="none" stroke-width="1" fill="none" fill-rule="evenodd">
        <g id="2-Approach" transform="translate(-125.000000, -1481.000000)" fill="#FCFC00">
            <g id="analyze-icon" transform="translate(125.000000, 1481.000000)">
                <g id="Imported-Layers">
                    <path d="M0,69.7574701 L69.3099273,69.7574701 L69.3099273,68.4560259 L65.8846468,68.4560259 L65.8846468,17 L57.7860078,17 L57.7860078,68.4560259 L52.2805974,68.4560259 L52.2805974,36.4376992 L44.1819584,36.4376992 L44.1819584,68.4560259 L38.6765481,68.4560259 L38.6765481,31.8616534 L30.5779091,31.8616534 L30.5779091,68.4420319 L25.0724987,68.4420319 L25.0724987,22.7235558 L16.9738597,22.7235558 L16.9738597,68.4560259 L11.4961844,68.4560259 L11.4961844,41.013745 L3.39754545,41.013745 L3.39754545,68.4560259 L0,68.4560259 L0,69.7574701 L0,69.7574701 Z M59.0756883,18.3014442 L64.5810987,18.3014442 L64.5810987,68.4420319 L59.353039,68.4420319 L59.353039,68.1761454 L59.0756883,68.1761454 L59.0756883,18.3014442 L59.0756883,18.3014442 Z M45.4855065,37.7391434 L50.9909169,37.7391434 L50.9909169,68.4420319 L45.7628571,68.4420319 L45.7628571,68.1761454 L45.4855065,68.1761454 L45.4855065,37.7391434 L45.4855065,37.7391434 Z M31.8953247,33.1770916 L37.4007351,33.1770916 L37.4007351,68.4560259 L31.8953247,68.4560259 L31.8953247,33.1770916 Z M18.2912753,24.025 L23.7966857,24.025 L23.7966857,68.4560259 L18.2912753,68.4560259 L18.2912753,24.025 Z M4.70109351,42.3151892 L10.2065039,42.3151892 L10.2065039,68.4420319 L4.97844416,68.4420319 L4.97844416,68.1761454 L4.70109351,68.1761454 L4.70109351,42.3151892 L4.70109351,42.3151892 Z" id="Fill-1"></path>
                    <path d="M65.0248597,8.17250996 C67.2575325,8.17250996 69.0741792,6.33943277 69.0741792,4.08625498 C69.0741792,1.83307719 67.2575325,0 65.0248597,0 C62.7920483,0 60.9755403,1.83307719 60.9755403,4.08625498 C60.9755403,4.9039258 61.2198862,5.69920618 61.682091,6.38603287 L61.9077158,6.7210498 L44.9736559,23.8095722 L44.6404191,23.5768516 C43.9753322,23.1119701 43.1884884,22.8662351 42.3653117,22.8662351 C41.6731831,22.8662351 40.9843828,23.0610319 40.3179092,23.4454477 L39.9961824,23.6311484 L27.7217521,11.244758 L27.9136788,10.9177176 C28.291985,10.2724532 28.4839117,9.57960906 28.4839117,8.85821713 C28.4839117,6.60503934 26.6674036,4.77196215 24.4345922,4.77196215 C22.2017808,4.77196215 20.3852727,6.60503934 20.3852727,8.85821713 C20.3852727,9.55651892 20.5784475,10.2516021 20.9591112,10.9241549 L21.1431334,11.2488162 L6.41456582,26.1261429 L6.09034291,25.9326056 C5.45104966,25.5507087 4.76432945,25.3571713 4.04931948,25.3571713 C1.81650808,25.3571713 0,27.1902485 0,29.4434263 C0,31.6966041 1.81650808,33.5296813 4.04931948,33.5296813 C6.28213088,33.5296813 8.09863896,31.6966041 8.09863896,29.4434263 C8.09863896,28.7451245 7.90546423,28.0500413 7.52466179,27.3773486 L7.34077831,27.0525473 L22.0678204,12.1911738 L22.3910726,12.3814925 C22.4960498,12.4433461 22.6501181,12.5309487 22.8016903,12.5946215 L22.8040477,12.5946215 L22.8952961,12.6296066 C23.074742,12.7020956 23.272909,12.7659084 23.4843889,12.8190857 C23.5907529,12.8427356 23.6937886,12.8658257 23.8033421,12.876881 C23.9165012,12.8910149 24.0077496,12.90249 24.0879039,12.90249 L24.1299225,12.9045891 C24.1899689,12.9110264 24.2368412,12.9180234 24.2837135,12.9253003 C24.3524964,12.9360757 24.4067185,12.9444721 24.4623273,12.9444721 C24.5096156,12.9444721 24.5731289,12.9349562 24.6403864,12.9248805 C24.687952,12.9178835 24.7355177,12.9108865 24.783222,12.9055687 C24.8416043,12.8981519 24.9071977,12.8936738 24.9727911,12.8894756 C25.024101,12.886257 25.0666743,12.8835981 25.1093863,12.8782804 C25.1981385,12.8683446 25.2884162,12.8497326 25.3928387,12.8283217 L25.4621764,12.8141877 C25.6385714,12.769127 25.8382638,12.7061539 26.0314386,12.6339447 L26.0404525,12.6293267 C26.2265548,12.5424238 26.3954613,12.4637774 26.5618717,12.373376 L26.8798542,12.2004099 L39.1185063,24.5508357 L38.9289371,24.8771763 C38.7296607,25.2198899 38.574899,25.6180199 38.4688124,26.060371 C38.4556383,26.1132684 38.4435735,26.1618277 38.4316474,26.2224218 C38.382279,26.4582211 38.3575948,26.7029766 38.3575948,26.95249 C38.3575948,29.2056678 40.1741029,31.038745 42.4069143,31.038745 C44.6397257,31.038745 46.4562338,29.2056678 46.4562338,26.95249 C46.4562338,26.6447615 46.4201782,26.3493476 46.3458482,26.0497356 C46.3404399,26.0274851 46.3350315,26.0087331 46.3297619,25.9899811 C46.3210253,25.9591942 46.3125661,25.929387 46.3041069,25.8952415 C46.2521037,25.6847714 46.1673731,25.4542898 46.0454775,25.1912022 C45.9959704,25.1054188 45.9708701,25.0059213 45.9708701,24.8953685 L45.9708701,24.692875 L62.9039593,7.56237052 L63.2172269,7.72036305 C63.8118667,8.02039492 64.4198193,8.17250996 65.0248597,8.17250996 L65.0248597,8.17250996 Z M4.04931948,32.200249 C2.53526229,32.200249 1.30354805,30.9572998 1.30354805,29.4294323 C1.30354805,27.9015647 2.53526229,26.6586155 4.04931948,26.6586155 C5.56337668,26.6586155 6.79509091,27.9015647 6.79509091,29.4294323 C6.79509091,30.9572998 5.56337668,32.200249 4.04931948,32.200249 L4.04931948,32.200249 Z M26.2671866,10.9188372 C25.7733638,11.3599288 25.1213124,11.603005 24.4311253,11.603005 C23.7292895,11.603005 23.0723845,11.3527918 22.5811965,10.8985458 C22.0059712,10.3706912 21.6888208,9.64594074 21.6888208,8.85821713 C21.6888208,7.3303496 22.9267754,6.0874004 24.4484597,6.0874004 C25.9623783,6.0874004 27.1942312,7.3303496 27.1942312,8.85821713 C27.1942312,9.64328187 26.8562794,10.3942012 26.2671866,10.9188372 L26.2671866,10.9188372 Z M42.3791792,29.7373008 C40.865122,29.7373008 39.6334078,28.4943516 39.6334078,26.9664841 C39.6334078,26.7925383 39.6483847,26.6163536 39.6781999,26.4428277 C39.6847177,26.3823735 39.700388,26.322759 39.7261816,26.2616051 C39.753778,26.1412565 39.7906656,26.0020159 39.8648569,25.8521399 L39.924626,25.7445259 C39.9587401,25.6738561 39.9999267,25.5886325 40.0494338,25.5052281 L40.0494338,25.4980911 L40.1399888,25.3662674 C40.6664003,24.6223451 41.4826432,24.1956673 42.3791792,24.1956673 C43.063958,24.1618018 43.742219,24.4348252 44.2834688,24.9630996 L44.3096784,24.9908078 L44.469155,25.1807067 C44.7136396,25.4682839 45.1249506,26.0843008 45.1249506,26.9664841 C45.1249506,28.4943516 43.8932364,29.7373008 42.3791792,29.7373008 L42.3791792,29.7373008 Z M62.2790883,4.07226096 C62.2790883,2.54439343 63.5108025,1.30144422 65.0248597,1.30144422 C66.5389169,1.30144422 67.7706312,2.54439343 67.7706312,4.07226096 C67.7706312,5.60012849 66.5389169,6.84307769 65.0248597,6.84307769 C63.5108025,6.84307769 62.2790883,5.60012849 62.2790883,4.07226096 L62.2790883,4.07226096 Z" id="Fill-2"></path>
                </g>
            </g>
        </g>
    </g>
</svg>