<?xml version="1.0" encoding="UTF-8"?>
<svg width="180px" height="80px" viewBox="0 0 180 80" version="1.1" xmlns="http://www.w3.org/2000/svg" xmlns:xlink="http://www.w3.org/1999/xlink">
    <!-- Generator: Sketch 48.2 (47327) - http://www.bohemiancoding.com/sketch -->
    <title>counsyl-logo</title>
    <desc>Created with Sketch.</desc>
    <defs></defs>
    <g id="Client-logo-sheet" stroke="none" stroke-width="1" fill="none" fill-rule="evenodd">
        <g id="counsyl-logo" fill="#FCFC00">
            <g id="counsyl" transform="translate(17.000000, 23.000000)">
                <path d="M53.3960129,23.2642795 L53.3312598,23.0925536 L53.1666792,23.1702391 C51.9134378,23.7740057 50.3849959,24.0792962 48.6245222,24.0792962 C43.8098628,24.0792962 40.315896,20.7578986 40.315896,16.1812663 C40.315896,11.2393755 43.7343176,7.92070375 48.8201304,7.92070375 C51.0878363,7.92070375 52.9616278,8.47267997 54.5480776,9.60797918 L54.815184,9.80014868 L54.815184,6.1925412 L54.7261485,6.14483955 C53.339354,5.39524223 51.3643858,5 49.0170876,5 C41.8294986,5 37,9.49349523 37,16.1812663 C37,22.4506257 41.9023458,27 48.6568987,27 C50.9219066,27 53.0412201,26.5597819 54.7841565,25.7270475 L55,25.6234667 L54.8313723,25.4517408 C54.201379,24.8166274 53.6914487,24.039772 53.3960129,23.2642795" id="Fill-1"></path>
                <path d="M62.9831522,11 C58.4315559,11 55,14.4318182 55,18.9826203 C55,23.5534759 58.4315559,27 62.9831522,27 C67.5536181,27 71,23.5534759 71,18.9826203 C71,14.4318182 67.5536181,11 62.9831522,11 L62.9831522,11 Z M62.9831522,24.2981283 C60.1527251,24.2981283 58.0177744,22.013369 58.0177744,18.9826203 C58.0177744,15.973262 60.1527251,13.7018717 62.9831522,13.7018717 C65.8324488,13.7018717 67.9808778,15.973262 67.9808778,18.9826203 C67.9808778,22.013369 65.8324488,24.2981283 62.9831522,24.2981283 L62.9831522,24.2981283 Z" id="Fill-2"></path>
                <path d="M86.9638279,11.1746546 L86.9677035,11 L83.9369969,11 L83.9447481,11.1787481 C84.1385273,15.4878049 84.0958959,19.8746376 84.0403458,23.6624595 C82.9978138,24.037694 81.8674352,24.2423674 80.8468648,24.2423674 C78.2166352,24.2423674 77.0190798,23.1303087 76.9648216,20.634658 C76.8756832,17.5509125 76.8950611,14.4576156 77.0281228,11.1773836 L77.0345821,11 L74,11 L74.009043,11.1801126 C74.1433966,13.9336517 74.139521,16.8359202 74.1356454,19.6426744 L74.1343536,21.0371823 C74.1343536,24.8263688 76.2504223,27 79.9373944,27 C81.2124615,27 82.0805923,26.7803172 82.846666,26.5851953 C83.4835536,26.4241856 84.085561,26.2727273 84.8270893,26.2727273 C85.482063,26.2727273 86.1241181,26.366877 86.7894266,26.5633635 L87,26.62613 L86.9948326,26.3955313 C86.8772732,20.9362101 86.8307662,16.4852465 86.9638279,11.1746546" id="Fill-3"></path>
                <path d="M103.864341,18.3627234 L103.865633,16.952 C103.865633,13.1691915 101.750646,11 98.0620155,11 C96.8074935,11 95.9379845,11.219234 95.1718346,11.4125957 C94.5271318,11.5746383 93.9173127,11.7271489 93.1731266,11.7271489 C92.6447028,11.7271489 92.0374677,11.6372766 91.2028424,11.4330213 L91,11.384 L91.005168,11.603234 C91.118863,16.9165957 91.1679587,21.5395745 91.0361757,26.8257021 L91.0310078,27 L94.0620155,27 L94.0542636,26.821617 C93.8617571,22.5159149 93.9031008,18.1244255 93.9586563,14.3320851 C95,13.9671489 96.1847545,13.752 97.1537468,13.752 C99.7829457,13.752 100.98062,14.8631489 101.036176,17.3537021 C101.125323,20.4175319 101.104651,23.5154043 100.972868,26.8229787 L100.965116,27 L104,27 L103.990956,26.8202553 C103.857881,24.0791489 103.861757,21.1732766 103.864341,18.3627234" id="Fill-4"></path>
                <path d="M113.125773,17.6470981 C111.437546,16.9946631 109.980584,16.4316211 109.980584,15.2441628 C109.980584,14.0073382 111.546376,13.5670447 113.011501,13.5670447 C114.438536,13.5670447 115.847885,13.9286191 117.085827,14.6144096 L117.340218,14.7531688 L117.340218,11.7324883 L117.230027,11.6897932 C116.00841,11.2321548 114.63307,11 113.143458,11 C110.324759,11 107.032649,12.179453 107.032649,15.5043362 C107.032649,18.4182789 109.617363,19.4643095 111.897353,20.3849233 C113.555652,21.0560374 114.986767,21.6337558 114.986767,22.7878586 C114.986767,23.8178786 113.72978,24.4329553 111.625278,24.4329553 C110.03772,24.4329553 108.565793,24.0700467 107.25167,23.3549033 L107,23.2161441 L107,26.2021348 L107.106109,26.2448299 C108.401187,26.7518346 109.847267,27 111.525971,27 C115.458818,27 118,25.2068045 118,22.4316211 C118,19.5283522 115.411205,18.5290193 113.125773,17.6470981" id="Fill-5"></path>
                <path d="M131.895661,11.1751166 C132.003165,14.6299357 131.997856,18.1580594 131.993874,21.5707962 L131.992547,23.0979756 C130.989178,23.7278522 129.770801,24.0753704 128.551097,24.0753704 C126.205921,24.0753704 125.134865,22.9798737 125.077795,20.5200968 C125.01807,17.5146078 124.979581,14.3027799 125.110975,11.1778316 L125.117611,11 L122,11 L122.00929,11.1805465 C122.103522,12.7837455 122.17121,14.4195243 122.17121,20.9191997 C122.17121,24.6903146 124.273507,26.8528006 127.939255,26.8528006 C129.486779,26.8528006 130.910873,26.4143304 131.99122,25.6120522 L131.99122,27.0781444 C131.99122,29.9967538 130.468913,31.3542466 127.198673,31.3542466 C125.527718,31.3542466 123.92976,30.9184914 122.449923,30.0591985 L122.203063,29.9153043 L122.203063,33.0823349 L122.299949,33.1271321 C123.940378,33.8968305 125.762634,34 127.327412,34 C132.089433,34 134.932312,31.3623915 134.932312,26.9451101 C134.932312,25.4749454 134.927004,24.049578 134.923022,22.6554329 C134.912404,18.6521867 134.900459,14.8702119 134.996018,11.1737591 L135,11 L131.890352,11 L131.895661,11.1751166" id="Fill-6"></path>
                <path d="M146.76856,23.9437249 C146.156501,24.1514069 145.579296,24.195623 145.202858,24.195623 C143.69153,24.195623 142.330777,23.977222 142.265249,21.334971 C142.198327,18.3470299 142.163472,15.2867351 142.163472,12.2371594 C142.163472,8.83921393 142.208086,5.87405092 142.29871,3.17284502 L142.304287,3 L139,3 L139.006971,3.1741849 C139.150575,6.44350156 139.210526,9.72219741 139.210526,21.5667709 C139.210526,24.8669049 141.257232,27 144.424887,27 C145.273963,27 146.389334,26.827155 146.860579,26.7360429 L147,26.7092452 L147,23.8660116 L146.76856,23.9437249" id="Fill-7"></path>
                <path d="M26.9973323,13.9278407 C27.0160063,12.0039113 26.5384843,10.5281316 25.5794388,9.5438271 C24.6924217,8.63398857 23.4372592,8.17500752 21.8486316,8.17500752 L20.8055528,8.17500752 L20.8055528,10.6973724 L21.3310938,10.6973724 C23.3585614,10.6973724 24.2389092,11.5909638 24.2735896,13.6868418 C24.3509535,17.215174 24.3522873,20.9425333 24.2762573,24.4776351 C20.9149294,24.516899 17.4775714,24.5141912 14.1175773,24.4762812 C11.8046636,24.4762812 10.817607,23.4730218 10.817607,21.1253134 L10.817607,18.7437569 C12.0287521,18.7261559 13.394625,18.7166784 14.7805059,18.7166784 C16.230412,18.7166784 17.5842802,18.7275098 18.6980536,18.7464647 L18.8714554,18.7491726 L18.8674538,18.5745161 C18.7874222,14.2446595 18.8301057,9.60610771 18.8674538,5.51183432 C18.8674538,2.11347909 16.8493232,0.00270785277 13.5987057,0.00270785277 L13.4919968,0.00406177916 C10.9816718,0.0270785277 8.38331193,0.0487413499 5.82496789,0.0487413499 C3.74681356,0.0487413499 1.89808319,0.035202086 0.173401838,0.00270785277 L0,0 L0.00266772058,0.174656504 C0.0813654777,4.561378 0.0440173896,9.1335874 0.00266772058,13.0748671 C-0.0160063235,14.9987965 0.461515661,16.4732223 1.42189507,17.4575268 C2.3075783,18.3673654 3.56274084,18.8277003 5.15136844,18.8277003 L6.19444719,18.8277003 L6.19444719,16.3039815 L5.66890623,16.3039815 C3.64143859,16.3039815 2.76242466,15.4103901 2.72774429,13.3145121 C2.64904654,9.74150035 2.68906235,5.91665831 2.72641043,2.52507271 C6.08507065,2.48445492 9.52242861,2.48580885 12.8824227,2.52642664 C15.1953364,2.52642664 16.1837269,3.52833216 16.1837269,5.87468659 L16.1837269,8.25759703 C14.9725818,8.27519807 13.6067088,8.28602949 12.2194941,8.28602949 C10.7709218,8.28602949 9.41571979,8.27519807 8.30194645,8.25488918 L8.12987847,8.25218133 L8.13254619,8.42683783 C8.21391167,12.7810651 8.17122814,17.4074316 8.13254619,21.4908735 C8.13254619,24.8878748 10.1520107,26.9986461 13.4026282,26.9986461 C17.844383,26.9593822 22.3875111,26.9593822 26.8292659,26.9986461 L27,27 L26.9973323,26.8266974 C26.9186345,22.4629927 26.9559826,17.8813058 26.9973323,13.9278407 L26.9973323,13.9278407 Z M10.8149392,10.7366362 C12.5662978,10.7366362 14.5204031,10.7379902 16.2224089,10.7745462 C16.2224089,12.5766222 16.221075,14.4342092 16.1863946,16.2633638 C14.4350361,16.2633638 12.4795969,16.2620098 10.7775911,16.2281617 C10.7775911,14.4260856 10.778925,12.5684986 10.8149392,10.7366362 L10.8149392,10.7366362 Z" id="Fill-8"></path>
            </g>
        </g>
    </g>
</svg>