<?xml version="1.0" encoding="UTF-8"?>
<svg width="314px" height="218px" viewBox="0 0 314 218" version="1.1" xmlns="http://www.w3.org/2000/svg" xmlns:xlink="http://www.w3.org/1999/xlink">
    <!-- Generator: Sketch 47.1 (45422) - http://www.bohemiancoding.com/sketch -->
    <title>design-for-medium</title>
    <desc>Created with Sketch.</desc>
    <defs></defs>
    <g id="v2" stroke="none" stroke-width="1" fill="none" fill-rule="evenodd">
        <g id="2.-Approach-Copy" transform="translate(-250.000000, -1950.000000)" fill="#FEFE00">
            <g id="design-for-medium" transform="translate(250.000000, 1950.000000)">
                <path d="M242.735294,196.728814 L194.558824,196.728814 L194.558824,157.754237 L313.147059,157.754237 L313.147059,0 L44.4705882,0 L44.4705882,85.3728814 L0,85.3728814 L0,202.29661 L70.4117647,202.29661 L70.4117647,217.144068 L113.029412,217.144068 L113.029412,202.29661 L242.735294,202.29661 L242.735294,196.728814 L242.735294,196.728814 Z M41.4873529,199.486729 C39.186,199.486729 37.3145294,197.612237 37.3145294,195.307169 C37.3145294,193.002102 39.186,191.12761 41.4873529,191.12761 C43.7887059,191.12761 45.6601765,193.002102 45.6601765,195.307169 C45.6601765,197.612237 43.7887059,199.486729 41.4873529,199.486729 L41.4873529,199.486729 Z M70.4117647,189.305085 L1.85294118,189.305085 L1.85294118,87.2288136 L81.5294118,87.2288136 L81.5294118,137.338983 L70.4117647,137.338983 L70.4117647,189.305085 L70.4117647,189.305085 Z M92.8953529,215.024593 C91.0905882,215.024593 89.6230588,213.550983 89.6230588,211.747017 C89.6230588,209.943051 91.0905882,208.469441 92.8953529,208.469441 C94.7001176,208.469441 96.1676471,209.943051 96.1676471,211.747017 C96.1676471,213.550983 94.7001176,215.024593 92.8953529,215.024593 L92.8953529,215.024593 Z M72.2647059,139.194915 L111.176471,139.194915 L111.176471,207.864407 L72.2647059,207.864407 L72.2647059,139.194915 Z M83.3823529,137.338983 L83.3823529,85.3728814 L50.0294118,85.3728814 L50.0294118,5.56779661 L307.588235,5.56779661 L307.588235,152.186441 L113.029412,152.186441 L113.029412,137.338983 L83.3823529,137.338983 L83.3823529,137.338983 Z M113.029412,157.754237 L159.352941,157.754237 L159.352941,196.728814 L113.029412,196.728814 L113.029412,157.754237 Z" id="Imported-Layers"></path>
            </g>
        </g>
    </g>
</svg>