<?xml version="1.0" encoding="UTF-8"?>
<svg width="77px" height="83px" viewBox="0 0 77 83" version="1.1" xmlns="http://www.w3.org/2000/svg" xmlns:xlink="http://www.w3.org/1999/xlink">
    <!-- Generator: Sketch 47.1 (45422) - http://www.bohemiancoding.com/sketch -->
    <title>desktop-logo-black</title>
    <desc>Created with Sketch.</desc>
    <defs></defs>
    <g id="Symbols" stroke="none" stroke-width="1" fill="none" fill-rule="evenodd">
        <g id="Desktop---Home" transform="translate(-97.000000, -130.000000)" stroke="#1B003C" stroke-width="3">
            <path d="M119.999963,144.206055 C118.616243,143.806039 117.157142,143.584252 115.648158,143.567153 C106.556503,143.46431 99.1034284,150.832204 99.0010636,160.024067 C98.9504382,164.574006 100.710197,168.717814 103.603396,171.755558 M119.747578,143.997997 C119.714653,148.756368 118.273871,154.167744 115.375722,159.33287 C112.161937,165.060265 107.767181,169.394782 103.269565,171.763796 M151.673396,144.359071 C151.30664,142.955586 150.749389,141.577811 149.992112,140.261817 C145.429637,132.331656 135.338595,129.64238 127.453161,134.255223 C123.549683,136.538368 120.918523,140.182563 119.809468,144.243123 M151.721917,144.033942 C147.649976,146.439275 142.301507,147.958834 136.417448,148.089385 C129.892836,148.234414 123.951096,146.643464 119.631722,143.958182 M151.440692,144.276198 C152.824412,143.876307 154.283637,143.65452 155.792497,143.637421 C164.884152,143.534453 172.337226,150.902347 172.439468,160.094085 C172.490217,164.644024 170.730458,168.787957 167.837259,171.825701 M151.6932,144.06789 C151.726002,148.826511 153.166783,154.237762 156.064933,159.402889 C159.278718,165.130408 163.673598,169.464676 168.17109,171.833814 M119.999963,199.115476 C118.616243,199.515491 117.157142,199.737278 115.648158,199.754377 C106.556503,199.85722 99.1034284,192.489327 99.0010636,183.297464 C98.9504382,178.747525 100.710197,174.603717 103.603396,171.565972 M119.747578,199.323659 C119.714653,194.565163 118.273871,189.153787 115.375722,183.988785 C112.161937,178.261266 107.767181,173.926749 103.269565,171.557735 M151.673396,198.962459 C151.30664,200.365945 150.749389,201.74372 149.992112,203.059714 C145.429637,210.989875 135.338595,213.67915 127.453161,209.066307 C123.549683,206.783163 120.918523,203.138968 119.809468,199.078408 M151.721917,199.287714 C147.649976,196.882255 142.301507,195.362697 136.417448,195.232271 C129.892836,195.087117 123.951096,196.678192 119.631722,199.363348 M151.440692,199.045333 C152.824412,199.445223 154.283637,199.667135 155.792497,199.684109 C164.884152,199.787202 172.337226,192.419309 172.439468,183.227446 C172.490217,178.677507 170.730458,174.533698 167.837259,171.495829 M151.6932,199.253641 C151.726002,194.49502 153.166783,189.083768 156.064933,183.918642 C159.278718,178.191123 163.673598,173.856855 168.17109,171.487717" id="desktop-logo-black"></path>
        </g>
    </g>
</svg>