<?xml version="1.0" encoding="UTF-8"?>
<svg width="186px" height="146px" viewBox="0 0 186 146" version="1.1" xmlns="http://www.w3.org/2000/svg" xmlns:xlink="http://www.w3.org/1999/xlink">
    <!-- Generator: Sketch 47.1 (45422) - http://www.bohemiancoding.com/sketch -->
    <title>desktop-logo-yellow</title>
    <desc>Created with Sketch.</desc>
    <defs>
        <polygon id="path-1" points="0.649309091 17.1428571 16.5218727 17.1428571 16.5218727 0.795771429 0.649309091 0.795771429"></polygon>
        <polygon id="path-3" points="0 22.2857143 185.864727 22.2857143 185.864727 0.829714286 0 0.829714286"></polygon>
    </defs>
    <g id="v2---alt" stroke="none" stroke-width="1" fill="none" fill-rule="evenodd">
        <g id="2.-Approach-Copy" transform="translate(-627.000000, -80.000000)">
            <g id="desktop-logo-yellow" transform="translate(627.000000, 82.000000)">
                <path d="M71.8784267,15.5420134 C70.1078869,15.0326477 68.2408035,14.7513818 66.3099324,14.7290864 C54.672986,14.5987436 45.132414,23.9799903 45.0013906,35.6833955 C44.9358789,41.476787 47.1891365,46.7539526 50.8922715,50.6213586 M71.5560402,15.2778979 C71.5129404,21.3371199 69.6699929,28.2264193 65.959962,34.8035821 C61.846517,42.095915 56.2211309,47.6149006 50.4647214,50.6316489 M112.419824,15.7375275 C111.949174,13.95046 111.237165,12.1959783 110.268282,10.5203881 C104.427397,0.423971528 91.5112483,-3.00267029 81.4189988,2.87132782 C76.4228698,5.78002879 73.0559133,10.4209161 71.6336199,15.5900344 M112.481888,15.3242038 C107.268536,18.385543 100.424287,20.3218186 92.8921659,20.4881771 C84.5411484,20.6716859 76.9366194,18.6479435 71.4077769,15.2264468 M112.121573,15.6329103 C113.892113,15.1235446 115.759196,14.8405637 117.691792,14.8182682 C129.327014,14.6879255 138.867586,24.0691721 138.998609,35.7725774 C139.064121,41.5659688 136.810863,46.8431345 133.109453,50.7105405 M112.44396,15.3653647 C112.48706,21.4263017 114.330007,28.3156011 118.040038,34.892764 C122.153483,42.1850968 127.778869,47.7040825 133.535279,50.7208307 M71.8784267,85.4588838 C70.1078869,85.9665345 68.2408035,86.2512304 66.3099324,86.2718109 C54.672986,86.4021536 45.132414,77.022622 45.0013906,65.3175017 C44.9358789,59.5258253 47.1891365,54.2469446 50.8922715,50.3795386 M71.5560402,85.7247144 C71.5129404,79.6654924 69.6699929,72.774478 65.959962,66.1973151 C61.846517,58.9049823 56.2211309,53.3859966 50.4647214,50.3709634 M112.419824,85.2633697 C111.949174,87.0504372 111.237165,88.8049189 110.268282,90.4805091 C104.427397,100.578641 91.5112483,104.001852 81.4189988,98.1278544 C76.4228698,95.2225835 73.0559133,90.5816962 71.6336199,85.4108628 M112.481888,85.6784084 C107.268536,82.6153542 100.424287,80.6790786 92.8921659,80.5144352 C84.5411484,80.3292113 76.9366194,82.3546688 71.4077769,85.7744504 M112.121573,85.3697019 C113.892113,85.8790676 115.759196,86.1620486 117.691792,86.182629 C129.327014,86.3146868 138.867586,76.9334401 138.998609,65.2283198 C139.064121,59.4349284 136.810863,54.1594778 133.109453,50.2920717 M112.44396,85.6338175 C112.48706,79.5763105 114.330007,72.6852961 118.040038,66.1081332 C122.153483,58.8158004 127.778869,53.2985298 133.535279,50.2800665" id="Stroke-18" stroke="#FCFC00" stroke-width="2.227"></path>
                <g id="Page-1" transform="translate(0.000000, 120.000000)">
                    <polygon id="Fill-1" fill="#FCFC00" points="17.3289436 1.71462857 10.9745073 17.9763429 4.53552545 1.71462857 0.000507272727 1.71462857 0.000507272727 22.7163429 3.07965273 22.7163429 2.99510727 5.00605714 9.85343455 22.7163429 12.0093436 22.7163429 18.8693618 5.00605714 18.7831255 22.7163429 21.8352164 22.7163429 21.8352164 1.71462857"></polygon>
                    <g id="Group-18" transform="translate(0.000000, 0.883886)">
                        <path d="M37.0613455,12.75 C36.921,10.7065714 34.9071273,8.40771429 32.0224364,8.46428571 C29.0548909,8.46428571 27.1238727,10.6482857 26.9835273,12.75 L37.0613455,12.75 Z M26.9277273,15.0488571 C27.0680727,18.1705714 29.7549273,19.7597143 32.0511818,19.7597143 C34.0938,19.7597143 35.6054727,18.7671429 36.4458545,17.1488571 L39.4692,17.1488571 C38.7421091,18.8528571 37.6768364,20.13 36.3900545,20.9802857 C35.1015818,21.8597143 33.5899091,22.2848571 32.0511818,22.2848571 C27.0680727,22.2848571 23.9889273,18.2271429 23.9889273,14.142 C23.9889273,9.714 27.4045636,5.93742857 32.0224364,5.93742857 C34.2070909,5.93742857 36.1939091,6.762 37.6497818,8.20885714 C39.4404545,10.0534286 40.1962909,12.4654286 39.9460364,15.0488571 L26.9277273,15.0488571 Z" id="Fill-2" fill="#FCFC00"></path>
                        <g id="Group-6" transform="translate(40.581818, 5.142857)">
                            <mask id="mask-2" fill="white">
                                <use xlink:href="#path-1"></use>
                            </mask>
                            <g id="Clip-5"></g>
                            <path d="M16.5218727,11.2683429 C15.5986364,14.6163429 12.6023455,17.1432 8.79610909,17.1432 C3.813,17.1432 0.649309091,13.2552 0.649309091,8.96948571 C0.649309091,4.3992 4.092,0.795771429 8.65576364,0.795771429 C12.2946,0.795771429 15.5715818,3.06548571 16.5218727,6.78377143 L13.5272727,6.78377143 C12.7426909,4.71291429 10.8387273,3.54891429 8.76736364,3.54891429 C7.22694545,3.51977143 6.10756364,4.03062857 5.04398182,5.05234286 C4.14949091,5.96091429 3.56105455,7.40777143 3.56105455,8.96948571 C3.56105455,12.1494857 5.85561818,14.3900571 8.76736364,14.3900571 C11.3155636,14.3626286 12.9100909,12.8009143 13.5272727,11.2683429 L16.5218727,11.2683429 Z" id="Fill-4" fill="#FCFC00" mask="url(#mask-2)"></path>
                        </g>
                        <path d="M59.0059636,0.8304 L61.9177091,0.8304 L61.9177091,6.13782857 L61.9177091,8.54982857 C62.8122,6.73268571 64.8852545,5.90982857 66.8720727,5.93725714 C69.2511818,5.93725714 70.7628545,6.73268571 71.7435818,8.09554286 C72.6955636,9.42925714 73.0591091,11.2738286 73.0591091,13.4029714 L73.0591091,21.8321143 L70.1186182,21.8321143 L70.1186182,13.5452571 C70.1186182,12.1532571 69.8666727,10.9344 69.2511818,10.0806857 C68.5798909,9.2304 67.5721091,8.72125714 66.0604364,8.72125714 C64.5200182,8.72125714 63.4564364,9.31611429 62.8409455,10.1389714 C62.1967091,10.9618286 61.9177091,12.0692571 61.9177091,13.1184 L61.9177091,21.8321143 L59.0059636,21.8321143 L59.0059636,0.8304 Z" id="Fill-7" fill="#FCFC00"></path>
                        <path d="M78.1524655,14.1696 C78.1812109,16.4684571 79.7757382,19.5336 83.4720655,19.5336 C85.7953745,19.5336 87.4473927,18.2273143 88.2015382,16.4684571 C88.5380291,15.7587429 88.7054291,14.9633143 88.7341745,14.1696 C88.7612291,13.3741714 88.6225745,12.5787429 88.2860836,11.8690286 C87.5573018,10.0810286 85.8511745,8.69245714 83.4145745,8.69245714 C80.2238291,8.69245714 78.1524655,11.2450286 78.1524655,14.1404571 L78.1524655,14.1696 Z M91.6171745,21.8324571 L88.7054291,21.8324571 L88.7054291,19.1341714 C87.6418473,21.2067429 85.4588836,22.2850286 83.0510291,22.2850286 C78.1524655,22.2850286 75.24072,18.4261714 75.24072,14.1130286 C75.24072,9.40217143 78.6276109,5.9376 83.0510291,5.9376 C86.0743745,5.9376 88.0070836,7.63988571 88.7054291,9.1176 L88.7054291,6.3936 L91.6171745,6.3936 L91.6171745,21.8324571 Z" id="Fill-9" fill="#FCFC00"></path>
                        <path d="M94.7511055,6.39342857 L97.49376,6.39342857 L97.49376,8.778 C98.2225418,7.18714286 99.93036,5.91 102.644269,5.93742857 C107.515778,5.99571429 108.804251,9.57171429 108.804251,12.7791429 L108.804251,21.8322857 L105.865451,21.8322857 L105.865451,13.4597143 C105.865451,10.6774286 104.800178,8.69228571 101.832633,8.71971429 C98.9783782,8.74885714 97.6628509,10.566 97.6628509,13.2317143 L97.6628509,21.8322857 L94.7511055,21.8322857 L94.7511055,6.39342857 Z" id="Fill-11" fill="#FCFC00"></path>
                        <mask id="mask-4" fill="white">
                            <use xlink:href="#path-3"></use>
                        </mask>
                        <g id="Clip-14"></g>
                        <path d="M111.853636,21.8314286 L114.765382,21.8314286 L114.765382,6.39257143 L111.853636,6.39257143 L111.853636,21.8314286 Z M111.853636,3.95142857 L114.765382,3.95142857 L114.765382,0.829714286 L111.853636,0.829714286 L111.853636,3.95142857 Z" id="Fill-13" fill="#FCFC00" mask="url(#mask-4)"></path>
                        <path d="M124.590578,10.4230286 C124.590578,9.2316 123.861796,8.32131429 122.377178,8.35045714 C120.951742,8.35045714 120.16716,9.3156 120.194215,10.3373143 C120.251705,11.5578857 121.342342,12.1253143 122.965615,12.5796 C125.288924,13.2327429 127.837124,13.9133143 127.921669,17.2356 C127.977469,20.2441714 125.513815,22.2858857 122.490469,22.2858857 C120.082615,22.2858857 117.088015,20.8956 116.945978,17.3761714 L119.83236,17.3761714 C119.942269,19.2481714 121.426887,19.8738857 122.517524,19.8738857 C123.919287,19.8738857 125.009924,18.8813143 125.009924,17.5750286 C124.981178,16.0424571 123.834742,15.5298857 121.117451,14.6230286 C118.990287,13.9698857 117.311215,12.9498857 117.28416,10.6218857 C117.28416,7.69731429 119.634524,5.93845714 122.405924,5.93845714 C124.506033,5.93845714 127.248687,6.98931429 127.473578,10.4230286 L124.590578,10.4230286 Z" id="Fill-15" fill="#FCFC00" mask="url(#mask-4)"></path>
                        <path d="M130.21488,6.39342857 L132.957535,6.39342857 L132.957535,8.57742857 C133.601771,7.27285714 135.365389,5.93742857 137.577098,5.93742857 C138.977171,5.93742857 140.433044,6.36428571 141.496625,7.58485714 C141.887225,7.98257143 142.308262,8.80542857 142.475662,9.08828571 C142.727607,8.63571429 143.035353,8.09571429 143.566298,7.55742857 C144.548716,6.56314286 145.947098,5.93742857 147.599116,5.93742857 C148.997498,5.93742857 150.566662,6.33685714 151.686044,7.50085714 C153.030316,8.88942857 153.365116,10.3654286 153.365116,13.3174286 L153.365116,21.8322857 L150.455062,21.8322857 L150.455062,13.4305714 C150.455062,12.1534286 150.285971,10.8762857 149.61468,9.99857143 C149.082044,9.20314286 148.272098,8.71971429 146.89908,8.71971429 C145.610607,8.71971429 144.519971,9.25971429 143.96028,10.1957143 C143.344789,11.1608571 143.260244,12.0111429 143.260244,13.3174286 L143.260244,21.8322857 L140.321444,21.8322857 L140.321444,13.3174286 C140.348498,12.0402857 140.208153,11.1042857 139.704262,10.2522857 C139.144571,9.34542857 138.248389,8.74885714 136.821262,8.71971429 C135.449935,8.69228571 134.442153,9.37285714 133.938262,10.2231429 C133.378571,11.0477143 133.126625,12.126 133.126625,13.374 L133.126625,21.8322857 L130.21488,21.8322857 L130.21488,6.39342857 Z" id="Fill-16" fill="#FCFC00" mask="url(#mask-4)"></path>
                        <polygon id="Fill-17" fill="#FCFC00" mask="url(#mask-4)" points="164.02968 21.8321143 164.02968 0.8304 168.564698 0.8304 175.001989 17.0921143 181.358116 0.8304 185.864389 0.8304 185.864389 21.8321143 182.812298 21.8321143 182.896844 4.12182857 176.040207 21.8321143 173.882607 21.8321143 167.02428 4.12182857 167.108825 21.8321143"></polygon>
                    </g>
                </g>
            </g>
        </g>
    </g>
</svg>