<?xml version="1.0" encoding="UTF-8"?>
<svg width="170px" height="130px" viewBox="0 0 170 130" version="1.1" xmlns="http://www.w3.org/2000/svg" xmlns:xlink="http://www.w3.org/1999/xlink">
    <!-- Generator: Sketch 48.2 (47327) - http://www.bohemiancoding.com/sketch -->
    <title>digital-design</title>
    <desc>Created with Sketch.</desc>
    <defs></defs>
    <g id="Page-1" stroke="none" stroke-width="1" fill="none" fill-rule="evenodd">
        <g id="digital-design" fill="#FCFC00" fill-rule="nonzero">
            <g transform="translate(40.000000, 16.000000)" id="Imported-Layers">
                <path d="M0,70.61816 C0,74.9291858 3.5179739,78.432774 7.844131,78.432774 C10.4665506,78.432774 12.7908803,77.1454804 14.2132313,75.1735924 L37.5220569,86.8206559 C37.2830711,87.5679516 37.1532993,88.362593 37.1532993,89.1879452 C37.1532993,93.4938526 40.6738429,97 45,97 C49.3235874,97 52.844131,93.4938526 52.844131,89.1879452 C52.844131,88.362593 52.7130743,87.5679516 52.4753733,86.8206559 L75.784199,75.1735924 C77.20655,77.1454804 79.5334494,78.432774 82.1532993,78.432774 C86.4794564,78.432774 90,74.9291858 90,70.6207192 C90,66.7268482 87.1296005,63.4932589 83.3854895,62.9059153 L83.3854895,34.096644 C87.1296005,33.5093003 90,30.2731518 90,26.38184 C90,22.0708142 86.4794564,18.5646668 82.1532993,18.5646668 C79.5334494,18.5646668 77.20655,19.8519603 75.784199,21.8264076 L52.4753733,10.1767849 C52.7143591,9.43204844 52.844131,8.637407 52.844131,7.81205477 C52.844131,3.50102897 49.3235874,0 45,0 C40.6738429,0 37.1532993,3.50102897 37.1532993,7.81205477 C37.1532993,8.637407 37.284356,9.43204844 37.5220569,10.1767849 L14.2132313,21.8264076 C12.7908803,19.8519603 10.4665506,18.5646668 7.844131,18.5646668 C3.5179739,18.5646668 0,22.0708142 0,26.38184 C0,30.2731518 2.86782971,33.5093003 6.61451046,34.096644 L6.61451046,62.903356 C2.86782971,63.4906997 0,66.7268482 0,70.61816 Z M15.3246438,72.9880085 C15.5610599,72.2381537 15.688262,71.4435122 15.688262,70.61816 C15.688262,66.7268482 12.8204323,63.4906997 9.07375153,62.903356 L9.07375153,34.096644 C11.1873626,33.7639439 13.020872,32.5918157 14.2132313,30.9347132 L37.5220569,42.5817767 C37.2830711,43.3290723 37.1532993,44.126273 37.1532993,44.949066 C37.1532993,48.842937 40.0288382,52.0765263 43.7703795,52.66387 L43.7703795,81.4731413 C41.6619079,81.8032821 39.8283985,82.9779695 38.62833,84.635072 L15.3246438,72.9880085 Z M40.8665734,41.5145771 C41.8559233,40.3347713 43.3412329,39.5823571 45,39.5823571 C46.6587671,39.5823571 48.1440767,40.3347713 49.1308569,41.5145771 C49.6576535,42.1364704 50.0418297,42.883766 50.2371299,43.6988813 L50.2371299,43.7014406 C50.3373497,44.1019603 50.3848899,44.5165559 50.3848899,44.949066 C50.3848899,47.4852646 48.6079148,49.6145454 46.2296205,50.1673395 C45.830026,50.2645903 45.4214373,50.311936 45,50.311936 C44.5785627,50.311936 44.1674043,50.2645903 43.7703795,50.1673395 C41.3908003,49.6145454 39.6125403,47.4852646 39.6125403,44.949066 C39.6125403,44.5165559 39.6626503,44.1019603 39.7603004,43.7014406 L39.7603004,43.6988813 C39.9581703,42.883766 40.3397767,42.1364704 40.8665734,41.5145771 Z M51.3691003,84.6337924 C50.1716015,82.9766899 48.3380921,81.8020025 46.2296205,81.4718616 L46.2296205,52.66387 C49.9711618,52.0765263 52.844131,48.842937 52.844131,44.949066 C52.844131,44.126273 52.7130743,43.3290723 52.4753733,42.5817767 L75.784199,30.9347132 C76.979128,32.5918157 78.8126374,33.7639439 80.9236787,34.096644 L80.9236787,62.9059153 C77.1795677,63.4932589 74.3091683,66.7268482 74.3091683,70.6207192 C74.3091683,71.4460714 74.440225,72.2407129 74.6753562,72.9880085 L51.3691003,84.6337924 Z M82.1532993,21.0138515 C85.1226337,21.0138515 87.5407589,23.4233682 87.5407589,26.38184 C87.5407589,28.9180386 85.7612141,31.0498786 83.3854895,31.6052319 C82.9910345,31.6973643 82.5747366,31.74471 82.1532993,31.74471 C81.7344317,31.74471 81.3181338,31.6973643 80.9236787,31.6052319 C79.7724353,31.335233 78.757388,30.695425 78.0224424,29.816329 C77.4956457,29.1918764 77.1114696,28.44714 76.9161694,27.6294655 C76.8185193,27.2289457 76.7684093,26.8117909 76.7684093,26.38184 C76.7684093,25.9518891 76.821089,25.5321751 76.9161694,25.1316553 C77.1114696,24.3139808 77.4956457,23.5666851 78.0224424,22.9447918 C79.0117923,21.764986 80.4971019,21.0138515 82.1532993,21.0138515 Z M39.6125403,7.81205477 C39.6125403,4.85102369 42.0319504,2.44918474 45,2.44918474 C47.9680496,2.44918474 50.3848899,4.85102369 50.3848899,7.81205477 C50.3848899,8.23944647 50.3373497,8.65916047 50.2371299,9.057121 C50.0418297,9.87735476 49.6576535,10.6220912 49.1308569,11.2439845 C48.1440767,12.4237903 46.6587671,13.1762044 45,13.1762044 C43.3412329,13.1762044 41.8559233,12.4237903 40.8665734,11.2439845 C40.3397767,10.6220912 39.9581703,9.87735476 39.7603004,9.057121 C39.6626503,8.65916047 39.6125403,8.23944647 39.6125403,7.81205477 Z M38.62833,12.3636484 C40.0532507,14.3380956 42.3775804,15.6253892 45,15.6253892 C47.6198498,15.6253892 49.9467493,14.3380956 51.3691003,12.3636484 L74.6753562,24.0132711 C74.4389401,24.763126 74.3091683,25.5577674 74.3091683,26.3831196 C74.3091683,27.2059126 74.440225,28.0031133 74.6753562,28.7504089 L51.3691003,40.3974724 L51.3665306,40.3974724 C49.9467493,38.4255844 47.6198498,37.1382909 45,37.1382909 C42.3775804,37.1382909 40.0532507,38.4255844 38.6334694,40.3974724 L38.62833,40.3974724 L15.3246438,28.7504089 C15.5610599,28.0031133 15.688262,27.2059126 15.688262,26.3831196 C15.688262,25.5577674 15.559775,24.763126 15.3246438,24.0132711 L38.62833,12.3636484 Z M2.45924107,26.38184 C2.45924107,23.4220885 4.87608143,21.0138515 7.844131,21.0138515 C9.5028981,21.0138515 10.9882077,21.7662656 11.9749879,22.9460714 C12.5043543,23.5679648 12.8859607,24.3152604 13.0812609,25.1329349 C13.1763413,25.5334547 13.2290209,25.9531687 13.2290209,26.3831196 C13.2290209,26.8130706 13.1814807,27.2302253 13.0812609,27.6307451 C12.8859607,28.4484196 12.5043543,29.193156 11.9749879,29.8176086 C11.242612,30.6979843 10.2262799,31.3377922 9.07375153,31.6065115 C8.67929646,31.6986439 8.26556834,31.7459897 7.844131,31.7459897 C7.42269366,31.7459897 7.00896554,31.6986439 6.61451046,31.6065115 C4.23493133,31.0498786 2.45924107,28.9180386 2.45924107,26.38184 Z"></path>
            </g>
        </g>
    </g>
</svg>