<?xml version="1.0" encoding="UTF-8"?>
<svg width="76px" height="76px" viewBox="0 0 76 76" version="1.1" xmlns="http://www.w3.org/2000/svg" xmlns:xlink="http://www.w3.org/1999/xlink">
    <!-- Generator: Sketch 47.1 (45422) - http://www.bohemiancoding.com/sketch -->
    <title>find-icon</title>
    <desc>Created with Sketch.</desc>
    <defs></defs>
    <g id="v2" stroke="none" stroke-width="1" fill="none" fill-rule="evenodd">
        <g id="2.-Approach-Copy" transform="translate(-695.000000, -228.000000)" fill="#FEFE00">
            <g id="find-icon" transform="translate(695.000000, 228.000000)">
                <path d="M23.6444444,12.4977778 C21.8711111,14.2711111 21.8711111,16.9733333 23.3911111,18.8311111 L18.9155556,23.3066667 C17.0577778,21.7866667 14.3555556,21.8711111 12.5822222,23.56 C10.8088889,25.3333333 10.8088889,28.0355556 12.3288889,29.8933333 L7.85333333,34.3688889 C5.91111111,32.8488889 3.12444444,32.9333333 1.43555556,34.7066667 C-0.422222222,36.5644444 -0.422222222,39.52 1.43555556,41.3777778 C3.20888889,43.1511111 5.91111111,43.1511111 7.76888889,41.6311111 L12.2444444,46.1066667 C10.7244444,47.9644444 10.8088889,50.6666667 12.4977778,52.44 C14.3555556,54.2977778 17.3111111,54.2977778 19.1688889,52.44 C21.0266667,50.5822222 21.0266667,47.6266667 19.1688889,45.7688889 C17.3955556,43.9955556 14.6933333,43.9955556 12.8355556,45.5155556 L8.36,41.04 C9.79555556,39.2666667 9.79555556,36.8177778 8.36,35.0444444 L12.8355556,30.5688889 C14.6933333,32.0888889 17.3955556,32.0044444 19.1688889,30.3155556 C20.9422222,28.5422222 20.9422222,25.84 19.4222222,23.9822222 L23.8977778,19.5066667 C25.7555556,21.0266667 28.4577778,20.9422222 30.2311111,19.2533333 C32.0888889,17.3955556 32.0888889,14.44 30.2311111,12.5822222 C28.4577778,10.64 25.4177778,10.64 23.6444444,12.4977778" id="Fill-1"></path>
                <path d="M38,9.45777778 C39.1822222,9.45777778 40.4488889,9.03555556 41.2933333,8.10666667 C43.1511111,6.24888889 43.1511111,3.29333333 41.2933333,1.43555556 C40.4488889,0.506666667 39.2666667,0 38,0 C36.8177778,0 35.5511111,0.422222222 34.7066667,1.35111111 C32.8488889,3.20888889 32.8488889,6.16444444 34.7066667,8.02222222 C35.6355556,8.95111111 36.8177778,9.45777778 38,9.45777778 L38,9.45777778 Z M35.2977778,2.02666667 C36.0577778,1.26666667 36.9866667,0.844444444 38,0.844444444 C39.0133333,0.844444444 40.0266667,1.26666667 40.7022222,1.94222222 C42.2222222,3.46222222 42.2222222,5.91111111 40.7022222,7.43111111 C39.9422222,8.19111111 39.0133333,8.52888889 38,8.52888889 C36.9866667,8.52888889 35.9733333,8.10666667 35.2977778,7.43111111 C34.6222222,6.75555556 34.2,5.74222222 34.2,4.72888889 C34.2,3.71555556 34.5377778,2.70222222 35.2977778,2.02666667 L35.2977778,2.02666667 Z" id="Fill-2"></path>
                <path d="M26.9377778,33.2711111 C25.7555556,33.2711111 24.4888889,33.6933333 23.6444444,34.6222222 C21.7866667,36.48 21.7866667,39.4355556 23.6444444,41.2933333 C24.5733333,42.2222222 25.7555556,42.6444444 26.9377778,42.6444444 C28.12,42.6444444 29.3866667,42.2222222 30.2311111,41.2933333 C32.0888889,39.4355556 32.0888889,36.48 30.2311111,34.6222222 C29.3022222,33.7777778 28.12,33.2711111 26.9377778,33.2711111 L26.9377778,33.2711111 Z M29.64,40.7022222 C28.88,41.4622222 27.9511111,41.8 26.9377778,41.8 C25.9244444,41.8 24.9111111,41.3777778 24.2355556,40.7022222 C23.56,40.0266667 23.1377778,39.0133333 23.1377778,38 C23.1377778,36.9866667 23.56,35.9733333 24.2355556,35.2977778 C24.9955556,34.5377778 25.9244444,34.2 26.9377778,34.2 C27.9511111,34.2 28.9644444,34.6222222 29.64,35.2977778 C31.16,36.8177778 31.16,39.2666667 29.64,40.7022222 L29.64,40.7022222 Z" id="Fill-3"></path>
                <path d="M38,31.5822222 C39.1822222,31.5822222 40.4488889,31.16 41.2933333,30.2311111 C43.1511111,28.3733333 43.1511111,25.4177778 41.2933333,23.56 C40.3644444,22.6311111 39.1822222,22.2088889 38,22.2088889 C36.8177778,22.2088889 35.5511111,22.6311111 34.7066667,23.56 C32.8488889,25.4177778 32.8488889,28.3733333 34.7066667,30.2311111 C35.6355556,31.16 36.8177778,31.5822222 38,31.5822222 L38,31.5822222 Z M35.2977778,24.1511111 C36.0577778,23.3911111 36.9866667,23.0533333 38,23.0533333 C39.0133333,23.0533333 40.0266667,23.4755556 40.7022222,24.1511111 C41.3777778,24.8266667 41.8,25.84 41.8,26.8533333 C41.8,27.8666667 41.3777778,28.88 40.7022222,29.5555556 C39.9422222,30.3155556 39.0133333,30.6533333 38,30.6533333 C36.9866667,30.6533333 35.9733333,30.2311111 35.2977778,29.5555556 C33.7777778,28.12 33.7777778,25.6711111 35.2977778,24.1511111 L35.2977778,24.1511111 Z" id="Fill-4"></path>
                <path d="M26.9377778,55.48 C25.7555556,55.48 24.4888889,55.9022222 23.6444444,56.8311111 C21.7866667,58.6888889 21.7866667,61.6444444 23.6444444,63.5022222 C24.5733333,64.4311111 25.7555556,64.8533333 26.9377778,64.8533333 C28.12,64.8533333 29.3866667,64.4311111 30.2311111,63.5022222 C32.0888889,61.6444444 32.0888889,58.6888889 30.2311111,56.8311111 C29.3022222,55.9022222 28.12,55.48 26.9377778,55.48 L26.9377778,55.48 Z M29.64,62.9111111 C28.88,63.6711111 27.9511111,64.0088889 26.9377778,64.0088889 C25.9244444,64.0088889 24.9111111,63.5866667 24.2355556,62.9111111 C22.7155556,61.3911111 22.7155556,58.9422222 24.2355556,57.4222222 C24.9955556,56.6622222 25.9244444,56.3244444 26.9377778,56.3244444 C27.9511111,56.3244444 28.9644444,56.7466667 29.64,57.4222222 C30.3155556,58.0977778 30.7377778,59.1111111 30.7377778,60.1244444 C30.7377778,61.1377778 30.4,62.1511111 29.64,62.9111111 L29.64,62.9111111 Z" id="Fill-5"></path>
                <path d="M49.0622222,33.2711111 C47.88,33.2711111 46.6133333,33.6933333 45.7688889,34.6222222 C43.9111111,36.48 43.9111111,39.4355556 45.7688889,41.2933333 C46.6977778,42.2222222 47.88,42.6444444 49.0622222,42.6444444 C50.2444444,42.6444444 51.5111111,42.2222222 52.3555556,41.2933333 C54.2133333,39.4355556 54.2133333,36.48 52.3555556,34.6222222 C51.5111111,33.7777778 50.3288889,33.2711111 49.0622222,33.2711111 L49.0622222,33.2711111 Z M51.8488889,40.7022222 C51.0888889,41.4622222 50.16,41.8 49.1466667,41.8 C48.1333333,41.8 47.12,41.3777778 46.4444444,40.7022222 C45.7688889,40.0266667 45.3466667,39.0133333 45.3466667,38 C45.3466667,36.9866667 45.7688889,35.9733333 46.4444444,35.2977778 C47.12,34.6222222 48.1333333,34.2 49.1466667,34.2 C50.16,34.2 51.1733333,34.6222222 51.8488889,35.2977778 C52.5244444,35.9733333 52.9466667,36.9866667 52.9466667,38 C52.9466667,39.0133333 52.5244444,40.0266667 51.8488889,40.7022222 L51.8488889,40.7022222 Z" id="Fill-6"></path>
                <path d="M57.1688889,23.3066667 L52.6933333,18.8311111 C54.2133333,16.9733333 54.1288889,14.2711111 52.44,12.4977778 C50.5822222,10.64 47.6266667,10.64 45.7688889,12.4977778 C43.9111111,14.3555556 43.9111111,17.3111111 45.7688889,19.1688889 C47.5422222,20.9422222 50.2444444,20.9422222 52.1022222,19.4222222 L56.5777778,23.8977778 C55.0577778,25.7555556 55.1422222,28.4577778 56.8311111,30.2311111 C58.6888889,32.0888889 61.6444444,32.0888889 63.5022222,30.2311111 C65.36,28.3733333 65.36,25.4177778 63.5022222,23.56 C61.8133333,21.8711111 59.0266667,21.7866667 57.1688889,23.3066667" id="Fill-7"></path>
                <path d="M46.1066667,56.5777778 L41.6311111,52.1022222 C43.1511111,50.2444444 43.0666667,47.5422222 41.3777778,45.7688889 C39.52,43.9111111 36.5644444,43.9111111 34.7066667,45.7688889 C32.8488889,47.6266667 32.8488889,50.5822222 34.7066667,52.44 C36.48,54.2133333 39.1822222,54.2133333 41.04,52.6933333 L45.5155556,57.1688889 C44.08,58.9422222 44.08,61.3911111 45.5155556,63.1644444 L41.04,67.64 C39.1822222,66.12 36.48,66.2044444 34.7066667,67.8933333 C32.8488889,69.7511111 32.8488889,72.7066667 34.7066667,74.5644444 C36.5644444,76.4222222 39.52,76.4222222 41.3777778,74.5644444 C43.1511111,72.7911111 43.1511111,70.0888889 41.6311111,68.2311111 L46.1066667,63.7555556 C47.9644444,65.2755556 50.6666667,65.1911111 52.44,63.5022222 C54.2977778,61.6444444 54.2977778,58.6888889 52.44,56.8311111 C50.6666667,55.1422222 47.9644444,55.0577778 46.1066667,56.5777778" id="Fill-8"></path>
                <path d="M60.2088889,44.3333333 C59.0266667,44.3333333 57.76,44.7555556 56.9155556,45.6844444 C55.0577778,47.5422222 55.0577778,50.4977778 56.9155556,52.3555556 C57.8444444,53.2844444 59.0266667,53.7066667 60.2088889,53.7066667 C61.3911111,53.7066667 62.6577778,53.2844444 63.5022222,52.3555556 C65.36,50.4977778 65.36,47.5422222 63.5022222,45.6844444 C62.5733333,44.84 61.3911111,44.3333333 60.2088889,44.3333333 L60.2088889,44.3333333 Z M62.9111111,51.8488889 C62.1511111,52.6088889 61.2222222,52.9466667 60.2088889,52.9466667 C59.1955556,52.9466667 58.1822222,52.5244444 57.5066667,51.8488889 C56.7466667,51.0888889 56.4088889,50.16 56.4088889,49.1466667 C56.4088889,48.1333333 56.8311111,47.12 57.5066667,46.4444444 C58.1822222,45.7688889 59.1955556,45.3466667 60.2088889,45.3466667 C61.2222222,45.3466667 62.2355556,45.7688889 62.9111111,46.4444444 C64.4311111,47.88 64.4311111,50.3288889 62.9111111,51.8488889 L62.9111111,51.8488889 Z" id="Fill-9"></path>
                <path d="M74.6488889,34.6222222 C73.72,33.6933333 72.5377778,33.2711111 71.3555556,33.2711111 C70.1733333,33.2711111 68.9066667,33.6933333 68.0622222,34.6222222 C66.2044444,36.48 66.2044444,39.4355556 68.0622222,41.2933333 C68.9911111,42.2222222 70.1733333,42.6444444 71.3555556,42.6444444 C72.5377778,42.6444444 73.8044444,42.2222222 74.6488889,41.2933333 C76.4222222,39.4355556 76.4222222,36.48 74.6488889,34.6222222 L74.6488889,34.6222222 Z M73.9733333,40.7022222 C73.2133333,41.4622222 72.2844444,41.8 71.2711111,41.8 C70.2577778,41.8 69.2444444,41.3777778 68.5688889,40.7022222 C67.0488889,39.1822222 67.0488889,36.7333333 68.5688889,35.2133333 C69.3288889,34.4533333 70.2577778,34.1155556 71.2711111,34.1155556 C72.2844444,34.1155556 73.2977778,34.5377778 73.9733333,35.2133333 C74.6488889,35.8888889 75.0711111,36.9022222 75.0711111,37.9155556 C75.0711111,38.9288889 74.7333333,40.0266667 73.9733333,40.7022222 L73.9733333,40.7022222 Z" id="Fill-10"></path>
            </g>
        </g>
    </g>
</svg>