<?xml version="1.0" encoding="UTF-8"?>
<svg width="170px" height="130px" viewBox="0 0 170 130" version="1.1" xmlns="http://www.w3.org/2000/svg" xmlns:xlink="http://www.w3.org/1999/xlink">
    <!-- Generator: Sketch 48.2 (47327) - http://www.bohemiancoding.com/sketch -->
    <title>front-end-engg</title>
    <desc>Created with Sketch.</desc>
    <defs></defs>
    <g id="Page-1" stroke="none" stroke-width="1" fill="none" fill-rule="evenodd">
        <g id="front-end-engg" fill="#FCFC00" fill-rule="nonzero">
            <g transform="translate(42.000000, 30.000000)" id="Imported-Layers">
                <path d="M80.9632653,0 L6.03673469,0 C2.75204082,0 0,2.69279393 0,6.10366625 L0,64.8963338 C0,68.2174463 2.66326531,71 6.03673469,71 L80.9632653,71 C84.2479592,71 87,68.3072061 87,64.8963338 L87,6.01390645 C87,2.69279393 84.2479592,0 80.9632653,0 Z M6.03673469,3.14159292 L80.9632653,3.14159292 C82.5612245,3.14159292 83.8928571,4.48798989 83.8928571,6.10366625 L83.8928571,16.9646018 L3.10714286,16.9646018 L3.10714286,6.01390645 C3.10714286,4.39823009 4.43877551,3.14159292 6.03673469,3.14159292 Z M80.9632653,67.7686473 L6.03673469,67.7686473 C4.43877551,67.7686473 3.10714286,66.4222503 3.10714286,64.806574 L3.10714286,20.1061947 L83.8928571,20.1061947 L83.8928571,64.8963338 C83.8928571,66.5120101 82.5612245,67.7686473 80.9632653,67.7686473 Z M8.87755102,11.1302149 C8.61122449,10.8609355 8.43367347,10.4121365 8.43367347,10.0530973 C8.43367347,9.69405815 8.61122449,9.24525917 8.87755102,8.97597977 C9.49897959,8.43742099 10.4755102,8.43742099 11.0969388,8.97597977 C11.3632653,9.24525917 11.5408163,9.69405815 11.5408163,10.0530973 C11.5408163,10.4121365 11.3632653,10.8609355 11.0969388,11.1302149 C10.8306122,11.3994943 10.3867347,11.5790139 10.0316327,11.5790139 C9.67653061,11.5790139 9.14387755,11.3994943 8.87755102,11.1302149 Z M17.222449,11.1302149 C16.9561224,10.8609355 16.7785714,10.4121365 16.7785714,10.0530973 C16.7785714,9.69405815 16.9561224,9.24525917 17.222449,8.97597977 C17.755102,8.43742099 18.8204082,8.43742099 19.4418367,8.97597977 C19.7081633,9.24525917 19.8857143,9.69405815 19.8857143,10.0530973 C19.8857143,10.4121365 19.7081633,10.8609355 19.4418367,11.1302149 C19.1755102,11.3994943 18.7316327,11.5790139 18.3765306,11.5790139 C18.0214286,11.5790139 17.4887755,11.3994943 17.222449,11.1302149 Z M25.6561224,11.1302149 C25.3897959,10.8609355 25.2122449,10.4121365 25.2122449,10.0530973 C25.2122449,9.69405815 25.3897959,9.24525917 25.6561224,8.97597977 C26.1887755,8.43742099 27.2540816,8.43742099 27.8755102,8.97597977 C28.1418367,9.24525917 28.3193878,9.69405815 28.3193878,10.0530973 C28.3193878,10.4121365 28.1418367,10.8609355 27.8755102,11.1302149 C27.6091837,11.3994943 27.1653061,11.5790139 26.8102041,11.5790139 C26.455102,11.5790139 25.922449,11.3994943 25.6561224,11.1302149 Z M71.0204082,42.9051833 C71.3755102,43.1744627 71.5530612,43.6232617 71.5530612,44.0720607 C71.5530612,44.5208597 71.3755102,44.9696587 71.0204082,45.2389381 L57.8816327,56.6384324 C57.5265306,56.9077118 57.1714286,56.9974716 56.8163265,56.9974716 C56.372449,56.9974716 55.9285714,56.817952 55.6622449,56.4589128 C55.1295918,55.8305942 55.2183673,54.8432364 55.8397959,54.2149178 L67.6469388,44.0720607 L55.8397959,34.0189633 C55.2183673,33.4804046 55.1295918,32.4930468 55.6622449,31.7749684 C56.194898,31.1466498 57.1714286,31.05689 57.8816327,31.5954488 L71.0204082,42.9051833 Z M31.1602041,54.2149178 C31.7816327,54.7534766 31.8704082,55.7408344 31.3377551,56.4589128 C31.0714286,56.817952 30.627551,56.9974716 30.1836735,56.9974716 C29.8285714,56.9974716 29.4734694,56.9077118 29.2071429,56.6384324 L15.9795918,45.3286979 C15.6244898,45.0594185 15.4469388,44.6106195 15.4469388,44.1618205 C15.4469388,43.7130215 15.6244898,43.2642225 15.9795918,42.9949431 L29.1183673,31.6852086 C29.7397959,31.1466498 30.7163265,31.2364096 31.3377551,31.8647282 C31.9591837,32.4930468 31.7816327,33.4804046 31.1602041,34.1087231 L19.3530612,44.1618205 L31.1602041,54.2149178 Z M50.5132653,30.608091 L39.327551,58.8824273 C39.0612245,59.5107459 38.5285714,59.8697851 37.9071429,59.8697851 C37.7295918,59.8697851 37.5520408,59.8697851 37.3744898,59.7800253 C36.5755102,59.4209861 36.2204082,58.5233881 36.4867347,57.7155499 L47.672449,29.4412137 C48.027551,28.6333755 48.9153061,28.2743363 49.7142857,28.5436157 C50.4244898,28.9026549 50.7795918,29.8002528 50.5132653,30.608091 Z"></path>
            </g>
        </g>
    </g>
</svg>