<?xml version="1.0" encoding="UTF-8"?>
<svg width="180px" height="80px" viewBox="0 0 180 80" version="1.1" xmlns="http://www.w3.org/2000/svg" xmlns:xlink="http://www.w3.org/1999/xlink">
    <title>fundbox-yellow</title>
    <defs>
        <path d="M16.0509855,0.392663394 C16.499865,0.130715577 16.99967,0 17.5,0 C17.999805,0 18.500135,0.130715577 18.9484895,0.392663394 L33.5515105,8.92585895 C34.4476945,9.45027125 35,10.4190132 35,11.4652545 L35,28.5321622 C35,29.5804702 34.4482195,30.5492121 33.5515105,31.0731077 L18.9484895,39.6068199 C18.500135,39.8687678 17.999805,40 17.5,40 C16.99862,40 16.498815,39.8682511 16.0504605,39.6068199 L1.44848948,31.0731077 C0.552305523,30.5492121 0,29.5804702 0,28.5321622 L0,11.4652545 C0,10.4190132 0.552305523,9.45027125 1.44901449,8.92637561 L16.0509855,0.392663394 Z M8.31240812,25.4244381 L17.5,30.8499096 L26.6875919,25.4244381 L26.6875919,14.5745285 L17.5,9.15009042 L8.31240812,14.5740119 L8.31240812,25.4244381 Z" id="path-1"></path>
    </defs>
    <g id="fundbox-yellow" stroke="none" stroke-width="1" fill="none" fill-rule="evenodd">
        <g id="fundbox-logo-no-border" transform="translate(13.000000, 20.000000)">
            <polygon id="Fill-1" fill="#F0C100" points="44 12 55 12 55 15.2542545 47.6125024 15.2542545 47.6125024 18.5080019 54.4447271 18.5080019 54.4447271 21.7632705 47.6125024 21.7632705 47.6125024 28 44 28"></polygon>
            <g id="Group-17" transform="translate(56.000000, 12.000000)" fill="#F0C100">
                <path d="M13.5829242,13.0275663 C13.3056008,13.8292164 12.894695,14.5259491 12.3486829,15.1162365 C11.8026708,15.7065239 11.1210445,16.1684658 10.304312,16.5005343 C9.4875795,16.8336214 8.5484387,16.9996557 7.48485793,16.9996557 C6.40705546,16.9996557 5.45826421,16.8336214 4.6415317,16.5005343 C3.82683087,16.1684658 3.14520461,15.7065239 2.59766876,15.1162365 C2.05165667,14.5254398 1.64075082,13.8292164 1.36291955,13.0275663 C1.0855962,12.225407 0.948966196,11.3478701 0.948966196,10.3944465 L0.948966196,0.519992256 L4.35912917,0.519992256 L4.35912917,10.2584614 C4.35912917,10.758092 4.4353169,11.220034 4.58870821,11.6427592 C4.74159159,12.0665031 4.95491725,12.4337138 5.23274852,12.7433727 C5.50956395,13.0540503 5.84072663,13.2959714 6.22674449,13.4706639 C6.61276234,13.6443378 7.03281071,13.73092 7.48485793,13.73092 C7.93588932,13.73092 8.35136643,13.6443378 8.72925759,13.4706639 C9.10918042,13.2959714 9.43780351,13.0540503 9.71360311,12.7433727 C9.99143438,12.4337138 10.2067917,12.0665031 10.3591672,11.6427592 C10.5120506,11.220034 10.5887462,10.758092 10.5887462,10.2584614 L10.5887462,0.519992256 L13.9994171,0.519992256 L13.9994171,10.3944465 C13.9994171,11.3483794 13.8612633,12.225407 13.5829242,13.0275663" id="Fill-2"></path>
                <polygon id="Fill-4" points="17.1474943 0.520145048 21.7817402 0.520145048 28.3613129 11.6887497 28.4049938 11.6887497 28.4049938 0.520145048 31.8156647 0.520145048 31.8156647 16.5918532 27.3556348 16.5918532 20.5998145 5.15127833 20.5571493 5.15127833 20.5571493 16.5918532 17.1469864 16.5918532 17.1469864 0.520145048"></polygon>
                <path d="M35.1451195,0.520145048 L40.259856,0.520145048 C41.4976527,0.520145048 42.6755151,0.664279077 43.7903956,0.951019211 C44.9047682,1.23928727 45.8774316,1.70377573 46.7088938,2.34754043 C47.5393401,2.99079583 48.1996337,3.82606016 48.6877432,4.85537066 C49.1763605,5.88519047 49.4196533,7.1335032 49.4196533,8.60081817 C49.4196533,9.9031175 49.1834714,11.0490594 48.7080599,12.0401719 C48.235188,13.0317936 47.5987665,13.8640021 46.7962557,14.5373066 C45.9952686,15.2106112 45.0683179,15.7214466 44.0204826,16.0693036 C42.9711235,16.4181793 41.8694489,16.5918532 40.7185062,16.5918532 L35.1451195,16.5918532 L35.1451195,0.520145048 Z M38.5552825,13.3231175 L40.3258854,13.3231175 C41.111127,13.3231175 41.844053,13.2395911 42.5221238,13.0730475 C43.1996867,12.9070133 43.787856,12.6294407 44.2820605,12.2449135 C44.7782966,11.8588584 45.1673619,11.3515881 45.4523041,10.7231026 C45.7357224,10.0951264 45.8774316,9.32810931 45.8774316,8.420014 C45.8774316,7.63313388 45.7357224,6.94760596 45.4523041,6.36546746 C45.1673619,5.78281966 44.7848995,5.30203336 44.303393,4.92361787 C43.8223945,4.54520238 43.2591132,4.26100879 42.6094857,4.0720557 C41.9603663,3.88361191 41.2782321,3.78837141 40.5656228,3.78837141 L38.5552825,3.78837141 L38.5552825,13.3231175 Z" id="Fill-6"></path>
                <path d="M51.6435225,0.520145048 L57.4139815,0.520145048 C58.0834177,0.520145048 58.7579331,0.570057185 59.435496,0.667334922 C60.1135668,0.766140581 60.7215449,0.962223976 61.2604462,1.25813165 C61.7993474,1.55200208 62.236665,1.96555979 62.5734148,2.49473031 C62.9081329,3.02441013 63.075238,3.72878243 63.075238,4.60580998 C63.075238,5.51390529 62.8314373,6.26717111 62.3433278,6.86458883 C61.8547105,7.46302517 61.2106702,7.88982487 60.4086673,8.14753448 L60.4086673,8.19235354 C60.9191251,8.26874966 61.3808228,8.41593954 61.7973158,8.63494177 C62.2127929,8.85496262 62.5698594,9.13508176 62.8685153,9.47428057 C63.1656475,9.8155166 63.3952265,10.2127765 63.5567445,10.6670788 C63.7172466,11.1203625 63.7974977,11.6057325 63.7974977,12.1201331 C63.7974977,12.9666022 63.6232818,13.6740304 63.2728182,14.2419083 C62.9218467,14.8092768 62.4697995,15.2676536 61.9171845,15.6150013 C61.3635536,15.9628584 60.7388142,16.2134377 60.0470295,16.3636834 C59.354737,16.515457 58.6665078,16.5913439 57.981834,16.5913439 L51.6430146,16.5913439 L51.6430146,0.520145048 L51.6435225,0.520145048 Z M55.0536855,6.9435315 L57.522676,6.9435315 C57.7862855,6.9435315 58.044308,6.91450097 58.2982671,6.85389337 C58.5547658,6.79328578 58.7843448,6.69498943 58.988528,6.5579857 C59.1911873,6.4225099 59.354737,6.24017781 59.4801928,6.01455458 C59.6026011,5.78689412 59.6645671,5.51441459 59.6645671,5.1966067 C59.6645671,4.86351958 59.5954902,4.58747491 59.4578444,4.36796337 C59.3196906,4.14896113 59.1424272,3.9778338 58.9230065,3.85712792 C58.7040938,3.73540343 58.4552138,3.64983976 58.1789063,3.59585316 C57.9020909,3.54339449 57.63391,3.51640119 57.3697926,3.51640119 L55.0541934,3.51640119 L55.0541934,6.9435315 L55.0536855,6.9435315 Z M55.0536855,13.595597 L58.1128769,13.595597 C58.3744548,13.595597 58.6416198,13.5645293 58.9108165,13.504431 C59.181029,13.4438234 59.4243218,13.338906 59.6432346,13.1866231 C59.8621473,13.0353587 60.0399187,12.838766 60.1790883,12.5963357 C60.31775,12.3539053 60.3868268,12.0585069 60.3868268,11.7106499 C60.3868268,11.333253 60.2959095,11.0261406 60.1130589,10.7918591 C59.9307163,10.5570684 59.7016451,10.3803386 59.4238139,10.2575955 C59.1480143,10.1368897 58.8493584,10.0533632 58.5273382,10.0085442 C58.2073497,9.96321579 57.9086938,9.93978764 57.6334021,9.93978764 L55.0536855,9.93978764 L55.0536855,13.595597 Z" id="Fill-8"></path>
                <path d="M65.1415509,8.65368429 C65.1415509,7.3676828 65.3492895,6.20187789 65.7642587,5.15728816 C66.178212,4.11320774 66.7587626,3.22497543 67.5023549,2.49004468 C68.2454392,1.75562323 69.1261694,1.19232911 70.147593,0.799143708 C71.1669849,0.405448995 72.2823733,0.208856292 73.4922345,0.208856292 C74.7015878,0.208856292 75.8159604,0.405958302 76.836876,0.799143708 C77.85576,1.19232911 78.7385219,1.75562323 79.4821141,2.49004468 C80.2257064,3.22497543 80.8037174,4.11320774 81.2202103,5.15728816 C81.6346716,6.20187789 81.843426,7.3676828 81.843426,8.65368429 C81.843426,9.93968578 81.6346716,11.1044721 81.2202103,12.1495711 C80.8037174,13.1931422 80.2257064,14.0829025 79.4821141,14.8163053 C78.7385219,15.5502174 77.85576,16.1150395 76.836876,16.5072063 C75.8159604,16.900901 74.7015878,17.098003 73.4922345,17.098003 C72.2823733,17.098003 71.1669849,16.900901 70.147593,16.5072063 C69.1261694,16.1150395 68.2454392,15.5507267 67.5023549,14.8163053 C66.7592705,14.0829025 66.178212,13.1931422 65.7642587,12.1495711 C65.3492895,11.1044721 65.1415509,9.93968578 65.1415509,8.65368429 M68.6822489,8.65368429 C68.6822489,9.41051526 68.7955147,10.1021549 69.0215383,10.7306404 C69.2475619,11.3591258 69.5716137,11.9040849 69.9952175,12.3639896 C70.4162817,12.8264408 70.9241999,13.1855026 71.5144009,13.4432122 C72.1051098,13.6999032 72.7633718,13.8282487 73.4927424,13.8282487 C74.2200813,13.8282487 74.880375,13.6999032 75.470576,13.4432122 C76.0617928,13.1855026 76.5666635,12.8264408 76.9902673,12.3639896 C77.4118394,11.9035756 77.737415,11.3586165 77.9629307,10.7306404 C78.1894623,10.1021549 78.3006963,9.41051526 78.3006963,8.65368429 C78.3006963,7.91264185 78.1894623,7.22354877 77.9629307,6.58793299 C77.737415,5.95282651 77.4118394,5.40328369 76.9902673,4.94185108 C76.5666635,4.48041847 76.0617928,4.12084736 75.470576,3.86415637 C74.880375,3.60644676 74.2200813,3.47810127 73.4927424,3.47810127 C72.7633718,3.47810127 72.1051098,3.60644676 71.5144009,3.86415637 C70.923692,4.12084736 70.4162817,4.48041847 69.9952175,4.94185108 C69.5716137,5.40328369 69.2475619,5.95282651 69.0215383,6.58793299 C68.7955147,7.22354877 68.6822489,7.91264185 68.6822489,8.65368429" id="Fill-10"></path>
                <polygon id="Fill-12" points="86.7603284 8.19260819 81.6460997 0.520399702 85.9298821 0.520399702 89.2318585 6.14977573 92.4012682 0.520399702 96.5321671 0.520399702 91.5261251 8.12436098 97.1233839 16.5915985 92.8380779 16.5915985 89.0566267 10.1223744 85.3833621 16.5915985 81.3398251 16.5915985"></polygon>
            </g>
            <mask id="mask-2" fill="white">
                <use xlink:href="#path-1"></use>
            </mask>
            <use id="Clip-19" fill="#F0C100" xlink:href="#path-1"></use>
        </g>
    </g>
</svg>