<?xml version="1.0" encoding="UTF-8"?>
<svg width="180px" height="80px" viewBox="0 0 180 80" version="1.1" xmlns="http://www.w3.org/2000/svg" xmlns:xlink="http://www.w3.org/1999/xlink">
    <title>fundbox-purple</title>
    <g id="fundbox-purple" stroke="none" stroke-width="1" fill="none" fill-rule="evenodd">
        <g id="fundbox-logo-blue-no-border" transform="translate(17.000000, 20.000000)" fill="#1B003C" fill-rule="nonzero">
            <polygon id="Fill-1" points="42 12.25 52.5 12.25 52.5 15.3517113 45.4482977 15.3517113 45.4482977 18.4529393 51.9699668 18.4529393 51.9699668 21.5556172 45.4482977 21.5556172 45.4482977 27.5 42 27.5"></polygon>
            <g id="Group-17" transform="translate(54.750000, 11.750000)">
                <path d="M12.2061576,12.5244692 C11.9405657,13.2951613 11.5470423,13.9649877 11.0241279,14.5324794 C10.5012135,15.0999711 9.84842179,15.5440738 9.06623917,15.8633185 C8.28405656,16.1835425 7.38464383,16.3431649 6.36605527,16.3431649 C5.33384661,16.3431649 4.42519168,16.1835425 3.64300905,15.8633185 C2.86277216,15.5440738 2.20998045,15.0999711 1.68560677,14.5324794 C1.1626924,13.964498 0.769168925,13.2951613 0.503090633,12.5244692 C0.237498774,11.7532876 0.106648571,10.9096393 0.106648571,9.99303495 L0.106648571,0.499911254 L3.37255288,0.499911254 L3.37255288,9.86230131 C3.37255288,10.3426372 3.44551767,10.78674 3.59242013,11.1931405 C3.73883615,11.6005203 3.94313759,11.9535501 4.20921588,12.2512506 C4.4743213,12.5499305 4.79147495,12.7825091 5.16116326,12.9504553 C5.53085156,13.1174223 5.93313081,13.2006609 6.36605527,13.2006609 C6.79800687,13.2006609 7.19590823,13.1174223 7.55781362,12.9504553 C7.92166474,12.7825091 8.23638622,12.5499305 8.50051879,12.2512506 C8.76659708,11.9535501 8.97284423,11.6005203 9.11877386,11.1931405 C9.2651899,10.78674 9.33864108,10.3426372 9.33864108,9.86230131 L9.33864108,0.499911254 L12.6050318,0.499911254 L12.6050318,9.99303495 C12.6050318,10.910129 12.4727223,11.7532876 12.2061576,12.5244692" id="Fill-2"></path>
                <polygon id="Fill-4" points="15.3699373 0.500058146 19.8081426 0.500058146 26.1093825 11.2373549 26.1512156 11.2373549 26.1512156 0.500058146 29.4176063 0.500058146 29.4176063 15.9511109 25.1462471 15.9511109 18.6762154 4.95234685 18.6353551 4.95234685 18.6353551 15.9511109 15.3694508 15.9511109 15.3694508 0.500058146"></polygon>
                <path d="M32.6062166,0.500058146 L37.5045866,0.500058146 C38.6900213,0.500058146 39.8180571,0.638626023 40.8857753,0.914292859 C41.953007,1.19142862 42.8845243,1.63797951 43.6808135,2.25688338 C44.4761298,2.87529762 45.1084913,3.6783058 45.5759525,4.66786651 C46.0439,5.65791685 46.2769009,6.85802239 46.2769009,8.26867275 C46.2769009,9.52068004 46.0507101,10.6223681 45.5954097,11.5752059 C45.1425415,12.5285333 44.5330423,13.3286036 43.7644798,13.9759065 C42.9973765,14.6232095 42.1096382,15.1143176 41.106129,15.4487411 C40.1011605,15.7841439 39.0460896,15.9511109 37.9438347,15.9511109 L32.6062166,15.9511109 L32.6062166,0.500058146 Z M35.8721209,12.8086069 L37.5678228,12.8086069 C38.3198466,12.8086069 39.021768,12.7283061 39.6711546,12.568194 C40.3200549,12.4085717 40.8833431,12.1417184 41.3566415,11.7720408 C41.8318855,11.4008944 42.2044924,10.9132138 42.4773808,10.308999 C42.7488097,9.70527396 42.8845243,8.96787745 42.8845243,8.09485086 C42.8845243,7.33835838 42.7488097,6.6793041 42.4773808,6.11964656 C42.2044924,5.55949939 41.8382091,5.09728004 41.3770716,4.73347816 C40.9164205,4.36967627 40.3769675,4.09645764 39.7548209,3.91480152 C39.1331609,3.73363503 38.4798828,3.64207251 37.7974187,3.64207251 L35.8721209,3.64207251 L35.8721209,12.8086069 Z" id="Fill-6"></path>
                <path d="M48.4066947,0.500058146 L53.9330484,0.500058146 C54.5741658,0.500058146 55.2201474,0.548042782 55.8690477,0.641563858 C56.5184343,0.736553851 57.1006934,0.92506492 57.6167978,1.20954527 C58.1329021,1.49206704 58.55172,1.88965403 58.8742244,2.3983891 C59.1947831,2.9076138 59.3548192,3.58478473 59.3548192,4.42794333 C59.3548192,5.30096992 59.1213319,6.02514621 58.6538707,6.59949292 C58.1859232,7.17481891 57.5691274,7.58513651 56.8010513,7.83289392 L56.8010513,7.87598216 C57.2899154,7.94942803 57.7320821,8.09093374 58.1309564,8.30147857 C58.5288578,8.51300268 58.8708194,8.78230421 59.1568414,9.10840388 C59.4414042,9.4364621 59.6612714,9.81838066 59.8159568,10.2551388 C59.9696692,10.6909176 60.0465255,11.1575436 60.0465255,11.6520792 C60.0465255,12.4658594 59.8796794,13.1459683 59.5440413,13.6919159 C59.2079168,14.2373738 58.7749923,14.6780491 58.2457544,15.011983 C57.7155435,15.3464066 57.1172322,15.587309 56.4547117,15.7317525 C55.791705,15.877665 55.1325896,15.9506213 54.4768793,15.9506213 L48.4062083,15.9506213 L48.4062083,0.500058146 L48.4066947,0.500058146 Z M51.672599,6.67538699 L54.0371449,6.67538699 C54.289603,6.67538699 54.5367105,6.64747756 54.7799265,6.5892105 C55.0255746,6.53094344 55.2454418,6.43644309 55.4409876,6.30473015 C55.6350739,6.17448614 55.791705,5.99919533 55.9118537,5.7822852 C56.0290838,5.5634165 56.0884285,5.30145956 56.0884285,4.99592473 C56.0884285,4.67570073 56.0222737,4.41031633 55.8904507,4.19928186 C55.7581411,3.98873702 55.5883764,3.82421827 55.3782378,3.70817379 C55.1685857,3.59115005 54.9302339,3.50889066 54.6656149,3.45698891 C54.4005095,3.40655608 54.1436734,3.38060521 53.8907288,3.38060521 L51.6730854,3.38060521 L51.6730854,6.67538699 L51.672599,6.67538699 Z M51.672599,13.0705638 L54.6023788,13.0705638 C54.8528912,13.0705638 55.1087545,13.0406959 55.3665635,12.9829184 C55.6253453,12.9246514 55.8583462,12.8237856 56.0679984,12.6773836 C56.2776505,12.5319607 56.4479017,12.34296 56.5811841,12.1098918 C56.7139801,11.8768236 56.7801347,11.5928329 56.7801347,11.2584094 C56.7801347,10.8955867 56.6930635,10.6003344 56.5179479,10.3751003 C56.3433189,10.1493767 56.123938,9.97947187 55.8578597,9.86146884 C55.5937272,9.74542445 55.3077052,9.66512356 54.9993073,9.62203538 C54.6928551,9.57845746 54.4068331,9.55593405 54.143187,9.55593405 L51.672599,9.55593405 L51.672599,13.0705638 Z" id="Fill-8"></path>
                <path d="M61.3337218,8.3194973 C61.3337218,7.08315846 61.5326725,5.96237448 61.9300874,4.95812459 C62.3265294,3.95436435 62.8825212,3.1004337 63.5946577,2.39388442 C64.3063076,1.68782477 65.1497806,1.14628388 66.1279954,0.768282467 C67.1042644,0.389791412 68.172469,0.200790703 69.33115,0.200790703 C70.4893445,0.200790703 71.5565763,0.39028105 72.5343045,0.768282467 C73.5100871,1.14628388 74.3555059,1.68782477 75.0676422,2.39388442 C75.7797787,3.1004337 76.3333383,3.95436435 76.7322125,4.95812459 C77.129141,5.96237448 77.3290646,7.08315846 77.3290646,8.3194973 C77.3290646,9.55583613 77.129141,10.6756409 76.7322125,11.6803803 C76.3333383,12.6836509 75.7797787,13.5390506 75.0676422,14.2441309 C74.3555059,14.9497009 73.5100871,15.4927107 72.5343045,15.8697329 C71.5565763,16.2482239 70.4893445,16.4377143 69.33115,16.4377143 C68.172469,16.4377143 67.1042644,16.2482239 66.1279954,15.8697329 C65.1497806,15.4927107 64.3063076,14.9501905 63.5946577,14.2441309 C62.8830077,13.5390506 62.3265294,12.6836509 61.9300874,11.6803803 C61.5326725,10.6756409 61.3337218,9.55583613 61.3337218,8.3194973 M64.7246391,8.3194973 C64.7246391,9.04710105 64.8331135,9.71203103 65.0495757,10.3162458 C65.2660379,10.9204604 65.5763815,11.4443743 65.9820658,11.8865185 C66.3853179,12.3311108 66.8717498,12.6763064 67.4369838,12.9240638 C68.0027042,13.1708419 68.63312,13.294231 69.3316364,13.294231 C70.028207,13.294231 70.6605685,13.1708419 71.2258025,12.9240638 C71.7920093,12.6763064 72.2755227,12.3311108 72.681207,11.8865185 C73.0849455,11.4438847 73.3967484,10.9199707 73.6127242,10.3162458 C73.8296729,9.71203103 73.9362014,9.04710105 73.9362014,8.3194973 C73.9362014,7.60707235 73.8296729,6.94459059 73.6127242,6.33352094 C73.3967484,5.72294093 73.0849455,5.1946203 72.681207,4.75100724 C72.2755227,4.30739418 71.7920093,3.96170895 71.2258025,3.71493082 C70.6605685,3.46717341 70.028207,3.34378435 69.3316364,3.34378435 C68.63312,3.34378435 68.0027042,3.46717341 67.4369838,3.71493082 C66.8712634,3.96170895 66.3853179,4.30739418 65.9820658,4.75100724 C65.5763815,5.1946203 65.2660379,5.72294093 65.0495757,6.33352094 C64.8331135,6.94459059 64.7246391,7.60707235 64.7246391,8.3194973" id="Fill-10"></path>
                <polygon id="Fill-12" points="82.0379693 7.87622698 77.1400857 0.500302966 81.2426531 0.500302966 84.4049474 5.91228439 87.4402829 0.500302966 91.3964341 0.500302966 86.6021606 7.81061533 91.9626409 15.950866 87.8586144 15.950866 84.2371283 9.7314697 80.7192523 15.950866 76.8467673 15.950866"></polygon>
            </g>
            <g id="Clip-19">
                <path d="M15.477736,0.377938517 C15.9105841,0.125813743 16.3925389,0 16.875,0 C17.3569548,0 17.8394159,0.125813743 18.2717577,0.377938517 L32.3532423,8.59113924 C33.2174197,9.09588608 33.75,10.0283002 33.75,11.0353075 L33.75,27.4622061 C33.75,28.4712026 33.2179259,29.4036166 32.3532423,29.9078662 L18.2717577,38.1215642 C17.8394159,38.373689 17.3569548,38.5 16.875,38.5 C16.3915264,38.5 15.9095716,38.3731917 15.4772298,38.1215642 L1.39675771,29.9078662 C0.532580326,29.4036166 0,28.4712026 0,27.4622061 L0,11.0353075 C0,10.0283002 0.532580326,9.09588608 1.39726397,8.59163652 L15.477736,0.377938517 Z M8.0155364,24.4710217 L16.875,29.693038 L25.7344636,24.4710217 L25.7344636,14.0279837 L16.875,8.80696203 L8.0155364,14.0274865 L8.0155364,24.4710217 Z" id="path-1"></path>
            </g>
        </g>
    </g>
</svg>