<?xml version="1.0" encoding="UTF-8"?>
<svg width="74px" height="97px" viewBox="0 0 74 97" version="1.1" xmlns="http://www.w3.org/2000/svg" xmlns:xlink="http://www.w3.org/1999/xlink">
    <!-- Generator: Sketch 48.2 (47327) - http://www.bohemiancoding.com/sketch -->
    <title>insights-and-strategy</title>
    <desc>Created with Sketch.</desc>
    <defs></defs>
    <g id="Desktop" stroke="none" stroke-width="1" fill="none" fill-rule="evenodd" transform="translate(-325.000000, -2982.000000)">
        <g id="insights-and-strategy" transform="translate(325.000000, 2982.000000)" fill="#FCFC00">
            <path d="M17.978238,56 L17.5,56 C17.1811746,56 17.021762,56 16.8623493,56.15 C16.0652859,56.6 15.7464605,57.5 16.2246985,58.25 C16.3841112,58.7 16.7029366,59 17.5,59 C17.6594127,59 17.978238,58.85 18.1376507,58.7 C18.9347141,58.25 19.2535395,57.2 18.7753015,56.6 C18.6158888,56.45 18.2970634,56.15 17.978238,56" id="Fill-1"></path>
            <path d="M64.498333,0 C59.8508072,0 56,3.8515625 56,8.5 C56,13.1484375 59.8508072,17 64.498333,17 C69.1458589,17 72.9966661,13.1484375 72.9966661,8.5 C73.1294525,3.8515625 69.2786454,0 64.498333,0 L64.498333,0 Z M64.498333,14.2109375 C61.3114581,14.2109375 58.6557291,11.5546875 58.6557291,8.3671875 C58.6557291,5.1796875 61.3114581,2.5234375 64.498333,2.5234375 C67.6852079,2.5234375 70.340937,5.1796875 70.340937,8.3671875 C70.340937,11.5546875 67.6852079,14.2109375 64.498333,14.2109375 L64.498333,14.2109375 Z" id="Fill-2"></path>
            <path d="M19.4047619,27.4285714 L25.4761905,33.5 L19.4047619,39.5714286 C18.8650794,40.1111111 18.8650794,41.0555556 19.4047619,41.5952381 L19.5396825,41.7301587 C19.6746032,41.8650794 20.0793651,42 20.3492063,42 C20.6190476,42 20.8888889,41.8650794 21.2936508,41.5952381 L27.3650794,35.5238095 L33.8412698,41.7301587 C33.9761905,41.8650794 34.3809524,42 34.6507937,42 C34.9206349,42 35.1904762,41.8650794 35.5952381,41.5952381 C36.1349206,41.0555556 36.1349206,40.1111111 35.5952381,39.5714286 L29.5238095,33.5 L35.5952381,27.4285714 C36.1349206,26.8888889 36.1349206,25.9444444 35.5952381,25.4047619 C35.0555556,24.8650794 34.1111111,24.8650794 33.5714286,25.4047619 L27.5,31.4761905 L21.4285714,25.4047619 C20.8888889,24.8650794 19.9444444,24.8650794 19.4047619,25.4047619 C19,26.0793651 19,27.0238095 19.4047619,27.4285714" id="Fill-3"></path>
            <path d="M36,54.5 C36,53.75 35.25,53 34.5,53 C33.6,53 33,53.75 33,54.5 C33,55.4 33.75,56 34.5,56 C35.4,56 36,55.25 36,54.5" id="Fill-4"></path>
            <path d="M59.076006,79.5459941 L64.9147729,73.4925816 L70.8832902,79.6805143 C71.0130406,79.8150346 71.4022917,79.9495549 71.6617924,79.9495549 C71.9212932,79.9495549 72.180794,79.8150346 72.5700451,79.5459941 C73.0890466,79.007913 73.0890466,78.066271 72.5700451,77.5281899 L66.7312782,71.4747774 L72.5700451,65.421365 C73.0890466,64.7487636 73.0890466,63.9416419 72.8295458,63.4035608 C72.3105443,63 71.4022917,63 71.0130406,63.4035608 L65.1742737,69.4569733 L59.3355068,63.4035608 C58.8165053,62.8654797 57.9082526,62.8654797 57.3892511,63.4035608 C56.8702496,63.9416419 56.8702496,64.8832839 57.3892511,65.421365 L63.228018,71.4747774 L57.3892511,77.5281899 C56.8702496,78.066271 56.8702496,79.007913 57.3892511,79.5459941 L57.5190015,79.6805143 C57.6487519,79.8150346 58.038003,79.9495549 58.2975038,79.9495549 C58.4272541,80.0840752 58.8165053,79.9495549 59.076006,79.5459941" id="Fill-5"></path>
            <path d="M53.3531809,54.7521368 L53.4805216,54.7521368 C60.8662811,52.3974359 65.8325676,45.8290598 65.8325676,38.2692308 L65.8325676,30.3376068 L71.9449202,36.2863248 C72.0722609,36.4102564 72.454283,36.534188 72.7089643,36.534188 C72.9636457,36.534188 73.218327,36.4102564 73.6003491,36.1623932 C74.1097118,35.542735 74.1097118,34.6752137 73.7276898,34.3034188 L65.4505455,26.2478632 C65.3232049,26 65.0685235,26 64.6865015,26 C64.4318201,26 64.1771387,26.1239316 63.7951167,26.3717949 L55.5179725,34.4273504 C55.0086098,34.9230769 55.0086098,35.7905983 55.5179725,36.2863248 L55.6453132,36.4102564 C55.7726538,36.534188 56.1546759,36.7820513 56.4093572,36.7820513 C56.6640386,36.7820513 56.91872,36.6581197 57.300742,36.4102564 L63.285754,30.5854701 L63.285754,38.517094 C63.285754,44.9615385 59.0835115,50.5384615 52.8438182,52.5213675 C52.2071148,52.7692308 51.8250928,53.3888889 52.0797741,54.1324786 C52.3344555,54.6282051 52.7164775,55 53.3531809,55 C53.2258402,54.7521368 53.3531809,54.7521368 53.3531809,54.7521368" id="Fill-6"></path>
            <path d="M8.5,97 C13.1484375,97 17,93.1484375 17,88.5 C17,83.8515625 13.1484375,80 8.5,80 C3.8515625,80 0,83.8515625 0,88.5 C0,93.1484375 3.8515625,97 8.5,97 L8.5,97 Z M8.5,82.7890625 C11.6875,82.7890625 14.34375,85.4453125 14.34375,88.6328125 C14.34375,91.953125 11.8203125,94.4765625 8.5,94.4765625 C5.3125,94.4765625 2.65625,91.8203125 2.65625,88.6328125 C2.65625,85.4453125 5.4453125,82.7890625 8.5,82.7890625 L8.5,82.7890625 Z" id="Fill-7"></path>
            <path d="M23.6,53.2962963 L23.3,53.5925926 C23,53.7407407 23,54.037037 23,54.4814815 C23,54.9259259 23.15,55.2222222 23.3,55.3703704 L23.6,55.6666667 C23.9,56.1111111 25.1,56.1111111 25.4,55.6666667 L25.55,55.5185185 C25.7,55.3703704 25.85,54.9259259 26,54.3333333 C26,54.037037 25.85,53.7407407 25.7,53.5925926 L25.4,53.2962963 C25.25,53 24.95,53 24.5,53 C24.05,53 23.75,53 23.6,53.2962963" id="Fill-8"></path>
            <path d="M8.45,70.4834682 L8.45,70.4834682 C8.15,70.7795307 8,71.0755933 8,71.5196871 C8,71.963781 8.15,72.2598436 8.3,72.4078749 L8.45,72.5559061 C8.9,73 9.2,73 9.5,73 C9.8,73 10.25,72.8519687 10.55,72.5559061 L10.7,72.4078749 C11,72.2598436 11,71.963781 11,71.5196871 C11,71.2236246 10.85,70.927562 10.55,70.4834682 L10.4,70.3354369 C10.25,70.0393743 9.95,70.0393743 9.5,70.0393743 C9.2,69.891343 8.75,70.1874056 8.45,70.4834682" id="Fill-9"></path>
            <path d="M10.2861811,63.6 L10.2861811,63.6 C10,64.05 10,64.35 10,64.65 C10.1430905,64.95 10.2861811,65.25 10.7154527,65.55 L10.8585433,65.7 C11.0016338,65.85 11.4309055,66 11.573996,66 C12.0032677,66 12.5756299,65.7 12.861811,65.25 C13.1479921,64.65 13.0049015,63.6 12.2894488,63.15 C12.0032677,63 11.8601771,63 11.573996,63 L11.1447244,63 C10.7154527,63 10.4292716,63.3 10.2861811,63.6" id="Fill-10"></path>
            <path d="M41.6,53.1851852 L41.3,53.4814815 C41,53.6296296 41,53.9259259 41,54.3703704 C41,54.8148148 41.15,55.1111111 41.3,55.2592593 L41.6,55.5555556 C41.75,55.8518519 42.05,56 42.5,56 C42.8,56 43.1,55.8518519 43.55,55.5555556 L43.7,55.4074074 C44,55.2592593 44,54.962963 44,54.5185185 C44,54.2222222 43.85,53.7777778 43.55,53.4814815 L43.4,53.3333333 C43.25,53.037037 42.95,53.037037 42.5,53.037037 C42.05,53.037037 41.75,52.8888889 41.6,53.1851852" id="Fill-11"></path>
            <path d="M28.511806,92.7301587 C28.6397575,92.8650794 29.0236121,93 29.2795151,93 C29.5354181,93 29.7913211,92.8650794 30.1751756,92.5952381 L35.9329934,86.5238095 L41.8187627,92.7301587 C41.9467142,92.8650794 42.3305687,93 42.5864717,93 C42.8423747,93 43.0982777,92.8650794 43.4821323,92.5952381 C43.9939383,92.0555556 43.9939383,91.1111111 43.4821323,90.5714286 L37.7243145,84.5 L43.4821323,78.4285714 C44.1218898,77.7539683 44.1218898,76.9444444 43.7380353,76.4047619 C43.0982777,75.8650794 42.3305687,75.8650794 41.8187627,76.4047619 L36.0609449,82.4761905 L30.3031271,76.4047619 C29.7913211,75.8650794 28.8956605,75.8650794 28.3838545,76.4047619 C27.8720485,76.9444444 27.8720485,77.8888889 28.3838545,78.4285714 L34.1416723,84.5 L28.3838545,90.5714286 C28,91.2460317 28,92.1904762 28.511806,92.7301587" id="Fill-12"></path>
        </g>
    </g>
</svg>