<?xml version="1.0" encoding="UTF-8"?>
<svg width="66px" height="87px" viewBox="0 0 66 87" version="1.1" xmlns="http://www.w3.org/2000/svg" xmlns:xlink="http://www.w3.org/1999/xlink">
    <!-- Generator: Sketch 47.1 (45422) - http://www.bohemiancoding.com/sketch -->
    <title>iterate-icon</title>
    <desc>Created with Sketch.</desc>
    <defs></defs>
    <g id="v2---Mobile" stroke="none" stroke-width="1" fill="none" fill-rule="evenodd">
        <g id="2-Approach" transform="translate(-125.000000, -729.000000)" fill="#FEFE00">
            <g id="iterate-icon" transform="translate(125.000000, 729.000000)">
                <g id="Imported-Layers">
                    <path d="M15.4973582,50.0930745 C15.3990484,50.0675545 15.3007386,50.0547945 15.204742,50.0547945 C15.0300976,50.0547945 14.867019,50.0977145 14.7351682,50.1800745 C14.1510925,50.5071945 13.9567861,51.2716345 14.2736906,51.8423545 C14.4275165,52.1891945 14.6299189,52.4803545 15.2394396,52.4803545 C15.380543,52.4803545 15.542465,52.4200345 15.7194226,52.3028745 C16.3266301,51.9606745 16.5220931,51.1962345 16.2051886,50.6243545 C16.061772,50.3656745 15.8038534,50.1719545 15.4973582,50.0930745" id="Fill-1"></path>
                    <path d="M56.8598807,0 C52.7620978,0 49.4288179,3.34312 49.4288179,7.453 C49.4288179,11.56288 52.7620978,14.906 56.8598807,14.906 C60.9576636,14.906 64.2897869,11.56288 64.2897869,7.453 C64.2897869,3.34312 60.9576636,0 56.8598807,0 L56.8598807,0 Z M56.8598807,12.412 C54.1176161,12.412 51.7998185,10.08736 51.7998185,7.337 C51.7998185,4.58548 54.1176161,2.262 56.8598807,2.262 C59.6021453,2.262 61.9199429,4.58548 61.9199429,7.337 C61.9199429,10.08736 59.6021453,12.412 56.8598807,12.412 L56.8598807,12.412 Z" id="Fill-2"></path>
                    <path d="M16.7946707,23.4681827 L22.0201246,28.7102227 L16.7946707,33.9522627 C16.380613,34.4301827 16.3597945,35.2131827 16.7946707,35.6481827 L16.8883541,35.7583827 C17.0051693,35.9138227 17.3671806,36.0472227 17.5823055,36.0472227 C17.7696724,36.0472227 18.0969861,35.9231027 18.3699403,35.6481827 L23.5792021,30.4247027 L29.1481619,35.7583827 C29.2649771,35.9138227 29.6269884,36.0472227 29.8421133,36.0472227 C30.0294802,36.0472227 30.3567939,35.9219427 30.6309047,35.6481827 C31.0438058,35.1714227 31.0646243,34.3872627 30.6297481,33.9522627 L25.4031376,28.7102227 L30.6297481,23.4681827 C31.0438058,22.9914227 31.0646243,22.2072627 30.6297481,21.7722627 C30.1543914,21.3558227 29.3725395,21.3349427 28.9388199,21.7722627 L23.7122094,27.0131427 L18.4855989,21.7722627 C18.0090856,21.3558227 17.2283903,21.3349427 16.7946707,21.7722627 C16.380613,22.2501827 16.3597945,23.0331827 16.7946707,23.4681827" id="Fill-3"></path>
                    <path d="M30.6160394,48.8602329 C30.6160394,48.2605129 30.0284939,47.6712329 29.4305391,47.6712329 C28.6984204,47.6712329 28.2450388,48.2883529 28.2450388,48.8602329 C28.2450388,49.5945129 28.8603424,50.0492329 29.4305391,50.0492329 C30.1626578,50.0492329 30.6160394,49.4321129 30.6160394,48.8602329" id="Fill-4"></path>
                    <path d="M51.3224856,71.4017578 L56.5490962,66.1597178 L61.8693901,71.5119578 C61.9850487,71.6662378 62.3482166,71.8007978 62.5621849,71.8007978 C62.7518649,71.8007978 63.0791787,71.6755178 63.3509763,71.4017578 C63.765034,70.9249978 63.7846959,70.1408378 63.3509763,69.7046778 L58.1255224,64.4637978 L63.3243748,59.2495978 C63.7604076,58.7275978 63.7800696,57.9457578 63.5325603,57.4933578 C63.0144099,57.1105578 62.29964,57.1140378 61.8913652,57.5246778 L56.6647547,62.7678778 L51.4369876,57.5258378 C50.9604743,57.1093978 50.1809356,57.0885178 49.747216,57.5246778 C49.3331583,58.0025978 49.3123398,58.7867578 49.747216,59.2217578 L54.9726699,64.4637978 L49.747216,69.7058378 C49.3331583,70.1825978 49.3123398,70.9667578 49.747216,71.4017578 L49.8408994,71.5119578 C49.9577146,71.6662378 50.3208825,71.8007978 50.5348508,71.8007978 C50.7233743,71.8007978 51.0495314,71.6755178 51.3224856,71.4017578" id="Fill-5"></path>
                    <path d="M47.3167543,49.7182356 L47.4532314,49.6625556 C54.1591149,47.4933556 58.6651726,41.3082356 58.6651726,34.2728356 L58.6651726,26.8349156 L64.187869,32.3878356 C64.3046842,32.5444356 64.6666955,32.6778356 64.8818204,32.6778356 C65.0645609,32.6778356 65.3768391,32.5606756 65.6451669,32.3031556 C66.1205236,31.7324356 66.07773,30.9285556 65.7319109,30.5248756 L58.1736237,22.9338356 C58.0406163,22.7551956 57.7734451,22.6438356 57.4796723,22.6438356 C57.2911488,22.6438356 56.9649917,22.7691156 56.6908809,23.0428756 L49.1742308,30.5828756 C48.7601731,31.0596356 48.7405112,31.8437956 49.1742308,32.2799556 L49.2667577,32.3866756 C49.3835728,32.5444356 49.7478973,32.6778356 49.9618656,32.6778356 C50.1492325,32.6778356 50.4765462,32.5525556 50.750657,32.2787956 L56.1785135,26.8349156 L56.1785135,34.2728356 C56.1785135,40.2793156 52.3652506,45.5619556 46.6898848,47.4179556 C46.078051,47.6023956 45.7588334,48.2844756 45.9566096,48.9456756 C46.1324106,49.4038756 46.5672868,49.7298356 47.0704015,49.7298356 C47.1548323,49.7298356 47.2809001,49.7298356 47.3167543,49.7182356" id="Fill-6"></path>
                    <path d="M7.43106275,86.4128493 C11.5288457,86.4128493 14.8621255,83.0697293 14.8621255,78.9598493 C14.8621255,74.8499693 11.5288457,71.5068493 7.43106275,71.5068493 C3.33327982,71.5068493 0,74.8499693 0,78.9598493 C0,83.0697293 3.33327982,86.4128493 7.43106275,86.4128493 L7.43106275,86.4128493 Z M7.43106275,74.0008493 C10.1733273,74.0008493 12.4911249,76.3254893 12.4911249,79.0758493 C12.4911249,81.9224893 10.2681673,84.1508493 7.43106275,84.1508493 C4.68764161,84.1508493 2.37100057,81.8273693 2.37100057,79.0758493 C2.37100057,76.3254893 4.68764161,74.0008493 7.43106275,74.0008493 L7.43106275,74.0008493 Z" id="Fill-7"></path>
                    <path d="M21.675328,47.9612329 L21.4717689,48.1642329 C21.2948113,48.2987929 21.1837791,48.5655929 21.1837791,48.8602329 C21.1837791,49.1560329 21.2948113,49.4216729 21.4717689,49.5562329 L21.675328,49.7592329 C21.9436559,50.1176729 22.7949029,50.1176729 23.0620742,49.7592329 L23.1569142,49.6501929 C23.274886,49.5318729 23.4437475,49.2337529 23.5513099,48.7685929 C23.5304914,48.5110729 23.4252421,48.2848729 23.2656333,48.1642329 L23.0620742,47.9612329 C22.9290669,47.7825929 22.6630522,47.6712329 22.3692794,47.6712329 C22.0743501,47.6712329 21.8083354,47.7825929 21.675328,47.9612329" id="Fill-8"></path>
                    <path d="M6.28224855,63.5634236 L6.17468608,63.6562236 C5.99541531,63.7907836 5.88438309,64.0587436 5.88438309,64.3533836 C5.88438309,64.6480236 5.99541531,64.9159836 6.1735295,65.0493836 L6.28109196,65.1433436 C6.61187546,65.4739436 6.83509649,65.5423836 7.06988337,65.5423836 C7.29194781,65.5423836 7.63198399,65.3707036 7.85867478,65.1433436 L7.96623724,65.0493836 C8.14435143,64.9159836 8.25538365,64.6491836 8.25538365,64.3533836 C8.25538365,64.1179036 8.1871451,63.8940236 7.85751819,63.5622636 L7.76499134,63.4543836 C7.63082741,63.2757436 7.36365612,63.1643836 7.06988337,63.1643836 C6.84666234,63.1643836 6.50778275,63.3349036 6.28224855,63.5634236" id="Fill-9"></path>
                    <path d="M8.46727157,55.3914778 L8.4244779,55.4610778 C8.25330323,55.7185978 8.1989437,55.9888778 8.26602567,56.2417578 C8.3365774,56.5085578 8.54129305,56.7393978 8.84431849,56.8913578 L8.95303754,56.9539978 C9.1253688,57.0688378 9.38791374,57.1314778 9.54867915,57.1314778 C9.93960509,57.1314778 10.3073993,56.9157178 10.5572218,56.5398778 C10.8313326,56.0387578 10.6370262,55.2731578 10.0980573,54.9738778 C9.91878655,54.8741178 9.71060114,54.8219178 9.50010255,54.8219178 C9.39022691,54.8219178 9.27803811,54.8358378 9.17047564,54.8648378 C8.85935411,54.9471978 8.60953161,55.1339578 8.46727157,55.3914778" id="Fill-10"></path>
                    <path d="M36.974724,47.9612329 L36.7723216,48.1642329 C36.5942074,48.2976329 36.4831752,48.5644329 36.4831752,48.8602329 C36.4831752,49.1560329 36.5942074,49.4216729 36.771165,49.5562329 L36.974724,49.7592329 C37.1077314,49.9378729 37.3749027,50.0492329 37.6686754,50.0492329 C37.9023057,50.0492329 38.1255268,49.9819529 38.4551537,49.6513529 L38.5650293,49.5562329 C38.7431435,49.4216729 38.8541757,49.1560329 38.8541757,48.8602329 C38.8541757,48.6375129 38.6841576,48.2976329 38.4563103,48.0702729 L38.3614702,47.9612329 C38.2284629,47.7825929 37.9636048,47.6712329 37.6686754,47.6712329 C37.3737461,47.6712329 37.1077314,47.7825929 36.974724,47.9612329" id="Fill-11"></path>
                    <path d="M23.9496138,82.2363848 C24.066429,82.3929848 24.4284403,82.5263848 24.6435652,82.5263848 C24.8309321,82.5263848 25.1582458,82.4011048 25.4323566,82.1273448 L30.6578106,76.8864648 L35.9781045,82.2363848 C36.0949197,82.3929848 36.456931,82.5263848 36.6720559,82.5263848 C36.8605794,82.5263848 37.1867365,82.4011048 37.4585341,82.1273448 C37.8737484,81.6505848 37.8934103,80.8664248 37.4585341,80.4314248 L32.2342368,75.1893848 L37.4596907,69.9473448 C37.9940333,69.4114248 37.9882504,68.6690248 37.6817552,68.2479448 C37.1578219,67.8338248 36.4176071,67.8303448 36.0000796,68.2514248 L30.7734691,73.4934648 L25.5468586,68.2514248 C25.0703453,67.8349848 24.2884934,67.8152648 23.8559304,68.2502648 C23.4418727,68.7281848 23.4210542,69.5123448 23.8559304,69.9473448 L29.0813843,75.1893848 L23.8559304,80.4314248 C23.4418727,80.9081848 23.4210542,81.6923448 23.8559304,82.1273448 L23.9496138,82.2363848" id="Fill-12"></path>
                </g>
            </g>
        </g>
    </g>
</svg>