<?xml version="1.0" encoding="UTF-8"?>
<svg width="180px" height="80px" viewBox="0 0 180 80" version="1.1" xmlns="http://www.w3.org/2000/svg" xmlns:xlink="http://www.w3.org/1999/xlink">
    <!-- Generator: Sketch 48.2 (47327) - http://www.bohemiancoding.com/sketch -->
    <title>mechanismm-logo</title>
    <desc>Created with Sketch.</desc>
    <defs>
        <polygon id="path-1" points="1.95758726e-20 0.134830769 1.95758726e-20 16.8402154 12.8653778 16.8402154 12.8653778 0.134830769"></polygon>
        <polygon id="path-3" points="7.28809735e-16 17.6833385 7.28809735e-16 0.980723077 12.8661 0.980723077 12.8661 17.6833385"></polygon>
        <polygon id="path-5" points="0 44 164 44 164 0 0 0"></polygon>
    </defs>
    <g id="Client-logo-sheet" stroke="none" stroke-width="1" fill="none" fill-rule="evenodd">
        <g id="mechanismm-logo">
            <g id="Page-1" transform="translate(8.000000, 18.000000)">
                <g id="Group-3" transform="translate(0.000000, 6.000000)">
                    <mask id="mask-2" fill="white">
                        <use xlink:href="#path-1"></use>
                    </mask>
                    <g id="Clip-2"></g>
                    <path d="M2.92037778,16.8402154 C1.03682222,14.9917538 -0.000288888889,12.5465231 -0.000288888889,9.95313846 C-0.000288888889,4.53929231 4.56271111,0.134830769 10.1714889,0.134830769 C11.0843778,0.134830769 11.9914889,0.253907692 12.8653778,0.483753846 L12.1330444,3.02452308 C11.4974889,2.85698462 10.8373778,2.77252308 10.1714889,2.77252308 C6.07937778,2.77252308 2.74993333,5.99313846 2.74993333,9.95313846 C2.74993333,11.8528308 3.50971111,13.6445231 4.88771111,14.9972923 L2.92037778,16.8402154 Z" id="Fill-1" fill="#FCFC00" mask="url(#mask-2)"></path>
                </g>
                <path d="M39.0499663,23 L37.0618684,21.1258289 C38.4544128,19.7490882 39.2207501,17.9256466 39.2207501,15.9922911 C39.2207501,11.9621187 35.8561644,8.68302387 31.7208623,8.68302387 C31.0494049,8.68302387 30.3823265,8.7689821 29.7386032,8.93948939 L29,6.35369695 C29.8831125,6.11977785 30.7983382,6 31.7208623,6 C37.388839,6 42,10.4825099 42,15.9922911 C42,18.6302221 40.9534022,21.1201923 39.0499663,23" id="Fill-4" fill="#FCFC00"></path>
                <path d="M20.1233826,11 C16.7019409,11 13.4718115,10.0729754 11,8.37614951 L12.4251386,6 C14.5337338,7.44615841 17.3548983,8.2174429 20.3701479,8.17442895 C23.073475,8.13141501 25.6631238,7.4194601 27.663586,6.16167309 L29,8.59863542 C26.6127542,10.0981904 23.5600739,10.9495699 20.4089649,10.9970335 C20.3133087,10.9985168 20.2190388,11 20.1233826,11" id="Fill-6" fill="#FCFC00"></path>
                <path d="M12.9988906,37 L10.4396907,36.964308 C10.4692613,34.5772285 9.78913783,31.91889 8.5243232,29.4818417 C7.11299976,26.7635406 5.15193223,24.6063175 3,23.407067 L4.18819993,21 C6.7796586,22.4433836 9.11573493,24.9903632 10.7649672,28.1698046 C12.2421524,31.0137414 13.0338376,34.1503525 12.9988906,37" id="Fill-8" fill="#FCFC00"></path>
                <path d="M28.0011928,37 C27.964897,34.1477516 28.7580264,31.0142755 30.2340536,28.1691649 C31.8848381,24.9885796 34.221209,22.4432548 36.8129945,21 L38,23.4082798 C35.8491407,24.6045682 33.8864816,26.7615989 32.4763244,29.4810849 C31.2113503,31.9193433 30.531141,34.5774447 30.5593711,36.9643112 L28.0011928,37 Z" id="Fill-10" fill="#FCFC00"></path>
                <path d="M20.5006948,44 C18.8429021,44 17.1600965,43.5816539 15.616251,42.7018763 C13.3539823,41.4162613 11.715644,39.3342599 11,36.8422516 L13.5443575,36.1111883 C14.0668471,37.9360667 15.268851,39.4579569 16.9252542,40.4030577 C20.37841,42.371091 24.772325,41.1883252 26.7219337,37.7678944 C27.0401521,37.2077832 27.2791633,36.6143155 27.4334089,36 L30,36.6490618 C29.7860016,37.495483 29.4552768,38.3127172 29.020332,39.075747 C27.2249689,42.2334955 23.9135523,44 20.5006948,44" id="Fill-12" fill="#FCFC00"></path>
                <path d="M4.18938418,23 L3,20.5917202 C5.15298696,19.3940043 7.11379093,17.2369736 8.52492471,14.5189151 C9.78956935,12.0806567 10.4696014,9.42255532 10.4400348,7.03568879 L12.9988907,7 C13.0338331,9.84939329 12.2422542,12.9857245 10.7652676,15.8308351 C9.11625695,19.0114204 6.78049457,21.5567452 4.18938418,23" id="Fill-14" fill="#FCFC00"></path>
                <path d="M36.8118097,24 C34.2203721,22.5567452 31.8843148,20.0114204 30.2337518,16.8322627 C28.7592669,13.9857245 27.9648998,10.8508208 28.0011907,8 L30.5603698,8.03568879 C30.5307994,10.4225553 31.2109174,13.0806567 32.4757217,15.5203426 C33.8856896,18.2384011 35.8494294,20.3954318 38,21.5917202 L36.8118097,24 Z" id="Fill-16" fill="#FCFC00"></path>
                <path d="M27.4334089,8 C27.2791633,7.38575874 27.0387625,6.7895834 26.7205441,6.23370895 C24.7737146,2.81369143 20.37841,1.62967887 16.9252542,3.5974744 C15.268851,4.53968158 14.0668471,6.06416725 13.5429679,7.88882511 L11,7.1592399 C11.7142544,4.66753271 13.3539823,2.58578291 15.616251,1.29754389 C20.336722,-1.39149874 26.3509106,0.234434011 29.020332,4.92323495 C29.4552768,5.68756231 29.784612,6.50469774 30,7.34823721 L27.4334089,8 Z" id="Fill-18" fill="#FCFC00"></path>
                <g id="Group-22" transform="translate(0.000000, 20.000000)">
                    <mask id="mask-4" fill="white">
                        <use xlink:href="#path-3"></use>
                    </mask>
                    <g id="Clip-21"></g>
                    <path d="M10.1707667,17.6833385 C4.56343333,17.6833385 -0.00101111111,13.2802615 -0.00101111111,7.86641538 C-0.00101111111,5.27303077 1.03754444,2.8278 2.91965556,0.980723077 L4.88843333,2.82364615 C3.50898889,4.17503077 2.75065556,5.96672308 2.75065556,7.86641538 C2.75065556,11.8264154 6.07865556,15.0498 10.1707667,15.0498 C10.8366556,15.0498 11.4982111,14.9625692 12.1337667,14.7950308 L12.8661,17.3371846 C11.9907667,17.5670308 11.0851,17.6833385 10.1707667,17.6833385" id="Fill-20" fill="#FCFC00" mask="url(#mask-4)"></path>
                </g>
                <path d="M31.7220164,38 C30.8010553,38 29.8830134,37.878813 29,37.6448939 L29.7399798,35.0576923 C30.3821713,35.2281996 31.0506343,35.3169761 31.7220164,35.3169761 C35.8568542,35.3169761 39.2210621,32.0364721 39.2210621,28.0062997 C39.2210621,26.0729443 38.4533513,24.2509118 37.0609633,22.8741711 L39.0502975,21 C40.9520602,22.8812168 42,25.3683687 42,28.0062997 C42,33.5160809 37.3893567,38 31.7220164,38" id="Fill-23" fill="#FCFC00"></path>
                <path d="M12.4251386,38 L11,35.6205623 C13.5397412,33.8804873 16.8821627,32.9474036 20.4075786,33.0022909 C23.5600739,33.0482775 26.6113678,33.899772 29,35.4010132 L27.663586,37.838305 C25.6631238,36.580348 23.073475,35.8682968 20.3687616,35.8267605 C17.3590573,35.7807739 14.5337338,36.5506792 12.4251386,38" id="Fill-25" fill="#FCFC00"></path>
                <polygon id="Fill-27" fill="#FCFC00" points="52 26 52 14 54.7000534 14 58.5326563 23.2930704 62.3166221 14 65 14 65 26 63.1823624 26 63.2323891 15.8821408 59.1496526 26 57.867023 26 53.7828968 15.8821408 53.8329236 26"></polygon>
                <path d="M74.1692165,21.1661841 C74.0817049,19.9169079 72.8215365,18.5112913 71.0202541,18.544586 C69.1664648,18.544586 67.9588034,19.8821656 67.8712917,21.1661841 L74.1692165,21.1661841 Z M67.836287,22.574696 C67.9237987,24.4826288 69.6040232,25.455414 71.0377565,25.455414 C72.3154272,25.455414 73.2590949,24.8474233 73.7841651,23.8572669 L75.6729591,23.8572669 C75.2178983,24.8995368 74.554268,25.6812391 73.7491604,26.2023741 C72.9440528,26.7408801 72.0003851,27 71.0377565,27 C67.9237987,27 66,24.5173712 66,22.0173712 C66,19.3089172 68.1338268,17 71.0202541,17 C72.383978,17 73.6266441,17.5037638 74.5353071,18.3896931 C75.6554568,19.5173712 76.1280199,20.9939201 75.9704989,22.574696 L67.836287,22.574696 Z" id="Fill-29" fill="#FCFC00"></path>
                <path d="M87,23.4070643 C86.4176471,25.455414 84.5308824,27 82.1308824,27 C78.9926471,27 77,24.6215981 77,22 C77,19.2046902 79.1691176,17 82.0441176,17 C84.3367647,17 86.4,18.3896931 87,20.6624204 L85.1132353,20.6624204 C84.6191176,19.395773 83.4191176,18.6835553 82.1147059,18.6835553 C81.1441176,18.6676317 80.4382353,18.9788651 79.7691176,19.604227 C79.2044118,20.1601042 78.8338235,21.044586 78.8338235,22 C78.8338235,23.9455704 80.2794118,25.3164447 82.1147059,25.3164447 C83.7191176,25.3005211 84.725,24.3436595 85.1132353,23.4070643 L87,23.4070643 Z" id="Fill-31" fill="#FCFC00"></path>
                <path d="M88,14 L89.6581963,14 L89.6581963,17.0327887 L89.6581963,18.4119437 C90.1670819,17.3735211 91.3456237,16.9016338 92.4776615,16.9192113 C93.8315894,16.9192113 94.692576,17.3735211 95.2506228,18.1509859 C95.7927255,18.9149296 96,19.9682254 96,21.1837746 L96,26 L94.3258595,26 L94.3258595,21.2649014 C94.3258595,20.4698592 94.1823617,19.7735211 93.8315894,19.2867606 C93.4502574,18.8013521 92.8749377,18.5079437 92.0152799,18.5079437 C91.1396778,18.5079437 90.5337984,18.8486761 90.1830261,19.3192113 C89.8163096,19.7897465 89.6581963,20.4225352 89.6581963,21.0215211 L89.6581963,26 L88,26 L88,14 Z" id="Fill-33" fill="#FCFC00"></path>
                <path d="M98.777366,22.0340136 C98.7944698,23.4423216 99.767959,25.3166884 102.02423,25.3166884 C103.443843,25.3166884 104.451539,24.5177305 104.914766,23.4423216 C105.118586,23.006658 105.221209,22.5203358 105.238312,22.0340136 C105.255416,21.5476914 105.169897,21.0628166 104.966078,20.6286004 C104.519954,19.5343755 103.47805,18.684759 101.991448,18.684759 C100.043044,18.684759 98.777366,20.2479375 98.777366,22.016645 L98.777366,22.0340136 Z M107,26.7206542 L105.221209,26.7206542 L105.221209,25.0735273 C104.571266,26.3399913 103.238597,27 101.769099,27 C98.777366,27 97,24.6378637 97,22.0007237 C97,19.1189752 99.06813,17 101.769099,17 C103.61488,17 104.79504,18.042119 105.221209,18.9438414 L105.221209,17.2793458 L107,17.2793458 L107,26.7206542 Z" id="Fill-35" fill="#FCFC00"></path>
                <path d="M109,17.2576331 L110.561202,17.2576331 L110.561202,18.6072519 C110.975752,17.7079528 111.948347,16.9828845 113.493606,17.0003076 C116.266567,17.0324732 117,19.0575716 117,20.8735929 L117,26 L115.327188,26 L115.327188,21.2595812 C115.327188,19.6848026 114.721309,18.5590034 113.031224,18.573746 C111.406245,18.5911691 110.656868,19.6204712 110.656868,21.1322587 L110.656868,26 L109,26 L109,17.2576331 Z" id="Fill-37" fill="#FCFC00"></path>
                <mask id="mask-6" fill="white">
                    <use xlink:href="#path-5"></use>
                </mask>
                <g id="Clip-40"></g>
                <path d="M120,26 L122,26 L122,17.1791751 L120,17.1791751 L120,26 Z M120,15.7849899 L122,15.7849899 L122,14 L120,14 L120,15.7849899 Z" id="Fill-39" fill="#FCFC00" mask="url(#mask-6)"></path>
                <path d="M127.873261,19.7442466 C127.873261,19.0147634 127.408716,18.4575192 126.463247,18.4763352 C125.552023,18.4763352 125.051743,19.0654219 125.06961,19.6906933 C125.106833,20.4375452 125.802162,20.7849182 126.838456,21.0628166 C128.31994,21.4622956 129.945849,21.8791431 129.99945,23.9098278 C130.033696,25.7480098 128.462877,27 126.534715,27 C124.998141,27 123.087847,26.1489362 123,23.996671 L124.838826,23.996671 C124.910295,25.1415545 125.857253,25.5236648 126.552582,25.5236648 C127.445939,25.5236648 128.141268,24.9172094 128.141268,24.1168042 C128.123401,23.1803445 127.392338,22.8677088 125.659225,22.311912 C124.302812,21.9124331 123.230784,21.2871617 123.212917,19.8658272 C123.212917,18.0768563 124.713756,17 126.479625,17 C127.821149,17 129.570639,17.6440874 129.712087,19.7442466 L127.873261,19.7442466 Z" id="Fill-41" fill="#FCFC00" mask="url(#mask-6)"></path>
                <path d="M131,17.2573343 L132.659845,17.2573343 L132.659845,18.4944155 C133.047989,17.7545793 134.115032,17 135.451658,17 C136.298518,17 137.179252,17.2399106 137.821454,17.9328369 C138.058574,18.1580045 138.314044,18.6244229 138.414255,18.7839166 C138.56669,18.5265823 138.752999,18.2209978 139.074806,17.9154133 C139.667608,17.3524944 140.513056,17 141.51235,17 C142.35921,17 143.307692,17.2251675 143.983769,17.8832465 C144.795342,18.6713328 145,19.5076694 145,21.1790022 L145,26 L143.238532,26 L143.238532,21.2446761 C143.238532,20.519583 143.13832,19.7971705 142.731828,19.297245 C142.410021,18.8482502 141.918843,18.5734922 141.08892,18.5734922 C140.311221,18.5734922 139.65067,18.880417 139.311927,19.4098287 C138.939308,19.9566642 138.888497,20.439166 138.888497,21.1790022 L138.888497,26 L137.111503,26 L137.111503,21.1790022 C137.12844,20.4565897 137.043754,19.9244974 136.737474,19.4433358 C136.400141,18.9273269 135.858151,18.5909159 134.995766,18.5734922 C134.165843,18.5587491 133.557516,18.9447506 133.252646,19.4272524 C132.912491,19.8936709 132.760056,20.5034996 132.760056,21.2098287 L132.760056,26 L131,26 L131,17.2573343 Z" id="Fill-42" fill="#FCFC00" mask="url(#mask-6)"></path>
                <polygon id="Fill-43" fill="#FCFC00" mask="url(#mask-6)" points="151 26 151 14 153.700342 14 157.533355 23.2930704 161.317725 14 164 14 164 26 162.184948 26 162.23498 15.8821408 158.151807 26 156.86765 26 152.783087 15.8821408 152.83312 26"></polygon>
            </g>
        </g>
    </g>
</svg>