<?xml version="1.0" encoding="UTF-8"?>
<svg width="180px" height="80px" viewBox="0 0 180 80" version="1.1" xmlns="http://www.w3.org/2000/svg" xmlns:xlink="http://www.w3.org/1999/xlink">
    <title>mechanismm-purple</title>
    <g id="mechanismm-purple" stroke="none" stroke-width="1" fill="none" fill-rule="evenodd">
        <g id="mechanismm-logo-blue-no-border" transform="translate(14.000000, 19.000000)" fill="#1B003C">
            <path d="M2.7911,21.8255182 C1.0972,20.1142909 0.1625,17.8518818 0.1625,15.4510364 C0.1625,10.4391273 4.2692,6.36038182 9.3171,6.36038182 C10.14,6.36038182 10.9551,6.47061818 11.7416,6.6834 L11.0838,9.03681818 C10.5118,8.88171818 9.9177,8.80224545 9.3171,8.80224545 C5.6342,8.80224545 2.639,11.7837545 2.639,15.4510364 C2.639,17.2096909 3.3215,18.8683636 4.563,20.1194182 L2.7911,21.8255182" id="Fill-1"></path>
            <path d="M35.4419,21.9472909 L33.6713,20.2424727 C34.9115,18.9901364 35.5953,17.3327455 35.5953,15.5728091 C35.5953,11.9068091 32.5988,8.92401818 28.9159,8.92401818 C28.3166,8.92401818 27.7225,9.00220909 27.1505,9.15859091 L26.4914,6.80645455 C27.2779,6.59239091 28.093,6.48343636 28.9159,6.48343636 C33.9638,6.48343636 38.0705,10.5609 38.0705,15.5728091 C38.0705,17.9723727 37.1371,20.2373455 35.4419,21.9472909" id="Fill-2"></path>
            <path d="M19.2153,11.0569636 C16.0069,11.0569636 12.9779,10.2558273 10.66,8.78942727 L11.9964,6.73595455 C13.9737,7.98572727 16.6192,8.65227273 19.4467,8.6151 C21.9817,8.57792727 24.4101,7.96265455 26.2847,6.87567273 L27.5379,8.9817 C25.3006,10.2776182 22.438,11.0133818 19.4818,11.0544 C19.3934,11.0556818 19.3037,11.0569636 19.2153,11.0569636" id="Fill-3"></path>
            <path d="M12.6152,34.4219455 L10.14,34.3899 C10.1686,32.2467 9.5108,29.8599545 8.2875,27.6718909 C6.9225,25.2313091 5.0245,23.2944818 2.9432,22.2177545 L4.0937,20.0553273 C6.6001,21.3512455 8.8595,23.6380091 10.4546,26.4939 C11.882,29.0472818 12.649,31.8634364 12.6152,34.4219455" id="Fill-4"></path>
            <path d="M25.6191,34.3014545 C25.5827,31.7403818 26.351,28.9267909 27.7784,26.3721273 C29.3735,23.5162364 31.6342,21.2307545 34.1393,19.9348364 L35.2885,22.0959818 C33.2085,23.1714273 31.3105,25.1082545 29.9468,27.5501182 C28.7222,29.7407455 28.0657,32.1262091 28.093,34.2694091 L25.6191,34.3014545" id="Fill-5"></path>
            <path d="M19.1347,41.2014818 C17.5825,41.2014818 16.0082,40.8156545 14.5639,40.0042636 C12.4488,38.8185818 10.9148,36.8984182 10.2466,34.6001182 L12.6256,33.9258818 C13.1157,35.6089091 14.2389,37.0125 15.7885,37.8841364 C19.0203,39.6991909 23.1309,38.6083636 24.9535,35.4538091 C25.2512,34.9372364 25.4748,34.3899 25.6204,33.8233364 L28.0202,34.4219455 C27.82,35.2025727 27.5119,35.9562818 27.1037,36.66 C25.4241,39.5722909 22.3275,41.2014818 19.1347,41.2014818" id="Fill-6"></path>
            <path d="M4.0937,22.0870091 L2.9432,19.9258636 C5.0245,18.8491364 6.9225,16.9123091 8.2875,14.4717273 C9.5108,12.2823818 10.1686,9.89691818 10.14,7.75371818 L12.6152,7.72039091 C12.649,10.2789 11.882,13.0963364 10.4546,15.6497182 C8.8595,18.5056091 6.6001,20.7923727 4.0937,22.0870091" id="Fill-7"></path>
            <path d="M34.1393,22.2087818 C31.6342,20.9128636 29.3735,18.6273818 27.7784,15.7727727 C26.351,13.2181091 25.5827,10.4019545 25.6191,7.84216364 L28.093,7.87549091 C28.0657,10.0174091 28.7222,12.4041545 29.9468,14.5947818 C31.3105,17.0353636 33.2085,18.9721909 35.2885,20.0476364 L34.1393,22.2087818" id="Fill-8"></path>
            <path d="M25.6204,8.32028182 C25.4748,7.75371818 25.2512,7.20381818 24.9535,6.69109091 C23.1322,3.53653636 19.0203,2.44442727 15.7885,4.25948182 C14.2389,5.12855455 13.1157,6.53599091 12.6256,8.21773636 L10.2466,7.54478182 C10.9148,5.24648182 12.4488,3.32631818 14.5639,2.13807273 C18.98,-0.342245455 24.6064,1.15748182 27.1037,5.48233636 C27.5119,6.18733636 27.82,6.94104545 28.0202,7.71910909 L25.6204,8.32028182" id="Fill-9"></path>
            <path d="M9.3171,35.7806727 C4.2692,35.7806727 0.1625,31.7057727 0.1625,26.6925818 C0.1625,24.2917364 1.0972,22.0280455 2.7911,20.3181 L4.563,22.0242 C3.3215,23.2752545 2.639,24.9339273 2.639,26.6925818 C2.639,30.3585818 5.6342,33.3426545 9.3171,33.3426545 C9.9164,33.3426545 10.5118,33.2631818 11.0838,33.1080818 L11.7416,35.4615 C10.9551,35.6742818 10.14,35.7806727 9.3171,35.7806727" id="Fill-10"></path>
            <path d="M28.9159,35.6614636 C28.0943,35.6614636 27.2779,35.5512273 26.4914,35.3384455 L27.1505,32.9850273 C27.7225,33.1401273 28.3166,33.2196 28.9159,33.2196 C32.5988,33.2196 35.5953,30.2355273 35.5953,26.5708091 C35.5953,24.8108727 34.9115,23.1534818 33.6713,21.9011455 L35.4419,20.1963273 C37.1371,21.9075545 38.0705,24.1699636 38.0705,26.5708091 C38.0705,31.5827182 33.9638,35.6614636 28.9159,35.6614636" id="Fill-11"></path>
            <path d="M11.9964,35.4076636 L10.66,33.3529091 C13.0416,31.8480545 16.1772,31.0417909 19.4818,31.0892182 C22.438,31.1302364 25.3006,31.866 27.5379,33.1632 L26.2847,35.2679455 C24.4101,34.1809636 21.9817,33.5656909 19.4467,33.5310818 C16.6218,33.4900636 13.975,34.1566091 11.9964,35.4076636" id="Fill-12"></path>
            <polyline id="Fill-13" points="48.2781 25.6568727 48.2781 14.2807364 50.804 14.2807364 54.3894 23.0893909 57.928 14.2807364 60.4396 14.2807364 60.4396 25.6568727 58.7392 25.6568727 58.786 16.0637455 54.9666 25.6568727 53.7654 25.6568727 49.946 16.0637455 49.9928 25.6568727 48.2781 25.6568727"></polyline>
            <path d="M63.284,21.9819 C63.362,23.6739 64.8596,24.5352818 66.1375,24.5352818 C67.2763,24.5352818 68.1174,23.9969182 68.5854,23.1201545 L70.2689,23.1201545 C69.8633,24.0430636 69.2718,24.7339636 68.5542,25.1954182 C67.8366,25.6722545 66.9955,25.9029818 66.1375,25.9029818 C63.362,25.9029818 61.6473,23.7046636 61.6473,21.4909636 C61.6473,19.0914 63.5492,17.0481818 66.1219,17.0481818 C67.3374,17.0481818 68.445,17.4942545 69.2549,18.2774455 C70.2533,19.2772636 70.6745,20.5834364 70.5341,21.9819 L63.284,21.9819 L63.284,21.9819 Z M68.9286,20.7372545 C68.8506,19.6310455 67.7274,18.3851182 66.1219,18.4158818 C64.4696,18.4158818 63.3932,19.599 63.3152,20.7372545 L68.9286,20.7372545 L68.9286,20.7372545 Z" id="Fill-14"></path>
            <path d="M80.0969,22.7215091 C79.5821,24.5352818 77.9142,25.9029818 75.7926,25.9029818 C73.0184,25.9029818 71.2569,23.7956727 71.2569,21.4755818 C71.2569,18.9991091 73.1744,17.0481818 75.7159,17.0481818 C77.7426,17.0481818 79.5665,18.2774455 80.0969,20.2911818 L78.429,20.2911818 C77.9922,19.1695909 76.9314,18.5389364 75.7783,18.5389364 C74.9203,18.5235545 74.2963,18.8004273 73.7035,19.3541727 C73.2056,19.8451091 72.878,20.6295818 72.878,21.4755818 C72.878,23.1970636 74.1559,24.4109455 75.7783,24.4109455 C77.1966,24.3955636 78.0845,23.5508455 78.429,22.7215091 L80.0969,22.7215091" id="Fill-15"></path>
            <path d="M81.1616,14.2807364 L82.784,14.2807364 L82.784,18.4620273 C83.2819,17.4788727 84.435,17.0315182 85.5426,17.0481818 C86.8673,17.0481818 87.7097,17.4788727 88.2557,18.2159182 C88.7861,18.9375818 88.9889,19.9386818 88.9889,21.0910364 L88.9889,25.6568727 L87.3509,25.6568727 L87.3509,21.1679455 C87.3509,20.4142364 87.2105,19.7528182 86.8673,19.2926455 C86.4942,18.8299091 85.9326,18.5543182 85.0902,18.5543182 C84.2335,18.5543182 83.6407,18.8773364 83.2975,19.3221273 C82.9387,19.7694818 82.784,20.3680909 82.784,20.9372182 L82.784,25.6568727 L81.1616,25.6568727 L81.1616,14.2807364" id="Fill-16"></path>
            <path d="M99.3304,25.6568727 L97.7093,25.6568727 L97.7093,24.1968818 C97.1165,25.3184727 95.8997,25.9029818 94.5594,25.9029818 C91.832,25.9029818 90.2109,23.8110545 90.2109,21.4755818 C90.2109,18.9234818 92.0972,17.0481818 94.5594,17.0481818 C96.2429,17.0481818 97.3193,17.9698091 97.7093,18.7696636 L97.7093,17.2930091 L99.3304,17.2930091 L99.3304,25.6568727 L99.3304,25.6568727 Z M91.832,21.5050636 C91.8463,22.7509909 92.7355,24.4109455 94.7934,24.4109455 C96.0882,24.4109455 97.0073,23.7046636 97.4285,22.7509909 C97.6157,22.3664455 97.7093,21.9357545 97.7249,21.5050636 C97.7405,21.0743727 97.6625,20.6449636 97.4753,20.2617 C97.0697,19.2926455 96.1194,18.5389364 94.7635,18.5389364 C92.9851,18.5389364 91.832,19.9220182 91.832,21.4909636 L91.832,21.5050636 L91.832,21.5050636 Z" id="Fill-17"></path>
            <path d="M101.0828,17.2930091 L102.6103,17.2930091 L102.6103,18.5850818 C103.0159,17.7237 103.9675,17.0315182 105.4794,17.0481818 C108.1925,17.0776636 108.9088,19.0157727 108.9088,20.7526364 L108.9088,25.6568727 L107.2734,25.6568727 L107.2734,21.1205182 C107.2734,19.6156636 106.6806,18.5389364 105.027,18.5543182 C103.4358,18.5697 102.7039,19.5541364 102.7039,20.9987455 L102.7039,25.6568727 L101.0828,25.6568727 L101.0828,17.2930091" id="Fill-18"></path>
            <path d="M110.6144,14.2807364 L112.2355,14.2807364 L112.2355,15.9714545 L110.6144,15.9714545 L110.6144,14.2807364 Z M110.6144,17.2930091 L112.2355,17.2930091 L112.2355,25.6555909 L110.6144,25.6555909 L110.6144,17.2930091 Z" id="Fill-19"></path>
            <path d="M117.7098,19.4759455 C117.7098,18.8299091 117.3042,18.3389727 116.4787,18.3543545 C115.6831,18.3543545 115.2463,18.8773364 115.2619,19.4298 C115.2944,20.0912182 115.9015,20.3988545 116.8063,20.6449636 C118.0998,20.9987455 119.5194,21.3679091 119.5662,23.1663 C119.5961,24.7954909 118.2233,25.9029818 116.5411,25.9029818 C115.1995,25.9029818 113.5316,25.1492727 113.4549,23.2432091 L115.0604,23.2432091 C115.1228,24.2584091 115.9483,24.5955273 116.5567,24.5955273 C117.3367,24.5955273 117.9438,24.0584455 117.9438,23.3508818 C117.9282,22.5202636 117.2899,22.2446727 115.7767,21.7524545 C114.5924,21.3973909 113.6564,20.8449273 113.6408,19.5836182 C113.6408,18.0005727 114.9512,17.0481818 116.493,17.0481818 C117.6643,17.0481818 119.1918,17.6160273 119.3153,19.4759455 L117.7098,19.4759455" id="Fill-20"></path>
            <path d="M120.8467,17.2930091 L122.3755,17.2930091 L122.3755,18.4774091 C122.733,17.7698455 123.7158,17.0481818 124.9469,17.0481818 C125.7269,17.0481818 126.5381,17.2776273 127.1296,17.9390455 C127.348,18.1543909 127.5833,18.6004636 127.6756,18.7542818 C127.816,18.5068909 127.9876,18.2159182 128.284,17.9236636 C128.83,17.3853 129.6087,17.0481818 130.5291,17.0481818 C131.3091,17.0481818 132.1827,17.2635273 132.8054,17.8929 C133.5529,18.6466091 133.7414,19.4464636 133.7414,21.0448909 L133.7414,25.6568727 L132.119,25.6568727 L132.119,21.1064182 C132.119,20.4142364 132.0267,19.7233364 131.6523,19.2465 C131.3559,18.8158091 130.9035,18.5543182 130.1391,18.5543182 C129.4228,18.5543182 128.8144,18.8465727 128.5024,19.3541727 C128.1592,19.8758727 128.1124,20.3373273 128.1124,21.0448909 L128.1124,25.6568727 L126.4757,25.6568727 L126.4757,21.0448909 C126.4913,20.3527091 126.4133,19.8451091 126.1312,19.3836545 C125.8205,18.8914364 125.3213,18.5697 124.527,18.5543182 C123.7626,18.5389364 123.2023,18.9081 122.9215,19.3682727 C122.6095,19.8143455 122.4678,20.3988545 122.4678,21.0743727 L122.4678,25.6568727 L120.8467,25.6568727 L120.8467,17.2930091" id="Fill-21"></path>
            <polyline id="Fill-22" points="139.5056 25.6568727 139.5056 14.2807364 140.2531 14.2807364 145.5844 24.9185455 150.9014 14.2807364 151.6346 14.2807364 151.6346 25.6568727 151.1666 25.6568727 151.1666 14.7421909 145.7105 25.6568727 145.4453 25.6568727 139.9723 14.7421909 139.9723 25.6568727 139.5056 25.6568727"></polyline>
        </g>
    </g>
</svg>