<?xml version="1.0" encoding="UTF-8"?>
<svg width="75px" height="80px" viewBox="0 0 75 80" version="1.1" xmlns="http://www.w3.org/2000/svg" xmlns:xlink="http://www.w3.org/1999/xlink">
    <!-- Generator: Sketch 48.2 (47327) - http://www.bohemiancoding.com/sketch -->
    <title>mechanismm</title>
    <desc>Created with Sketch.</desc>
    <defs></defs>
    <g id="4.-Work-Copy" stroke="none" stroke-width="1" fill="none" fill-rule="evenodd" transform="translate(-756.000000, -1645.000000)">
        <g id="mechanismm" transform="translate(756.000000, 1645.000000)" fill="#1B003C">
            <path d="M5.22128663,42 C1.85662962,38.5698301 0,34.0348114 0,29.2222959 C0,19.1758806 8.15729202,11 18.1841248,11 C19.8186819,11 21.4377456,11.2209697 23,11.6474927 L21.6933872,16.3649399 C20.5572022,16.0540406 19.3771191,15.8947368 18.1841248,15.8947368 C10.8686426,15.8947368 4.9191647,21.8711977 4.9191647,29.2222959 C4.9191647,32.7475342 6.27484001,36.0723581 8.74087796,38.5801077 L5.22128663,42" id="Fill-1"></path>
            <path d="M69.7787134,42 L66.2617043,38.5823939 C68.72516,36.0718667 70.0834175,32.7493369 70.0834175,29.2212367 C70.0834175,21.8720988 64.1313574,15.8925729 56.8158752,15.8925729 C55.6254631,15.8925729 54.44538,16.0493203 53.309195,16.362815 L52,11.6475464 C53.5622544,11.2184184 55.1813181,11 56.8158752,11 C66.842708,11 75,19.1739887 75,29.2212367 C75,34.0315816 73.1459526,38.5721154 69.7787134,42" id="Fill-2"></path>
            <path d="M37.7274898,21 C31.4543634,21 25.5320034,19.3313557 21,16.2770691 L23.6129554,12 C27.479011,14.6030851 32.6515443,15.9913972 38.1799276,15.9139721 C43.1364092,15.836547 47.8844643,14.5550282 51.5497189,12.2910116 L54,16.6775438 C49.6255873,19.3767428 44.0285758,20.9092257 38.2485558,20.9946603 C38.0757144,20.9973302 37.9003312,21 37.7274898,21" id="Fill-3"></path>
            <path d="M24.9978958,66 L20.1360687,65.9375446 C20.1922452,61.7605282 18.9001841,57.1088508 16.4973588,52.8443969 C13.8162042,48.0877944 10.0881225,44.3129907 6,42.2144897 L8.25983034,38 C13.182941,40.5256959 17.6208903,44.9825125 20.754011,50.5485368 C23.5577327,55.5249822 25.0642862,61.0135617 24.9978958,66" id="Fill-4"></path>
            <path d="M50.0024295,66 C49.9309141,61.0085653 51.4404011,55.5249822 54.2448286,50.5460385 C57.3787382,44.9800143 61.8203589,40.5256959 66.7421548,38 L69,42.2119914 C64.9134024,44.3079943 61.1843821,48.082798 58.5051066,52.8418986 C56.0991223,57.111349 54.8092899,61.7605282 54.8629265,65.9375446 L50.0024295,66" id="Fill-5"></path>
            <path d="M37.50256,80 C34.4459479,80 31.3458163,79.2156011 28.5016823,77.5660181 C24.3366004,75.1554899 21.315828,71.2517373 20,66.5792217 L24.6847572,65.2084781 C25.6498683,68.6301251 27.8616881,71.4836692 30.9131802,73.2557331 C37.277282,76.9457957 45.371928,74.7281098 48.9610152,68.3148019 C49.5472499,67.2645935 49.9875658,66.1518416 50.2742832,65 L55,66.216991 C54.6057636,67.8040306 53.9990492,69.3363447 53.1952165,70.7670257 C49.8877267,76.687804 43.7898625,80 37.50256,80" id="Fill-6"></path>
            <path d="M8.25983034,41 L6,36.7880086 C10.0881225,34.6895075 13.8162042,30.9147038 16.4973588,26.1581014 C18.9001841,21.8911492 20.1922452,17.24197 20.1360687,13.0649536 L24.9978958,13 C25.0642862,17.9864383 23.5577327,23.4775161 20.754011,28.4539615 C17.6208903,34.0199857 13.182941,38.4768023 8.25983034,41" id="Fill-7"></path>
            <path d="M66.7421548,42 C61.8203589,39.4743041 57.3787382,35.0199857 54.2448286,29.4564597 C51.4404011,24.4775161 49.9309141,18.9889365 50.0024295,14 L54.8629265,14.0649536 C54.8092899,18.2394718 56.0991223,22.8911492 58.5051066,27.1605996 C61.1843821,31.917202 64.9134024,35.6920057 69,37.7880086 L66.7421548,42" id="Fill-8"></path>
            <path d="M50.2742832,15 C49.9875658,13.8482976 49.5472499,12.7304689 48.9610152,11.6882043 C45.374488,5.27567144 37.277282,3.05564787 30.9131802,6.7452645 C27.8616881,8.51190297 25.6498683,11.3729192 24.6847572,14.7915471 L20,13.4235748 C21.315828,8.75162382 24.3366004,4.84834296 28.5016823,2.43289479 C37.1979228,-2.60906014 48.2775015,0.43956377 53.1952165,9.23106553 C53.9990492,10.6641793 54.6057636,12.1963083 55,13.7779448 L50.2742832,15" id="Fill-9"></path>
            <path d="M18.1841248,69 C8.15729202,69 0,60.8304733 0,50.7798226 C0,45.9665092 1.85662962,41.4281688 5.22128663,38 L8.74087796,41.4204593 C6.27484001,43.9286247 4.9191647,47.2539998 4.9191647,50.7798226 C4.9191647,58.1295698 10.8686426,64.1121612 18.1841248,64.1121612 C19.3745369,64.1121612 20.5572022,63.952831 21.6933872,63.6418801 L23,68.3601094 C21.4377456,68.7867031 19.8186819,69 18.1841248,69" id="Fill-10"></path>
            <path d="M56.8158752,69 C55.1839003,69 53.5622544,68.7790303 52,68.3525073 L53.309195,63.6350601 C54.44538,63.9459594 55.6254631,64.1052632 56.8158752,64.1052632 C64.1313574,64.1052632 70.0834175,58.1236635 70.0834175,50.7777041 C70.0834175,47.2498964 68.72516,43.9276419 66.2617043,41.4173228 L69.7787134,38 C73.1459526,41.4301699 75,45.9651886 75,50.7777041 C75,60.8241194 66.842708,69 56.8158752,69" id="Fill-11"></path>
            <path d="M23.6129554,69 L21,64.7196824 C25.6565509,61.5848771 31.7873373,59.9053264 38.2485558,60.0041235 C44.0285758,60.0895696 49.6255873,61.6222598 54,64.324494 L51.5497189,68.7089491 C47.8844643,66.4446264 43.1364092,65.1629342 38.1799276,65.0908391 C32.6566279,65.0053929 27.4815528,66.3938927 23.6129554,69" id="Fill-12"></path>
        </g>
    </g>
</svg>