<?xml version="1.0" encoding="UTF-8"?>
<svg width="110px" height="87px" viewBox="0 0 110 87" version="1.1" xmlns="http://www.w3.org/2000/svg" xmlns:xlink="http://www.w3.org/1999/xlink">
    <!-- Generator: Sketch 47.1 (45422) - http://www.bohemiancoding.com/sketch -->
    <title>mobile-logo-yellow</title>
    <desc>Created with Sketch.</desc>
    <defs>
        <polygon id="path-1" points="0.384 10 9.771 10 9.771 0.4642 0.384 0.4642"></polygon>
        <polygon id="path-3" points="0 13 109.92 13 109.92 0.484 0 0.484"></polygon>
    </defs>
    <g id="v2---Mobile" stroke="none" stroke-width="1" fill="none" fill-rule="evenodd">
        <g id="2-Approach" transform="translate(-105.000000, -120.000000)">
            <g id="mobile-logo-yellow" transform="translate(105.000000, 121.000000)">
                <path d="M42.8216291,9.75314071 C41.7759564,9.45124894 40.6732655,9.28454776 39.5329018,9.27133365 C32.6601745,9.19408188 27.0255564,14.754176 26.9481745,21.6905713 C26.9094836,25.1242089 28.2402473,28.2518889 30.4273018,30.5440301 M42.6312291,9.59660424 C42.6057745,13.1877948 41.5173382,17.2709572 39.3262109,21.1691219 C36.8968291,25.4911548 33.5745018,28.7621572 30.1747927,30.5501289 M66.7651927,9.86901835 C66.4872291,8.809856 66.06672,7.77000659 65.4945018,6.77691482 C62.0449018,0.792952471 54.4166836,-1.23795576 48.4562473,2.243456 C45.5055564,3.96739012 43.5170473,6.71795953 42.6770473,9.78160188 M66.8018473,9.62404894 C63.7228655,11.4384489 59.6806836,12.5860442 55.2322473,12.6846419 C50.3001745,12.7934042 45.8089745,11.5939689 42.5436655,9.56611012 M66.5890473,9.80701365 C67.63472,9.50512188 68.7374109,9.33740424 69.8787927,9.32419012 C76.7505018,9.24693835 82.38512,14.8070325 82.4625018,21.7434278 C82.5011927,25.1770654 81.1704291,28.3047454 78.9843927,30.5968866 M66.7794473,9.64844424 C66.8049018,13.2406513 67.8933382,17.3238136 70.0844655,21.2219784 C72.5138473,25.5440113 75.8361745,28.8150136 79.2358836,30.6029854 M42.8216291,51.1915972 C41.7759564,51.4924725 40.6732655,51.6612066 39.5329018,51.6734042 C32.6601745,51.750656 27.0255564,46.1915784 26.9481745,39.2541666 C26.9094836,35.8215454 28.2402473,32.6928489 30.4273018,30.4007078 M42.6312291,51.3491501 C42.6057745,47.7579595 41.5173382,43.6737807 39.3262109,39.775616 C36.8968291,35.4535831 33.5745018,32.1825807 30.1747927,30.3956254 M66.7651927,51.0757195 C66.4872291,52.1348819 66.06672,53.1747313 65.4945018,54.1678231 C62.0449018,60.1528019 54.4166836,62.1816772 48.4562473,58.7002654 C45.5055564,56.9783642 43.5170473,54.2277948 42.6770473,51.163136 M66.8018473,51.3217054 C63.7228655,49.5062889 59.6806836,48.3586936 55.2322473,48.2611125 C50.3001745,48.1513336 45.8089745,49.3517854 42.5436655,51.3786278 M66.5890473,51.1387407 C67.63472,51.4406325 68.7374109,51.6083501 69.8787927,51.6205478 C76.7505018,51.698816 82.38512,46.1387219 82.4625018,39.2013101 C82.5011927,35.7676725 81.1704291,32.6410089 78.9843927,30.3488678 M66.7794473,51.2952772 C66.8049018,47.7051031 67.8933382,43.6209242 70.0844655,39.7227595 C72.5138473,35.4007266 75.8361745,32.1307407 79.2358836,30.3417525" id="Stroke-18" stroke="#FCFC00" stroke-width="2.227"></path>
                <g id="Page-1" transform="translate(0.000000, 72.000000)">
                    <polygon id="Fill-1" fill="#FCFC00" points="10.2483 1.0002 6.4903 10.4862 2.6823 1.0002 0.0003 1.0002 0.0003 13.2512 1.8213 13.2512 1.7713 2.9202 5.8273 13.2512 7.1023 13.2512 11.1593 2.9202 11.1083 13.2512 12.9133 13.2512 12.9133 1.0002"></polygon>
                    <g id="Group-18" transform="translate(0.000000, 0.515600)">
                        <path d="M21.918,7.4375 C21.835,6.2455 20.644,4.9045 18.938,4.9375 C17.183,4.9375 16.041,6.2115 15.958,7.4375 L21.918,7.4375 Z M15.925,8.7785 C16.008,10.5995 17.597,11.5265 18.955,11.5265 C20.163,11.5265 21.057,10.9475 21.554,10.0035 L23.342,10.0035 C22.912,10.9975 22.282,11.7425 21.521,12.2385 C20.759,12.7515 19.865,12.9995 18.955,12.9995 C16.008,12.9995 14.187,10.6325 14.187,8.2495 C14.187,5.6665 16.207,3.4635 18.938,3.4635 C20.23,3.4635 21.405,3.9445 22.266,4.7885 C23.325,5.8645 23.772,7.2715 23.624,8.7785 L15.925,8.7785 Z" id="Fill-2" fill="#FCFC00"></path>
                        <g id="Group-6" transform="translate(24.000000, 3.000000)">
                            <mask id="mask-2" fill="white">
                                <use xlink:href="#path-1"></use>
                            </mask>
                            <g id="Clip-5"></g>
                            <path d="M9.771,6.5732 C9.225,8.5262 7.453,10.0002 5.202,10.0002 C2.255,10.0002 0.384,7.7322 0.384,5.2322 C0.384,2.5662 2.42,0.4642 5.119,0.4642 C7.271,0.4642 9.209,1.7882 9.771,3.9572 L8,3.9572 C7.536,2.7492 6.41,2.0702 5.185,2.0702 C4.274,2.0532 3.612,2.3512 2.983,2.9472 C2.454,3.4772 2.106,4.3212 2.106,5.2322 C2.106,7.0872 3.463,8.3942 5.185,8.3942 C6.692,8.3782 7.635,7.4672 8,6.5732 L9.771,6.5732 Z" id="Fill-4" fill="#FCFC00" mask="url(#mask-2)"></path>
                        </g>
                        <path d="M34.896,0.4844 L36.618,0.4844 L36.618,3.5804 L36.618,4.9874 C37.147,3.9274 38.373,3.4474 39.548,3.4634 C40.955,3.4634 41.849,3.9274 42.429,4.7224 C42.992,5.5004 43.207,6.5764 43.207,7.8184 L43.207,12.7354 L41.468,12.7354 L41.468,7.9014 C41.468,7.0894 41.319,6.3784 40.955,5.8804 C40.558,5.3844 39.962,5.0874 39.068,5.0874 C38.157,5.0874 37.528,5.4344 37.164,5.9144 C36.783,6.3944 36.618,7.0404 36.618,7.6524 L36.618,12.7354 L34.896,12.7354 L34.896,0.4844 Z" id="Fill-7" fill="#FCFC00"></path>
                        <path d="M46.2192,8.2656 C46.2362,9.6066 47.1792,11.3946 49.3652,11.3946 C50.7392,11.3946 51.7162,10.6326 52.1622,9.6066 C52.3612,9.1926 52.4602,8.7286 52.4772,8.2656 C52.4932,7.8016 52.4112,7.3376 52.2122,6.9236 C51.7812,5.8806 50.7722,5.0706 49.3312,5.0706 C47.4442,5.0706 46.2192,6.5596 46.2192,8.2486 L46.2192,8.2656 Z M54.1822,12.7356 L52.4602,12.7356 L52.4602,11.1616 C51.8312,12.3706 50.5402,12.9996 49.1162,12.9996 C46.2192,12.9996 44.4972,10.7486 44.4972,8.2326 C44.4972,5.4846 46.5002,3.4636 49.1162,3.4636 C50.9042,3.4636 52.0472,4.4566 52.4602,5.3186 L52.4602,3.7296 L54.1822,3.7296 L54.1822,12.7356 Z" id="Fill-9" fill="#FCFC00"></path>
                        <path d="M56.0356,3.7295 L57.6576,3.7295 L57.6576,5.1205 C58.0886,4.1925 59.0986,3.4475 60.7036,3.4635 C63.5846,3.4975 64.3466,5.5835 64.3466,7.4545 L64.3466,12.7355 L62.6086,12.7355 L62.6086,7.8515 C62.6086,6.2285 61.9786,5.0705 60.2236,5.0865 C58.5356,5.1035 57.7576,6.1635 57.7576,7.7185 L57.7576,12.7355 L56.0356,12.7355 L56.0356,3.7295 Z" id="Fill-11" fill="#FCFC00"></path>
                        <mask id="mask-4" fill="white">
                            <use xlink:href="#path-3"></use>
                        </mask>
                        <g id="Clip-14"></g>
                        <path d="M66.15,12.735 L67.872,12.735 L67.872,3.729 L66.15,3.729 L66.15,12.735 Z M66.15,2.305 L67.872,2.305 L67.872,0.484 L66.15,0.484 L66.15,2.305 Z" id="Fill-13" fill="#FCFC00" mask="url(#mask-4)"></path>
                        <path d="M73.6826,6.0801 C73.6826,5.3851 73.2516,4.8541 72.3736,4.8711 C71.5306,4.8711 71.0666,5.4341 71.0826,6.0301 C71.1166,6.7421 71.7616,7.0731 72.7216,7.3381 C74.0956,7.7191 75.6026,8.1161 75.6526,10.0541 C75.6856,11.8091 74.2286,13.0001 72.4406,13.0001 C71.0166,13.0001 69.2456,12.1891 69.1616,10.1361 L70.8686,10.1361 C70.9336,11.2281 71.8116,11.5931 72.4566,11.5931 C73.2856,11.5931 73.9306,11.0141 73.9306,10.2521 C73.9136,9.3581 73.2356,9.0591 71.6286,8.5301 C70.3706,8.1491 69.3776,7.5541 69.3616,6.1961 C69.3616,4.4901 70.7516,3.4641 72.3906,3.4641 C73.6326,3.4641 75.2546,4.0771 75.3876,6.0801 L73.6826,6.0801 Z" id="Fill-15" fill="#FCFC00" mask="url(#mask-4)"></path>
                        <path d="M77.0088,3.7295 L78.6308,3.7295 L78.6308,5.0035 C79.0118,4.2425 80.0548,3.4635 81.3628,3.4635 C82.1908,3.4635 83.0518,3.7125 83.6808,4.4245 C83.9118,4.6565 84.1608,5.1365 84.2598,5.3015 C84.4088,5.0375 84.5908,4.7225 84.9048,4.4085 C85.4858,3.8285 86.3128,3.4635 87.2898,3.4635 C88.1168,3.4635 89.0448,3.6965 89.7068,4.3755 C90.5018,5.1855 90.6998,6.0465 90.6998,7.7685 L90.6998,12.7355 L88.9788,12.7355 L88.9788,7.8345 C88.9788,7.0895 88.8788,6.3445 88.4818,5.8325 C88.1668,5.3685 87.6878,5.0865 86.8758,5.0865 C86.1138,5.0865 85.4688,5.4015 85.1378,5.9475 C84.7738,6.5105 84.7238,7.0065 84.7238,7.7685 L84.7238,12.7355 L82.9858,12.7355 L82.9858,7.7685 C83.0018,7.0235 82.9188,6.4775 82.6208,5.9805 C82.2898,5.4515 81.7598,5.1035 80.9158,5.0865 C80.1048,5.0705 79.5088,5.4675 79.2108,5.9635 C78.8798,6.4445 78.7308,7.0735 78.7308,7.8015 L78.7308,12.7355 L77.0088,12.7355 L77.0088,3.7295 Z" id="Fill-16" fill="#FCFC00" mask="url(#mask-4)"></path>
                        <polygon id="Fill-17" fill="#FCFC00" mask="url(#mask-4)" points="97.0068 12.7354 97.0068 0.4844 99.6888 0.4844 103.4958 9.9704 107.2548 0.4844 109.9198 0.4844 109.9198 12.7354 108.1148 12.7354 108.1648 2.4044 104.1098 12.7354 102.8338 12.7354 98.7778 2.4044 98.8278 12.7354"></polygon>
                    </g>
                </g>
            </g>
        </g>
    </g>
</svg>