<?xml version="1.0" encoding="UTF-8"?>
<svg width="120px" height="32px" viewBox="0 0 120 32" version="1.1" xmlns="http://www.w3.org/2000/svg" xmlns:xlink="http://www.w3.org/1999/xlink">
    <title>paypal-logo-blue-no-border</title>
    <g id="Client-logo-sheet" stroke="none" stroke-width="1" fill="none" fill-rule="evenodd">
        <g id="paypal-purple" transform="translate(-30.000000, -24.000000)" fill="#1B003C" fill-rule="nonzero">
            <g id="paypal-logo-blue-no-border" transform="translate(30.000000, 24.000000)">
                <path d="M14.0464998,0 L4.94192424,0 C4.31888851,0 3.78904188,0.465336632 3.69185896,1.097647 L0.00955803051,25.0994368 C-0.0636619807,25.5729852 0.293119165,26 0.760395964,26 L5.10700209,26 C5.73003782,26 6.25988444,25.5346634 6.35706737,24.9009844 L7.35019698,18.4273306 C7.44604863,17.7936516 7.97722653,17.328315 8.59893099,17.328315 L11.4811369,17.328315 C17.4785214,17.328315 20.9398311,14.344686 21.8437654,8.4321735 C22.2511349,5.84544928 21.8610719,3.81302311 20.6828954,2.38964047 C19.3888981,0.826656841 17.0937836,0 14.0464998,0 Z M15.0968742,8.76612097 C14.5989781,12.1247565 12.1028413,12.1247565 9.68924352,12.1247565 L8.31536985,12.1247565 L9.27921145,5.85229247 C9.33645619,5.47317998 9.65596169,5.193978 10.0287181,5.193978 L10.6584102,5.193978 C12.3025323,5.193978 13.8534652,5.193978 14.6548916,6.15749855 C15.1328185,6.73232616 15.2792586,7.58635574 15.0968742,8.76612097 Z" id="Shape"></path>
                <path d="M42.2212299,8.41737559 L37.7344865,8.41737559 C37.3522571,8.41737559 37.0220876,8.69381917 36.9631777,9.06918618 L36.764528,10.310472 L36.4507984,9.86057367 C35.4794699,8.46615975 33.3135031,8 31.1516462,8 C26.1936236,8 21.9589598,11.7143718 21.134221,16.9247911 C20.7054117,19.5239027 21.3150608,22.0091847 22.8056186,23.7423775 C24.1728765,25.3359934 26.1292337,26 28.4568602,26 C32.4517743,26 34.6670611,23.4591583 34.6670611,23.4591583 L34.4670414,24.6923135 C34.3916915,25.1638937 34.7588509,25.5866898 35.2369802,25.5866898 L39.2784743,25.5866898 C39.9210033,25.5866898 40.4635225,25.1259505 40.5649024,24.498532 L42.9897988,9.30904163 C43.0665187,8.84152676 42.7007292,8.41737559 42.2212299,8.41737559 Z M35.9671891,17.0548822 C35.5342698,19.5903034 33.4998228,21.2923285 30.9050466,21.2923285 C29.6021785,21.2923285 28.5609801,20.8790183 27.8924211,20.0957615 C27.229342,19.3179252 26.9772624,18.2107958 27.1882421,16.9776406 C27.5923915,14.4639012 29.6610884,12.7063163 32.2161347,12.7063163 C33.4902328,12.7063163 34.5259513,13.1250471 35.2082103,13.9150794 C35.8918393,14.7132425 36.1630989,15.8271475 35.9671891,17.0548822 Z" id="Shape"></path>
                <path d="M65.2427993,9 L60.8768048,9 C60.4602377,9 60.068877,9.20978776 59.8327338,9.56077881 L53.8110842,18.5520669 L51.2586158,9.91176986 C51.0980915,9.37116295 50.6059056,9 50.048714,9 L45.7583383,9 C45.2369661,9 44.8747916,9.51640063 45.0406224,10.0139742 L49.8497169,24.3198854 L45.3285048,30.789686 C44.9729634,31.2993627 45.3311581,32 45.9453955,32 L50.3060834,32 C50.7199972,32 51.1073781,31.7955914 51.3421945,31.4513243 L65.86367,10.20359 C66.2112515,9.69525814 65.8543835,9 65.2427993,9 Z" id="Shape"></path>
                <path d="M81.0471276,0 L71.940815,0 C71.3190828,0 70.7892126,0.465336632 70.6920253,1.097647 L67.0095603,25.0994368 C66.936337,25.5729852 67.293134,26 67.757769,26 L72.4307452,26 C72.8647595,26 73.2362012,25.6742644 73.3040992,25.2308259 L74.349195,18.4273306 C74.4450509,17.7936516 74.9762525,17.328315 75.5979847,17.328315 L78.4789877,17.328315 C84.4779708,17.328315 87.9381034,14.344686 88.8434093,8.4321735 C89.2521283,5.84544928 88.8593853,3.81302311 87.6811562,2.38964047 C86.3884326,0.826656841 84.0945471,0 81.0471276,0 Z M82.0975487,8.76612097 C81.6009618,12.1247565 79.1047138,12.1247565 76.6896771,12.1247565 L75.3170736,12.1247565 L76.2822894,5.85229247 C76.3395367,5.47317998 76.6563938,5.193978 77.0304982,5.193978 L77.6602183,5.193978 C79.3030823,5.193978 80.8554158,5.193978 81.6568778,6.15749855 C82.1348261,6.73232616 82.2799413,7.58635574 82.0975487,8.76612097 Z" id="Shape"></path>
                <path d="M108.216405,8.41737559 L103.732182,8.41737559 C103.347194,8.41737559 103.019749,8.69381917 102.962206,9.06918618 L102.763546,10.310472 L102.448432,9.86057367 C101.477055,8.46615975 99.3123527,8 97.1503901,8 C92.1921248,8 87.9586239,11.7143718 87.1338448,16.9247911 C86.7063845,19.5239027 87.3133233,22.0091847 88.803954,23.7423775 C90.174019,25.3359934 92.1277317,26 94.4554722,26 C98.4505818,26 100.665977,23.4591583 100.665977,23.4591583 L100.465947,24.6923135 C100.390594,25.1638937 100.757771,25.5866898 101.238664,25.5866898 L105.278986,25.5866898 C105.918806,25.5866898 106.464092,25.1259505 106.564107,24.498532 L108.990492,9.30904163 C109.064475,8.84152676 108.697298,8.41737559 108.216405,8.41737559 Z M101.962058,17.0548822 C101.531858,19.5903034 99.4945713,21.2923285 96.8996682,21.2923285 C95.5994765,21.2923285 94.555487,20.8790183 93.8868952,20.0957615 C93.2237838,19.3179252 92.9744319,18.2107958 93.1826818,16.9776406 C93.5895911,14.4639012 95.6556492,12.7063163 98.2108204,12.7063163 C99.4849809,12.7063163 100.52075,13.1250471 101.203042,13.9150794 C101.889445,14.7132425 102.160718,15.8271475 101.962058,17.0548822 Z" id="Shape"></path>
                <path d="M113.960644,0.659648384 L110.010106,25.0994842 C109.9327,25.5730077 110.30988,26 110.801058,26 L114.772707,26 C115.432772,26 115.992912,25.5346879 116.094244,24.9010422 L119.989894,0.901884409 C120.0673,0.42836088 119.69012,0 119.198942,0 L114.751596,0 C114.358935,0.00136856511 114.021162,0.280555848 113.960644,0.659648384 Z" id="Shape"></path>
            </g>
        </g>
    </g>
</svg>