<?xml version="1.0" encoding="UTF-8"?>
<svg width="297px" height="277px" viewBox="0 0 297 277" version="1.1" xmlns="http://www.w3.org/2000/svg" xmlns:xlink="http://www.w3.org/1999/xlink">
    <!-- Generator: Sketch 47.1 (45422) - http://www.bohemiancoding.com/sketch -->
    <title>play-to-win</title>
    <desc>Created with Sketch.</desc>
    <defs></defs>
    <g id="v2---alt" stroke="none" stroke-width="1" fill="none" fill-rule="evenodd">
        <g id="2.-Approach-Copy" transform="translate(-903.000000, -1403.000000)" fill="#1B003C">
            <g id="play-to-win" transform="translate(903.000000, 1403.000000)">
                <path d="M173.136199,69.6534286 L173.136199,61.6255357 L178.827728,61.6255357 C180.376626,61.6255357 181.788659,60.8416786 182.599827,59.5297143 C183.404319,58.2376786 183.504463,56.6433929 182.860202,55.3779286 L174.691772,36.9240714 C174.53488,30.8425357 173.480027,25.5249286 171.550582,21.1140714 C171.263502,20.4298571 170.585859,18.9385357 170.005023,18.0483929 C168.459464,15.4145 166.550047,13.1492857 164.290126,11.2461071 C156.702533,4.05853571 146.865032,0.13925 136.520135,0.13925 C114.354881,0.13925 96.3255837,18.0782857 96.3255837,40.1325714 C96.3255837,52.4916071 101.626551,65.774 109.521253,73.1841071 L110.045341,73.6756786 L110.045341,106.916536 L157.597154,106.916536 L157.600492,86.8683929 L158.965792,86.6159643 C167.177618,85.1047143 173.136199,77.9669643 173.136199,69.6534286 L173.136199,69.6534286 Z M155.794558,83.3177857 L153.991962,83.3177857 L153.991962,103.329393 L113.653871,103.329393 L113.653871,72.005 L113.012948,71.47025 C105.435369,65.1429286 99.9341137,51.9601786 99.9341137,40.12925 C99.9341137,20.0545357 116.347751,3.72639286 136.520135,3.72639286 C145.973749,3.72639286 154.950009,7.32017857 161.796535,13.8467857 C163.882873,15.5938571 165.568634,17.5933571 166.890538,19.8685357 C167.341187,20.5394643 167.932037,21.8148929 168.235808,22.529 C170.051757,26.69075 171.019818,31.7924643 171.099933,37.6780357 L171.106609,38.0500357 L180.109574,58.0350714 L169.527669,58.0350714 L169.527669,69.6534286 C169.527669,77.1864286 163.368799,83.3177857 155.794558,83.3177857 L155.794558,83.3177857 Z" id="Fill-1"></path>
                <path d="M136.139586,170.080143 C125.784674,170.080143 115.950512,174.00275 108.443034,181.120571 C106.113012,183.090179 104.200257,185.355393 102.694756,187.922857 C102.140625,188.776464 101.523069,190.081786 101.115815,191.041679 C99.1796939,195.465821 98.1248415,200.78675 97.9679488,206.864964 L97.8210707,207.499357 L89.8295621,225.24575 C89.1585958,226.590929 89.2554019,228.181893 90.0565556,229.473929 C90.871062,230.782571 92.2797573,231.566429 93.8319927,231.566429 L99.5268605,231.566429 L99.5268605,239.600964 C99.5268605,247.911179 105.485441,255.048929 113.697267,256.5635 L115.062567,256.812607 L115.062567,276.857429 L162.61438,276.857429 L162.61438,243.616571 L163.138468,243.128321 C171.029832,235.718214 176.334137,222.435821 176.334137,210.073464 C176.334137,188.019179 158.30484,170.080143 136.139586,170.080143 L136.139586,170.080143 Z M159.650111,241.414464 L159.009188,241.952536 L159.009188,273.276929 L118.671097,273.276929 L118.671097,253.265321 L116.868501,253.265321 C109.29426,253.265321 103.13539,247.137286 103.13539,239.604286 L103.13539,227.982607 L92.5534848,227.982607 L101.563126,207.628893 C101.64658,201.730036 102.611302,196.628321 104.433927,192.46325 C104.727684,191.76575 105.318534,190.490321 105.709097,189.912393 C107.101101,187.537571 108.783524,185.538071 110.779732,183.874036 C117.71305,177.267714 126.68931,173.673929 136.142925,173.673929 C156.315308,173.673929 172.728945,190.005393 172.728945,210.076786 C172.728945,221.907714 167.231028,235.090464 159.650111,241.414464 L159.650111,241.414464 Z" id="Fill-2"></path>
                <path d="M78.5166036,123.546929 C78.359711,117.468714 77.3048586,112.147786 75.3787515,107.736929 C75.1450816,107.185571 74.4373958,105.604571 73.8298542,104.667929 C72.2842951,102.040679 70.3748787,99.7721429 68.1149576,97.8656429 C60.527364,90.6847143 50.6898637,86.7621071 40.344966,86.7621071 C18.1797125,86.7621071 0.150415147,104.701143 0.150415147,126.755429 C0.150415147,139.114464 5.4513824,152.400179 13.3460849,159.806964 L13.870173,160.298536 L13.870173,193.539393 L61.4219857,193.539393 L61.4219857,173.49125 L62.7872852,173.242143 C70.999111,171.72425 76.957692,164.593143 76.957692,156.276286 L76.957692,148.248393 L82.6525598,148.248393 C84.2014571,148.248393 85.6134905,147.464536 86.4279968,146.152571 C87.2291506,144.860536 87.3292948,143.26625 86.6883718,141.997464 L78.5166036,123.546929 L78.5166036,123.546929 Z M73.349162,144.654607 L73.349162,156.272964 C73.349162,163.809286 67.1869545,169.937321 59.6160516,169.937321 L57.8134557,169.937321 L57.8134557,189.948929 L17.4753648,189.948929 L17.4753648,158.627857 L16.8311037,158.089786 C9.25686268,151.759143 3.75560698,138.579714 3.75560698,126.748786 C3.75560698,106.677393 20.1692443,90.3459286 40.3416278,90.3459286 C49.795242,90.3459286 58.771502,93.9397143 65.6180284,100.466321 C67.69769,102.20675 69.3801128,104.202929 70.7120309,106.481429 C71.1593418,107.159 71.7535308,108.431107 72.0573016,109.148536 C73.8732501,113.306964 74.8379727,118.408679 74.9214262,124.297571 L74.9247644,124.66625 L83.9310677,144.654607 L73.349162,144.654607 L73.349162,144.654607 Z" id="Fill-3"></path>
                <path d="M32.5470696,216.928893 L32.7173147,218.416893 C34.2027873,231.513286 45.7193723,241.773179 58.9350709,241.773179 L83.0397841,241.773179 L83.0397841,233.001286 L58.9384091,233.001286 C50.5763669,233.001286 43.3259255,227.045964 41.6935748,218.842036 L41.3030123,216.87575 L51.4709886,216.812643 L36.9600914,202.55375 L22.6227776,216.992 L32.5470696,216.928893" id="Fill-4"></path>
                <path d="M238.403523,215.507321 L238.403523,201.869536 L229.587494,201.869536 L229.587494,215.504 C229.587494,225.15275 221.699468,233.001286 212.00217,233.001286 L197.170811,233.001286 L197.170811,223.033679 L182.750044,237.388893 L197.170811,251.740786 L197.170811,241.773179 L212.00217,241.773179 C226.559801,241.773179 238.403523,229.98875 238.403523,215.507321" id="Fill-5"></path>
                <path d="M248.421283,63.9771071 L238.4102,63.9771071 L238.356789,62.3695357 C237.899464,48.1106429 226.322793,36.9406786 212.00217,36.9406786 L190.22414,36.9406786 L190.22414,45.7125714 L212.00217,45.7125714 C221.315582,45.7125714 229.02001,52.9665714 229.54076,62.2233929 L229.640904,63.9771071 L219.569734,63.9771071 L233.99384,78.3256786 L248.421283,63.9771071" id="Fill-6"></path>
                <path d="M58.9384091,45.7125714 L67.9280217,45.7125714 L67.9280217,55.6801786 L82.348789,41.3282857 L67.9280217,26.9730714 L67.9280217,36.9406786 L58.9384091,36.9406786 C44.380778,36.9406786 32.5370551,48.7251071 32.5370551,63.2098571 L32.5370551,79.0132143 L41.3530844,79.0132143 L41.3530844,63.2098571 C41.3530844,53.5611071 49.2411107,45.7125714 58.9384091,45.7125714" id="Fill-7"></path>
                <path d="M207.35214,172.943214 L208.717439,173.195643 L208.717439,193.243786 L256.269252,193.243786 L256.269252,171.020107 L252.660722,171.020107 L252.660722,189.656643 L212.322631,189.656643 L212.322631,169.645036 L210.520035,169.645036 C202.945794,169.645036 196.786925,163.517 196.786925,155.980679 L196.786925,144.362321 L186.201681,144.362321 L195.21466,124.005286 C195.298114,118.119714 196.262837,113.018 198.082123,108.842964 C198.345836,108.231821 198.956716,106.896607 199.360631,106.292107 C200.752636,103.913964 202.435059,101.914464 204.42459,100.25375 C211.361247,93.6474286 220.337507,90.0536429 229.791121,90.0536429 C239.745456,90.0536429 249.349286,94.1821786 256.259237,101.402964 L261.089527,101.402964 C253.475228,91.9966786 241.998701,86.4665 229.794459,86.4665 C219.446223,86.4665 209.612061,90.3891071 202.101245,97.5069286 C199.774561,99.4698929 197.865144,101.738429 196.349628,104.309214 C195.698691,105.318929 194.994343,106.889964 194.777364,107.418071 C192.841243,111.8555 191.783052,117.173107 191.626159,123.251321 L191.479281,123.889036 L183.487773,141.632107 C182.813468,142.970643 182.913612,144.564929 183.718104,145.856964 C184.529272,147.168929 185.937968,147.952786 187.486865,147.952786 L193.181733,147.952786 L193.181733,155.980679 C193.181733,164.297536 199.140314,171.431964 207.35214,172.943214" id="Fill-8"></path>
                <polyline id="Fill-9" points="295.906333 106.88 296.276867 101.7185 256.002201 139.376857 248.574838 121.03925 240.8871 127.369893 251.746071 152.871821 295.906333 106.88"></polyline>
                <polyline id="Fill-10" points="227.594624 165.217571 285.831825 165.217571 285.831825 124.15475 281.899495 128.250071 281.899495 161.304929 231.526954 161.304929 231.526954 111.184571 279.272379 111.184571 283.458407 107.271929 227.594624 107.271929 227.594624 165.217571"></polyline>
            </g>
        </g>
    </g>
</svg>