<?xml version="1.0" encoding="UTF-8"?>
<svg width="84px" height="79px" viewBox="0 0 84 79" version="1.1" xmlns="http://www.w3.org/2000/svg" xmlns:xlink="http://www.w3.org/1999/xlink">
    <!-- Generator: Sketch 47.1 (45422) - http://www.bohemiancoding.com/sketch -->
    <title>prototype-icon</title>
    <desc>Created with Sketch.</desc>
    <defs></defs>
    <g id="v2---Mobile" stroke="none" stroke-width="1" fill="none" fill-rule="evenodd">
        <g id="2-Approach" transform="translate(-118.000000, -984.000000)" fill="#FCFC00">
            <g id="prototype-icon" transform="translate(118.000000, 984.000000)">
                <path d="M46.0994644,69.7084578 L46.1080553,69.6951325 L50.3471916,63.2561566 L62.9662825,66.2905181 C63.0712825,66.3162169 63.1552825,66.3124096 63.2669644,66.276241 L63.3796007,66.2305542 L82.4752825,55.0439639 C82.6461462,54.9440241 82.7549644,54.7584217 82.7587825,54.559494 L83.4594189,7.57543373 L83.4460553,7.48501205 L83.4470098,7.47263855 C83.4317371,7.40220482 83.4174189,7.35937349 83.4002371,7.32225301 C83.3716007,7.26133735 83.3439189,7.22136145 83.2942825,7.17091566 C83.2799644,7.16139759 83.2599189,7.14426506 83.240828,7.12618072 L83.1377371,7.05860241 C83.0718734,7.031 83.0289189,7.0176747 82.9831007,7.01006024 L82.8828734,6.98245783 L42.0063734,1.90456627 C41.933828,1.896 41.8584189,1.89980723 41.7858734,1.92074699 L38.9737825,2.68504819 L35.6939644,0.137060241 C35.5832371,0.0466385542 35.4524644,0 35.3197825,0 C35.2291007,0 35.1374644,0.0218915663 35.0515553,0.0675783133 L22.4420098,5.66039759 C22.3322371,5.71845783 22.2501462,5.79650602 22.2005098,5.88883133 L21.332828,7.48501205 L17.9317825,8.41112048 C17.8831007,8.4263494 17.8296462,8.45204819 17.7723734,8.48821687 L17.7256007,8.52153012 C17.6626007,8.56912048 17.6396916,8.5976747 17.6148734,8.63193976 C17.5919644,8.6643012 17.5671462,8.7156988 17.5442371,8.7823253 C17.5098734,8.90415663 17.5079644,8.94793976 17.5089189,8.97839759 L17.6673734,14.2266627 L0.0693734484,46.5995301 C-0.0537629152,46.8260602 -0.0098538243,47.1077952 0.176282539,47.2857831 L32.5897825,78.2185663 C32.7196007,78.343253 32.8914189,78.3956024 33.0689644,78.3746627 C33.1252825,78.3660964 33.1844644,78.3451566 33.2512825,78.308988 L33.3085553,78.2785301 L45.5086007,70.1662771 L45.5019189,70.1510482 L45.8703734,69.9235663 C45.9734644,69.8693133 46.049828,69.7969759 46.0994644,69.7084578 L46.0994644,69.7084578 Z M62.5262371,65.0084337 L50.9227825,62.2196386 L59.3180098,47.6446145 L62.5262371,48.2851807 L62.5262371,65.0084337 L62.5262371,65.0084337 Z M47.7241007,25.6569157 L57.9596916,19.6966988 L68.6410553,28.4304819 L58.1229189,34.0670843 L47.7241007,25.6569157 L47.7241007,25.6569157 Z M57.3506916,34.9170482 L50.0694189,47.3942892 L39.760328,39.0345663 L46.8831462,26.4526265 L57.3506916,34.9170482 L57.3506916,34.9170482 Z M54.2131007,15.1537229 L62.5271916,16.4443735 L62.5271916,21.9515301 L54.2131007,15.1537229 L54.2131007,15.1537229 Z M52.2629644,13.6926988 L61.2796007,10.1300843 L71.8655098,11.6168072 L63.028328,15.3621687 L52.2629644,13.6926988 L52.2629644,13.6926988 Z M51.3571007,12.817988 L45.3301007,7.89048193 L58.9791462,9.80646988 L51.3571007,12.817988 L51.3571007,12.817988 Z M57.011828,18.9209759 L46.7686007,24.8859518 L35.8342825,16.0436627 L46.4994189,10.3280602 L57.011828,18.9209759 L57.011828,18.9209759 Z M45.976328,25.7197349 L38.8563734,38.3007229 L27.8170553,29.3461205 L34.9666007,16.8155783 L45.976328,25.7197349 L45.976328,25.7197349 Z M38.2836462,39.3115422 L30.8515553,52.4426747 L20.0432371,42.9674337 L27.2405098,30.355988 L38.2836462,39.3115422 L38.2836462,39.3115422 Z M39.1885553,40.0444337 L49.483328,48.3955904 L41.6159644,61.8798434 L31.7326007,53.2145904 L39.1885553,40.0444337 L39.1885553,40.0444337 Z M49.6780553,50.3391807 L59.4621462,45.0937711 L52.6514644,56.9180723 L42.6230098,62.429988 L49.6780553,50.3391807 L49.6780553,50.3391807 Z M62.5262371,47.1192169 L59.9222371,46.5976265 L62.5262371,42.0736867 L62.5262371,47.1192169 L62.5262371,47.1192169 Z M60.5455553,43.2158554 L60.424328,43.2796265 L50.7834189,48.4479398 L58.5457825,35.1397711 L58.6059189,35.1083614 L68.1676007,29.9838313 L60.5455553,43.2158554 L60.5455553,43.2158554 Z M73.4567371,59.0006265 L73.2228734,59.1386386 L63.6745553,64.7343133 L63.6745553,48.5336024 L73.4567371,43.3795663 L73.4567371,59.0006265 L73.4567371,59.0006265 Z M73.4567371,42.0851084 L63.6745553,47.2400964 L63.6745553,40.0786988 L70.1902825,28.7540964 L70.2361007,28.4818795 L70.1530553,28.0821205 L70.4747371,27.9098434 L73.4567371,26.4469157 L73.4567371,42.0851084 L73.4567371,42.0851084 Z M73.4567371,25.1733976 L69.0858734,27.3159157 L63.6745553,22.890012 L63.6745553,16.333012 L73.4567371,12.1850361 L73.4567371,25.1733976 L73.4567371,25.1733976 Z M81.6152371,54.2225542 L74.6050553,58.3296024 L74.6050553,42.7751687 L81.8424189,38.9622289 L81.6152371,54.2225542 L81.6152371,54.2225542 Z M81.8634189,37.6563494 L74.6060098,41.4816627 L74.6060098,25.8863012 L82.0925098,22.2123253 L81.8634189,37.6563494 L81.8634189,37.6563494 Z M82.1135098,20.9273855 L74.6060098,24.6089759 L74.6060098,11.6986627 L82.3006007,8.43777108 L82.1135098,20.9273855 L82.1135098,20.9273855 Z M80.7007825,7.87239759 L73.9158734,10.748759 L63.4359189,9.27631325 L70.273328,6.57508434 L80.7007825,7.87239759 L80.7007825,7.87239759 Z M67.9031916,6.2800241 L61.1354644,8.95460241 L48.6385553,7.19851807 L55.9160098,4.78949398 L67.9031916,6.2800241 L67.9031916,6.2800241 Z M41.9777371,3.0553012 L53.2671462,4.45921687 L46.0841916,6.83968675 L43.6214644,6.49418072 L40.0581462,3.5806988 L41.9777371,3.0553012 L41.9777371,3.0553012 Z M35.2739644,1.27637349 L45.545828,9.54091566 L34.8682825,15.2631807 L23.6886462,6.22196386 L35.2739644,1.27637349 L35.2739644,1.27637349 Z M19.9067371,10.1148554 L18.7565098,12.2116867 L18.665828,9.2820241 L19.9067371,10.1148554 L19.9067371,10.1148554 Z M22.8811007,7.04337349 L34.0616916,16.086494 L26.9121462,28.6151325 L15.9759189,19.7442892 L22.8811007,7.04337349 L22.8811007,7.04337349 Z M15.4194189,20.7674819 L26.3375098,29.6221446 L19.1621916,42.1945663 L8.73855527,33.0572169 L15.4194189,20.7674819 L15.4194189,20.7674819 Z M1.28737345,46.7641928 L8.17728254,34.0899277 L18.5827825,43.2101446 L11.1707371,56.1956506 L1.28737345,46.7641928 L1.28737345,46.7641928 Z M12.0260098,57.013253 L19.4619189,43.983012 L30.2740553,53.4611084 L22.5680098,67.0738554 L12.0260098,57.013253 L12.0260098,57.013253 Z M32.8561007,76.8926988 L23.4242371,67.890506 L31.1541462,54.2330241 L41.0270098,62.8897108 L32.8561007,76.8926988 L32.8561007,76.8926988 Z M45.1229644,69.0231566 L34.2077371,76.8546265 L41.4995098,64.3564458 L51.6864189,58.7550602 L45.1229644,69.0231566 L45.1229644,69.0231566 Z" id="Imported-Layers"></path>
            </g>
        </g>
    </g>
</svg>