<?xml version="1.0" encoding="UTF-8"?>
<svg width="102px" height="34px" viewBox="0 0 102 34" version="1.1" xmlns="http://www.w3.org/2000/svg" xmlns:xlink="http://www.w3.org/1999/xlink">
    <title>ucla-logo-blue-no-border</title>
    <defs>
        <polygon id="path-1" points="1.36003168e-05 1.41472561 25.6134244 1.41472561 25.6134244 32.9373804 1.36003168e-05 32.9373804"></polygon>
        <polygon id="path-3" points="27.9889542 0.830167566 53.0282542 0.830167566 53.0282542 33.0075229 27.9889542 33.0075229"></polygon>
    </defs>
    <g id="Client-logo-sheet" stroke="none" stroke-width="1" fill="none" fill-rule="evenodd">
        <g id="ucla-blue" transform="translate(-39.000000, -23.000000)">
            <g id="ucla-logo-blue-no-border" transform="translate(38.999986, 23.000037)">
                <mask id="mask-2" fill="white">
                    <use xlink:href="#path-1"></use>
                </mask>
                <g id="Clip-2"></g>
                <path d="M0.0884747514,23.3457015 C-0.0520504285,22.2614793 0.0169279888,20.691201 0.0169279888,19.9195224 L1.63847115,1.41472561 L7.66747835,1.41472561 L6.01548195,20.0814182 C5.65939921,24.1219899 7.23581288,27.0036608 11.2495863,27.0036608 C15.3519676,27.0036608 17.5205683,24.0731261 17.8784855,20.4909518 L19.589187,1.41472561 L25.6134244,1.41472561 L23.947669,20.2501365 C23.2756798,27.504837 18.4877337,32.9373804 10.75041,32.9373804 C4.71424813,32.9373804 0.826690579,29.0166632 0.0884747514,23.3457015" id="Fill-1" fill="#1B003C"></path>
                <mask id="mask-4" fill="white">
                    <use xlink:href="#path-3"></use>
                </mask>
                <g id="Clip-5"></g>
                <path d="M28.0635708,17.0781964 C28.8498514,8.19513423 34.8129989,0.830167566 45.1129809,0.830167566 C47.8260708,0.830167566 50.4276212,1.4502763 53.0282542,3.1317427 L52.3401212,10.4707102 C49.965319,7.32960037 47.1438082,6.81975778 44.5374881,6.81975778 C38.1281823,6.81975778 34.6126679,11.2936496 34.110373,16.9576043 C33.6240384,22.4729395 36.4567399,26.9578948 42.6651643,26.9578948 C45.3760528,26.9578948 48.249114,26.1698054 51.2610492,23.1500252 L50.5912614,30.6837102 C47.6638981,32.2816472 44.9355816,33.0075967 42.1911212,33.0075967 C31.9986427,33.0075967 27.3303082,25.3948078 28.0635708,17.0781964" id="Fill-4" fill="#1B003C"></path>
                <path d="M57.8420305,1.4148178 L63.8539765,1.4148178 L61.6587751,26.5460932 L70.2730053,26.5460932 C70.8802355,26.5460932 72.9323435,26.5143779 73.4904082,26.4811874 C73.4583039,26.7843271 72.9405989,32.2871236 72.9405989,32.2871236 L55.1144478,32.2871236 L57.8420305,1.4148178 Z" id="Fill-7" fill="#1B003C"></path>
                <path d="M90.7023578,-5.32907052e-14 L90.2861024,0.00719126984 L73.8268614,32.2871421 L80.2150701,32.2871421 L82.5271312,27.3902561 L94.1237607,27.3902561 L95.5739586,32.2871421 L101.944739,32.2871421 L90.7023578,-5.32907052e-14 Z M89.1606168,12.9404135 C89.3591132,12.501746 89.5376132,11.9603725 89.6075089,11.6424815 C89.6075089,11.6400844 89.7018039,11.6400844 89.7018039,11.6400844 C89.7362931,12.0282286 89.8069226,12.4906825 89.9314873,12.9459452 C90.260419,14.3545122 92.604401,22.1692098 92.604401,22.1692098 L85.013473,22.1692098 C85.013473,22.1692098 89.0804478,13.13845 89.1606168,12.9404135 L89.1606168,12.9404135 Z" id="Fill-9" fill="#1B003C"></path>
            </g>
        </g>
    </g>
</svg>