<?xml version="1.0" encoding="UTF-8"?>
<svg width="180px" height="80px" viewBox="0 0 180 80" version="1.1" xmlns="http://www.w3.org/2000/svg" xmlns:xlink="http://www.w3.org/1999/xlink">
    <title>ucla-yellow</title>
    <defs>
        <polygon id="path-1" points="0 0.122546614 25.6134108 0.122546614 25.6134108 31.6452014 0 31.6452014"></polygon>
        <polygon id="path-3" points="0.104048516 0.0911631746 25.1433486 0.0911631746 25.1433486 32.2685185 0.104048516 32.2685185"></polygon>
    </defs>
    <g id="ucla-yellow" stroke="none" stroke-width="1" fill="none" fill-rule="evenodd">
        <g id="ucla-logo" transform="translate(39.000000, 23.000000)">
            <g id="Group-3" transform="translate(0.000000, 1.292216)">
                <mask id="mask-2" fill="white">
                    <use xlink:href="#path-1"></use>
                </mask>
                <g id="Clip-2"></g>
                <path d="M0.0884611511,22.0535225 C-0.0520640288,20.9693003 0.0169143885,19.399022 0.0169143885,18.6273434 L1.63845755,0.122546614 L7.66746475,0.122546614 L6.01546835,18.7892392 C5.65938561,22.8298109 7.23579928,25.7114818 11.2495727,25.7114818 C15.351954,25.7114818 17.5205547,22.7809471 17.8784719,19.1987728 L19.5891734,0.122546614 L25.6134108,0.122546614 L23.9476554,18.9579575 C23.2756662,26.212658 18.4877201,31.6452014 10.7503964,31.6452014 C4.71423453,31.6452014 0.826676978,27.7244842 0.0884611511,22.0535225" id="Fill-1" fill="#F0C100" mask="url(#mask-2)"></path>
            </g>
            <g id="Group-6" transform="translate(27.884892, 0.739041)">
                <mask id="mask-4" fill="white">
                    <use xlink:href="#path-3"></use>
                </mask>
                <g id="Clip-5"></g>
                <path d="M0.178665108,16.339192 C0.964945683,7.45612984 6.92809317,0.0911631746 17.2280752,0.0911631746 C19.9411651,0.0911631746 22.5427155,0.711271905 25.1433486,2.39273831 L24.4552155,9.73170577 C22.0804133,6.59059598 19.2589025,6.08075339 16.6525824,6.08075339 C10.2432766,6.08075339 6.72776223,10.5546452 6.22546727,16.2185999 C5.73913273,21.7339351 8.57183417,26.2188904 14.7802586,26.2188904 C17.4911471,26.2188904 20.3642083,25.430801 23.3761435,22.4110208 L22.7063558,29.9447058 C19.7789924,31.5426428 17.0506759,32.2685923 14.3062155,32.2685923 C4.11373705,32.2685923 -0.554597482,24.6558034 0.178665108,16.339192" id="Fill-4" fill="#F0C100" mask="url(#mask-4)"></path>
            </g>
            <path d="M57.8420169,1.41485468 L63.8539629,1.41485468 L61.6587615,26.5461301 L70.2729917,26.5461301 C70.8802219,26.5461301 72.9323299,26.5144147 73.4903946,26.4812243 C73.4582903,26.7843639 72.9405853,32.2871605 72.9405853,32.2871605 L55.1144342,32.2871605 L57.8420169,1.41485468 Z" id="Fill-7" fill="#F0C100"></path>
            <path d="M90.7023442,3.68783069e-05 L90.2860888,0.00722814815 L73.8268478,32.2871789 L80.2150565,32.2871789 L82.5271176,27.390293 L94.1237471,27.390293 L95.573945,32.2871789 L101.944726,32.2871789 L90.7023442,3.68783069e-05 Z M89.1606032,12.9404504 C89.3590996,12.5017829 89.5375996,11.9604094 89.6074953,11.6425184 C89.6074953,11.6401213 89.7017903,11.6401213 89.7017903,11.6401213 C89.7362795,12.0282654 89.806909,12.4907194 89.9314737,12.9459821 C90.2604054,14.354549 92.6043874,22.1692467 92.6043874,22.1692467 L85.0134594,22.1692467 C85.0134594,22.1692467 89.0804342,13.1384869 89.1606032,12.9404504 L89.1606032,12.9404504 Z" id="Fill-9" fill="#F0C100"></path>
        </g>
    </g>
</svg>