<?xml version="1.0" encoding="UTF-8"?>
<svg width="180px" height="80px" viewBox="0 0 180 80" version="1.1" xmlns="http://www.w3.org/2000/svg" xmlns:xlink="http://www.w3.org/1999/xlink">
    <title>zurb-purple</title>
    <g id="zurb-purple" stroke="none" stroke-width="1" fill="none" fill-rule="evenodd">
        <path d="M52.6004345,37.7947179 C53.3825795,36.8439376 53.7997235,35.7611044 53.7997235,34.5198079 C53.7997235,33.0408163 53.2261505,31.7466987 52.052933,30.6902761 C50.8797156,29.607443 49.4718546,29.0792317 47.8293502,29.0792317 L25.3296465,29.0792317 C24.573573,29.2376951 24.0260715,29.8979592 24,30.7166867 L24,34.5462185 L47.6989927,34.5462185 L28.1975114,40.1716687 C26.9721509,40.5414166 25.9814339,41.2016807 25.199289,42.1788715 C24.417144,43.1296519 24.0260715,44.212485 24.0260715,45.4537815 C24.0260715,46.9855942 24.5996445,48.3061224 25.7728619,49.3889556 C26.9460794,50.4717887 28.3539404,51 29.9964448,51 L52.3397195,51 C53.1218645,50.8943577 53.721509,50.2869148 53.7997235,49.4945978 L53.7997235,45.4537815 L29.9964448,45.4537815 L49.5500691,39.7755102 C50.8015011,39.3793517 51.8182896,38.7190876 52.6004345,37.7947179 Z M83.443018,29.0528211 C82.5826585,29.0792317 81.9047995,29.7659064 81.8526565,30.6110444 L81.8526565,43.8163265 C81.826585,44.7142857 81.0705116,45.4273709 80.1580091,45.4273709 C80.1319376,45.4273709 69.1036935,45.4273709 65.6101126,45.4273709 C64.7497531,45.4009604 64.0458226,44.6878752 63.9936796,43.789916 L63.9936796,43.789916 L63.9936796,29 L59.5875963,29 L59.5875963,29 C58.8315228,29.0264106 58.1797353,29.5810324 58.0233063,30.3205282 L58.0233063,45.4273709 C58.0233063,46.9591837 58.5968793,48.2533013 59.7700968,49.3097239 C60.9433142,50.392557 62.3511752,50.9207683 63.9936796,50.9207683 L81.826585,50.9207683 C83.4690895,50.9207683 84.9030219,50.392557 86.0501679,49.3097239 C87.2233853,48.2268908 87.7969583,46.9327731 87.7969583,45.4273709 L87.7969583,29.0528211 L83.443018,29.0528211 L83.443018,29.0528211 Z M154.305353,38.4285714 C153.966423,38.1116447 153.601422,37.847539 153.158207,37.6626651 C152.584634,37.3985594 151.958918,37.3457383 151.333202,37.240096 L151.333202,34.5198079 C151.333202,33.0144058 150.759629,31.7466987 149.586411,30.6638655 C148.413194,29.5810324 147.031404,29.0528211 145.414971,29.0528211 L127.816709,29.0528211 L127.816709,29.0528211 C126.95635,29.0792317 126.25242,29.7923169 126.200277,30.6638655 L126.200277,50.9471789 L150.029627,50.9471789 C151.672131,50.9471789 153.106064,50.4189676 154.25321,49.3361345 C155.426427,48.2533013 156,46.9591837 156,45.4273709 C156,45.4273709 156,42.7070828 156,42.7070828 C156,41.1488595 155.426427,39.5114046 154.305353,38.4285714 Z M132.196721,34.5198079 L139.601027,34.5198079 C139.601027,34.5198079 139.627099,34.5198079 139.627099,34.5198079 L144.00711,34.5198079 L144.00711,34.5198079 C144.033182,34.5198079 144.033182,34.5198079 144.059253,34.5198079 C144.841398,34.5198079 145.441043,35.1272509 145.493186,35.9195678 L145.493186,35.9195678 L145.493186,36.7647059 C145.493186,37.0552221 145.258542,37.2665066 144.945684,37.2665066 L139.65317,37.2665066 C139.65317,37.2665066 139.65317,37.2665066 139.627099,37.2665066 L132.222793,37.2665066 L132.222793,34.5198079 L132.196721,34.5198079 Z M150.003555,44.9519808 C150.003555,45.242497 149.74284,45.4537815 149.456054,45.4537815 L145.545329,45.4537815 C145.545329,45.4537815 145.545329,45.4537815 145.519257,45.4537815 L132.196721,45.4537815 L132.196721,42.7070828 C132.196721,42.7070828 148.543551,42.7070828 148.569623,42.7070828 C149.325696,42.7070828 149.925341,43.3145258 149.977484,44.0540216 L149.977484,44.9519808 L150.003555,44.9519808 Z M120.151689,30.6638655 C118.978471,29.5810324 117.57061,29.0528211 115.928106,29.0528211 L93.6891171,29.0528211 C92.8287577,29.1056423 92.1248272,29.8187275 92.0987557,30.6902761 L92.0987557,50.9735894 L96.609125,50.9735894 C97.3651985,50.8679472 97.964843,50.2869148 98.069129,49.5210084 L98.069129,42.759904 L114.25953,42.759904 C115.172032,42.759904 115.928106,43.4465786 115.928106,44.2917167 L115.928106,49.5738295 C115.928106,49.6266507 115.928106,49.6794718 115.902034,49.7322929 L115.902034,51 L120.17776,51 L120.17776,51 L120.308118,51 C121.142406,50.9471789 121.820265,50.2605042 121.872408,49.4153661 L121.872408,45.4537815 C121.872408,43.8427371 121.194549,42.4693878 119.838831,41.3601441 C121.194549,40.2773109 121.872408,38.9039616 121.872408,37.240096 L121.872408,34.5198079 C121.898479,33.0144058 121.324906,31.7466987 120.151689,30.6638655 Z M115.928106,36.7382953 C115.928106,37.0288115 115.693462,37.240096 115.380604,37.240096 L113.138455,37.240096 L113.138455,37.240096 L98.0952005,37.240096 L98.0952005,34.5198079 L114.468102,34.5198079 L114.468102,34.5198079 C114.494173,34.5198079 114.494173,34.5198079 114.520245,34.5198079 C115.276318,34.5198079 115.902034,35.1272509 115.954177,35.8931573 L115.954177,36.7382953 L115.928106,36.7382953 Z" id="zurb-logo-blue-no-border" fill="#1B003C" fill-rule="nonzero"></path>
    </g>
</svg>