<?xml version="1.0" encoding="UTF-8"?>
<svg width="132px" height="22px" viewBox="0 0 132 22" version="1.1" xmlns="http://www.w3.org/2000/svg" xmlns:xlink="http://www.w3.org/1999/xlink">
    <title>zurb</title>
    <g id="v6" stroke="none" stroke-width="1" fill="none" fill-rule="evenodd">
        <g id="Home---Desktop" transform="translate(-709.000000, -1546.000000)" fill="#F0C100" fill-rule="nonzero">
            <g id="zurb" transform="translate(709.000000, 1546.000000)">
                <path d="M28.6004345,8.79471789 C29.3825795,7.84393758 29.7997235,6.76110444 29.7997235,5.51980792 C29.7997235,4.04081633 29.2261505,2.74669868 28.052933,1.69027611 C26.8797156,0.607442977 25.4718546,0.0792316927 23.8293502,0.0792316927 L1.32964645,0.0792316927 C0.57357298,0.237695078 0.0260714991,0.897959184 0,1.71668667 L0,5.54621849 L23.6989927,5.54621849 L4.19751136,11.1716687 C2.9721509,11.5414166 1.98143393,12.2016807 1.19928896,13.1788715 C0.417143986,14.1296519 0.0260714991,15.212485 0.0260714991,16.4537815 C0.0260714991,17.9855942 0.59964448,19.3061224 1.77286194,20.3889556 C2.9460794,21.4717887 4.35394035,22 5.9964448,22 L28.3397195,22 C29.1218645,21.8943577 29.721509,21.2869148 29.7997235,20.4945978 L29.7997235,16.4537815 L5.9964448,16.4537815 L25.5500691,10.7755102 C26.8015011,10.3793517 27.8182896,9.71908764 28.6004345,8.79471789 Z M59.443018,0.0528211285 C58.5826585,0.0792316927 57.9047995,0.765906363 57.8526565,1.61104442 L57.8526565,14.8163265 C57.826585,15.7142857 57.0705116,16.4273709 56.1580091,16.4273709 C56.1319376,16.4273709 45.1036935,16.4273709 41.6101126,16.4273709 C40.7497531,16.4009604 40.0458226,15.6878752 39.9936796,14.789916 L39.9936796,14.789916 L39.9936796,0 L35.5875963,0 L35.5875963,0 C34.8315228,0.0264105642 34.1797353,0.581032413 34.0233063,1.32052821 L34.0233063,16.4273709 C34.0233063,17.9591837 34.5968793,19.2533013 35.7700968,20.3097239 C36.9433142,21.392557 38.3511752,21.9207683 39.9936796,21.9207683 L57.826585,21.9207683 C59.4690895,21.9207683 60.9030219,21.392557 62.0501679,20.3097239 C63.2233853,19.2268908 63.7969583,17.9327731 63.7969583,16.4273709 L63.7969583,0.0528211285 L59.443018,0.0528211285 L59.443018,0.0528211285 Z M130.305353,9.42857143 C129.966423,9.11164466 129.601422,8.84753902 129.158207,8.66266507 C128.584634,8.39855942 127.958918,8.3457383 127.333202,8.24009604 L127.333202,5.51980792 C127.333202,4.01440576 126.759629,2.74669868 125.586411,1.66386555 C124.413194,0.581032413 123.031404,0.0528211285 121.414971,0.0528211285 L103.816709,0.0528211285 L103.816709,0.0528211285 C102.95635,0.0792316927 102.25242,0.792316927 102.200277,1.66386555 L102.200277,21.9471789 L126.029627,21.9471789 C127.672131,21.9471789 129.106064,21.4189676 130.25321,20.3361345 C131.426427,19.2533013 132,17.9591837 132,16.4273709 C132,16.4273709 132,13.7070828 132,13.7070828 C132,12.1488595 131.426427,10.5114046 130.305353,9.42857143 Z M108.196721,5.51980792 L115.601027,5.51980792 C115.601027,5.51980792 115.627099,5.51980792 115.627099,5.51980792 L120.00711,5.51980792 L120.00711,5.51980792 C120.033182,5.51980792 120.033182,5.51980792 120.059253,5.51980792 C120.841398,5.51980792 121.441043,6.1272509 121.493186,6.91956783 L121.493186,6.91956783 L121.493186,7.76470588 C121.493186,8.05522209 121.258542,8.2665066 120.945684,8.2665066 L115.65317,8.2665066 C115.65317,8.2665066 115.65317,8.2665066 115.627099,8.2665066 L108.222793,8.2665066 L108.222793,5.51980792 L108.196721,5.51980792 Z M126.003555,15.9519808 C126.003555,16.242497 125.74284,16.4537815 125.456054,16.4537815 L121.545329,16.4537815 C121.545329,16.4537815 121.545329,16.4537815 121.519257,16.4537815 L108.196721,16.4537815 L108.196721,13.7070828 C108.196721,13.7070828 124.543551,13.7070828 124.569623,13.7070828 C125.325696,13.7070828 125.925341,14.3145258 125.977484,15.0540216 L125.977484,15.9519808 L126.003555,15.9519808 Z M96.1516887,1.66386555 C94.9784713,0.581032413 93.5706103,0.0528211285 91.9281059,0.0528211285 L69.6891171,0.0528211285 C68.8287577,0.105642257 68.1248272,0.818727491 68.0987557,1.69027611 L68.0987557,21.9735894 L72.609125,21.9735894 C73.3651985,21.8679472 73.964843,21.2869148 74.069129,20.5210084 L74.069129,13.759904 L90.2595299,13.759904 C91.1720324,13.759904 91.9281059,14.4465786 91.9281059,15.2917167 L91.9281059,20.5738295 C91.9281059,20.6266507 91.9281059,20.6794718 91.9020344,20.7322929 L91.9020344,22 L96.1777602,22 L96.1777602,22 L96.3081177,22 C97.1424057,21.9471789 97.8202647,21.2605042 97.8724077,20.4153661 L97.8724077,16.4537815 C97.8724077,14.8427371 97.1945487,13.4693878 95.8388307,12.3601441 C97.1945487,11.2773109 97.8724077,9.90396158 97.8724077,8.24009604 L97.8724077,5.51980792 C97.8984792,4.01440576 97.3249062,2.74669868 96.1516887,1.66386555 Z M91.9281059,7.73829532 C91.9281059,8.02881152 91.6934624,8.24009604 91.3806044,8.24009604 L89.1384555,8.24009604 L89.1384555,8.24009604 L74.0952005,8.24009604 L74.0952005,5.51980792 L90.4681019,5.51980792 L90.4681019,5.51980792 C90.4941734,5.51980792 90.4941734,5.51980792 90.5202449,5.51980792 C91.2763184,5.51980792 91.9020344,6.1272509 91.9541774,6.89315726 L91.9541774,7.73829532 L91.9281059,7.73829532 Z" id="Shape"></path>
            </g>
        </g>
    </g>
</svg>